G04 #@! TF.GenerationSoftware,KiCad,Pcbnew,8.0.8*
G04 #@! TF.CreationDate,2025-04-14T10:59:08+01:00*
G04 #@! TF.ProjectId,Bat-mon_v1,4261742d-6d6f-46e5-9f76-312e6b696361,rev?*
G04 #@! TF.SameCoordinates,Original*
G04 #@! TF.FileFunction,Paste,Top*
G04 #@! TF.FilePolarity,Positive*
%FSLAX46Y46*%
G04 Gerber Fmt 4.6, Leading zero omitted, Abs format (unit mm)*
G04 Created by KiCad (PCBNEW 8.0.8) date 2025-04-14 10:59:08*
%MOMM*%
%LPD*%
G01*
G04 APERTURE LIST*
G04 Aperture macros list*
%AMRoundRect*
0 Rectangle with rounded corners*
0 $1 Rounding radius*
0 $2 $3 $4 $5 $6 $7 $8 $9 X,Y pos of 4 corners*
0 Add a 4 corners polygon primitive as box body*
4,1,4,$2,$3,$4,$5,$6,$7,$8,$9,$2,$3,0*
0 Add four circle primitives for the rounded corners*
1,1,$1+$1,$2,$3*
1,1,$1+$1,$4,$5*
1,1,$1+$1,$6,$7*
1,1,$1+$1,$8,$9*
0 Add four rect primitives between the rounded corners*
20,1,$1+$1,$2,$3,$4,$5,0*
20,1,$1+$1,$4,$5,$6,$7,0*
20,1,$1+$1,$6,$7,$8,$9,0*
20,1,$1+$1,$8,$9,$2,$3,0*%
G04 Aperture macros list end*
%ADD10RoundRect,0.200000X-0.200000X-0.200000X0.200000X-0.200000X0.200000X0.200000X-0.200000X0.200000X0*%
%ADD11RoundRect,0.175000X-0.175000X1.125000X-0.175000X-1.125000X0.175000X-1.125000X0.175000X1.125000X0*%
%ADD12RoundRect,0.175000X-1.125000X-0.175000X1.125000X-0.175000X1.125000X0.175000X-1.125000X0.175000X0*%
%ADD13R,0.950000X0.950000*%
%ADD14RoundRect,0.075000X-0.662500X-0.075000X0.662500X-0.075000X0.662500X0.075000X-0.662500X0.075000X0*%
%ADD15RoundRect,0.075000X-0.075000X-0.662500X0.075000X-0.662500X0.075000X0.662500X-0.075000X0.662500X0*%
%ADD16RoundRect,0.150000X-0.150000X-0.350000X0.150000X-0.350000X0.150000X0.350000X-0.150000X0.350000X0*%
%ADD17RoundRect,0.100000X-0.200000X-0.100000X0.200000X-0.100000X0.200000X0.100000X-0.200000X0.100000X0*%
%ADD18R,0.300000X0.600000*%
%ADD19R,1.600000X1.600000*%
%ADD20RoundRect,0.200000X0.200000X0.800000X-0.200000X0.800000X-0.200000X-0.800000X0.200000X-0.800000X0*%
%ADD21R,5.200000X4.240000*%
%ADD22R,3.300000X4.240000*%
%ADD23RoundRect,0.200000X-0.200000X-0.800000X0.200000X-0.800000X0.200000X0.800000X-0.200000X0.800000X0*%
%ADD24R,1.120000X1.720000*%
%ADD25R,0.600000X0.250000*%
%ADD26R,0.900000X0.250000*%
%ADD27R,1.300000X0.250000*%
%ADD28R,1.500000X0.800000*%
%ADD29RoundRect,0.150000X0.325000X0.150000X-0.325000X0.150000X-0.325000X-0.150000X0.325000X-0.150000X0*%
%ADD30RoundRect,0.150000X0.150000X0.325000X-0.150000X0.325000X-0.150000X-0.325000X0.150000X-0.325000X0*%
G04 APERTURE END LIST*
D10*
X96290000Y-74100000D03*
X97290000Y-74100000D03*
X97290000Y-75100000D03*
X96290000Y-75100000D03*
X95290000Y-75100000D03*
X95290000Y-74100000D03*
X95290000Y-73100000D03*
X96290000Y-73100000D03*
X97290000Y-73100000D03*
D11*
X100700000Y-80800000D03*
X99700000Y-80800000D03*
X98700000Y-80800000D03*
X97700000Y-80800000D03*
X96700000Y-80800000D03*
X95700000Y-80800000D03*
X94700000Y-80800000D03*
X93700000Y-80800000D03*
X92700000Y-80800000D03*
X91700000Y-80800000D03*
D12*
X88700000Y-78600000D03*
X88700000Y-77600000D03*
X88700000Y-76600000D03*
X88700000Y-75600000D03*
X88700000Y-74600000D03*
X88700000Y-73600000D03*
X88700000Y-72600000D03*
X88700000Y-71600000D03*
X88700000Y-70600000D03*
X88700000Y-69600000D03*
D11*
X91700000Y-67100000D03*
X92700000Y-67100000D03*
X93700000Y-67100000D03*
X94700000Y-67100000D03*
X95700000Y-67100000D03*
X96700000Y-67100000D03*
X97700000Y-67100000D03*
X98700000Y-67100000D03*
X99700000Y-67100000D03*
X100700000Y-67100000D03*
D13*
X49126726Y-76366726D03*
X50626726Y-76366726D03*
D14*
X63704226Y-61066726D03*
X63704226Y-61566726D03*
X63704226Y-62066726D03*
X63704226Y-62566726D03*
X63704226Y-63066726D03*
X63704226Y-63566726D03*
X63704226Y-64066726D03*
X63704226Y-64566726D03*
X63704226Y-65066726D03*
X63704226Y-65566726D03*
X63704226Y-66066726D03*
X63704226Y-66566726D03*
D15*
X65116726Y-67979226D03*
X65616726Y-67979226D03*
X66116726Y-67979226D03*
X66616726Y-67979226D03*
X67116726Y-67979226D03*
X67616726Y-67979226D03*
X68116726Y-67979226D03*
X68616726Y-67979226D03*
X69116726Y-67979226D03*
X69616726Y-67979226D03*
X70116726Y-67979226D03*
X70616726Y-67979226D03*
D14*
X72029226Y-66566726D03*
X72029226Y-66066726D03*
X72029226Y-65566726D03*
X72029226Y-65066726D03*
X72029226Y-64566726D03*
X72029226Y-64066726D03*
X72029226Y-63566726D03*
X72029226Y-63066726D03*
X72029226Y-62566726D03*
X72029226Y-62066726D03*
X72029226Y-61566726D03*
X72029226Y-61066726D03*
D15*
X70616726Y-59654226D03*
X70116726Y-59654226D03*
X69616726Y-59654226D03*
X69116726Y-59654226D03*
X68616726Y-59654226D03*
X68116726Y-59654226D03*
X67616726Y-59654226D03*
X67116726Y-59654226D03*
X66616726Y-59654226D03*
X66116726Y-59654226D03*
X65616726Y-59654226D03*
X65116726Y-59654226D03*
D13*
X95876726Y-89626726D03*
X95876726Y-91126726D03*
X98566726Y-89576726D03*
X98566726Y-91076726D03*
D16*
X64316726Y-27616726D03*
X64316726Y-28916726D03*
X65116726Y-27616726D03*
X65116726Y-28916726D03*
D17*
X63316726Y-27316726D03*
X63316726Y-28266726D03*
X63316726Y-29216726D03*
X66116726Y-29216726D03*
X66116726Y-28266726D03*
X66116726Y-27316726D03*
D18*
X54216726Y-58716726D03*
X54716726Y-58716726D03*
X55216726Y-58716726D03*
X55716726Y-58716726D03*
X55716726Y-55916726D03*
X55216726Y-55916726D03*
X54716726Y-55916726D03*
X54216726Y-55916726D03*
D19*
X54966726Y-57316726D03*
D20*
X78116726Y-36566726D03*
X73916726Y-36566726D03*
D21*
X35616726Y-46316726D03*
D22*
X35616726Y-30306726D03*
D23*
X96766726Y-52566726D03*
X100966726Y-52566726D03*
D13*
X97316726Y-58016726D03*
X98816726Y-58016726D03*
D24*
X55491726Y-83266726D03*
X51341726Y-83266726D03*
D25*
X56466726Y-93366726D03*
X56466726Y-92866726D03*
X56466726Y-92366726D03*
X56466726Y-91866726D03*
X56466726Y-91366726D03*
D26*
X54816726Y-91366726D03*
X54816726Y-91866726D03*
D27*
X55016726Y-92366726D03*
D26*
X54816726Y-92866726D03*
X54816726Y-93366726D03*
D13*
X49126726Y-80116726D03*
X50626726Y-80116726D03*
D28*
X60366726Y-61566726D03*
X60366726Y-63066726D03*
D21*
X35616726Y-81306726D03*
D22*
X35616726Y-97316726D03*
D29*
X64816726Y-51466726D03*
X64816726Y-50666726D03*
X64816726Y-49866726D03*
X64816726Y-49066726D03*
X64816726Y-48266726D03*
X64816726Y-47466726D03*
D30*
X63816726Y-47466726D03*
D29*
X62816726Y-47466726D03*
X62816726Y-48266726D03*
X62816726Y-49066726D03*
X62816726Y-49866726D03*
X62816726Y-50666726D03*
X62816726Y-51466726D03*
D30*
X63816726Y-51466726D03*
M02*
