G04 #@! TF.GenerationSoftware,KiCad,Pcbnew,8.0.8*
G04 #@! TF.CreationDate,2025-04-14T10:59:08+01:00*
G04 #@! TF.ProjectId,Bat-mon_v1,4261742d-6d6f-46e5-9f76-312e6b696361,rev?*
G04 #@! TF.SameCoordinates,Original*
G04 #@! TF.FileFunction,Copper,L1,Top*
G04 #@! TF.FilePolarity,Positive*
%FSLAX46Y46*%
G04 Gerber Fmt 4.6, Leading zero omitted, Abs format (unit mm)*
G04 Created by KiCad (PCBNEW 8.0.8) date 2025-04-14 10:59:08*
%MOMM*%
%LPD*%
G01*
G04 APERTURE LIST*
G04 Aperture macros list*
%AMRoundRect*
0 Rectangle with rounded corners*
0 $1 Rounding radius*
0 $2 $3 $4 $5 $6 $7 $8 $9 X,Y pos of 4 corners*
0 Add a 4 corners polygon primitive as box body*
4,1,4,$2,$3,$4,$5,$6,$7,$8,$9,$2,$3,0*
0 Add four circle primitives for the rounded corners*
1,1,$1+$1,$2,$3*
1,1,$1+$1,$4,$5*
1,1,$1+$1,$6,$7*
1,1,$1+$1,$8,$9*
0 Add four rect primitives between the rounded corners*
20,1,$1+$1,$2,$3,$4,$5,0*
20,1,$1+$1,$4,$5,$6,$7,0*
20,1,$1+$1,$6,$7,$8,$9,0*
20,1,$1+$1,$8,$9,$2,$3,0*%
G04 Aperture macros list end*
G04 #@! TA.AperFunction,SMDPad,CuDef*
%ADD10RoundRect,0.200000X-0.200000X-0.200000X0.200000X-0.200000X0.200000X0.200000X-0.200000X0.200000X0*%
G04 #@! TD*
G04 #@! TA.AperFunction,SMDPad,CuDef*
%ADD11RoundRect,0.175000X-0.175000X1.125000X-0.175000X-1.125000X0.175000X-1.125000X0.175000X1.125000X0*%
G04 #@! TD*
G04 #@! TA.AperFunction,SMDPad,CuDef*
%ADD12RoundRect,0.175000X-1.125000X-0.175000X1.125000X-0.175000X1.125000X0.175000X-1.125000X0.175000X0*%
G04 #@! TD*
G04 #@! TA.AperFunction,ComponentPad*
%ADD13C,0.700000*%
G04 #@! TD*
G04 #@! TA.AperFunction,ComponentPad*
%ADD14C,4.400000*%
G04 #@! TD*
G04 #@! TA.AperFunction,ComponentPad*
%ADD15C,1.600000*%
G04 #@! TD*
G04 #@! TA.AperFunction,ComponentPad*
%ADD16O,1.600000X1.600000*%
G04 #@! TD*
G04 #@! TA.AperFunction,SMDPad,CuDef*
%ADD17R,0.950000X0.950000*%
G04 #@! TD*
G04 #@! TA.AperFunction,SMDPad,CuDef*
%ADD18RoundRect,0.075000X-0.662500X-0.075000X0.662500X-0.075000X0.662500X0.075000X-0.662500X0.075000X0*%
G04 #@! TD*
G04 #@! TA.AperFunction,SMDPad,CuDef*
%ADD19RoundRect,0.075000X-0.075000X-0.662500X0.075000X-0.662500X0.075000X0.662500X-0.075000X0.662500X0*%
G04 #@! TD*
G04 #@! TA.AperFunction,ComponentPad*
%ADD20R,1.050000X1.500000*%
G04 #@! TD*
G04 #@! TA.AperFunction,ComponentPad*
%ADD21O,1.050000X1.500000*%
G04 #@! TD*
G04 #@! TA.AperFunction,SMDPad,CuDef*
%ADD22RoundRect,0.100000X-0.200000X-0.100000X0.200000X-0.100000X0.200000X0.100000X-0.200000X0.100000X0*%
G04 #@! TD*
G04 #@! TA.AperFunction,SMDPad,CuDef*
%ADD23R,1.500000X2.400000*%
G04 #@! TD*
G04 #@! TA.AperFunction,SMDPad,CuDef*
%ADD24R,0.300000X0.600000*%
G04 #@! TD*
G04 #@! TA.AperFunction,SMDPad,CuDef*
%ADD25R,1.600000X1.600000*%
G04 #@! TD*
G04 #@! TA.AperFunction,ComponentPad*
%ADD26C,1.580000*%
G04 #@! TD*
G04 #@! TA.AperFunction,SMDPad,CuDef*
%ADD27RoundRect,0.200000X0.200000X0.800000X-0.200000X0.800000X-0.200000X-0.800000X0.200000X-0.800000X0*%
G04 #@! TD*
G04 #@! TA.AperFunction,ComponentPad*
%ADD28C,2.300000*%
G04 #@! TD*
G04 #@! TA.AperFunction,ComponentPad*
%ADD29R,1.575000X1.575000*%
G04 #@! TD*
G04 #@! TA.AperFunction,ComponentPad*
%ADD30C,1.575000*%
G04 #@! TD*
G04 #@! TA.AperFunction,SMDPad,CuDef*
%ADD31R,5.200000X4.240000*%
G04 #@! TD*
G04 #@! TA.AperFunction,SMDPad,CuDef*
%ADD32R,3.300000X4.240000*%
G04 #@! TD*
G04 #@! TA.AperFunction,SMDPad,CuDef*
%ADD33RoundRect,0.200000X-0.200000X-0.800000X0.200000X-0.800000X0.200000X0.800000X-0.200000X0.800000X0*%
G04 #@! TD*
G04 #@! TA.AperFunction,SMDPad,CuDef*
%ADD34R,1.120000X1.720000*%
G04 #@! TD*
G04 #@! TA.AperFunction,ComponentPad*
%ADD35R,1.700000X1.700000*%
G04 #@! TD*
G04 #@! TA.AperFunction,ComponentPad*
%ADD36O,1.700000X1.700000*%
G04 #@! TD*
G04 #@! TA.AperFunction,SMDPad,CuDef*
%ADD37R,0.600000X0.250000*%
G04 #@! TD*
G04 #@! TA.AperFunction,SMDPad,CuDef*
%ADD38R,0.900000X0.250000*%
G04 #@! TD*
G04 #@! TA.AperFunction,SMDPad,CuDef*
%ADD39R,1.300000X0.250000*%
G04 #@! TD*
G04 #@! TA.AperFunction,SMDPad,CuDef*
%ADD40R,1.500000X0.800000*%
G04 #@! TD*
G04 #@! TA.AperFunction,ComponentPad*
%ADD41R,2.925000X2.925000*%
G04 #@! TD*
G04 #@! TA.AperFunction,ComponentPad*
%ADD42C,2.925000*%
G04 #@! TD*
G04 #@! TA.AperFunction,SMDPad,CuDef*
%ADD43RoundRect,0.150000X0.325000X0.150000X-0.325000X0.150000X-0.325000X-0.150000X0.325000X-0.150000X0*%
G04 #@! TD*
G04 #@! TA.AperFunction,SMDPad,CuDef*
%ADD44RoundRect,0.150000X0.150000X0.325000X-0.150000X0.325000X-0.150000X-0.325000X0.150000X-0.325000X0*%
G04 #@! TD*
G04 #@! TA.AperFunction,ComponentPad*
%ADD45R,1.725000X1.725000*%
G04 #@! TD*
G04 #@! TA.AperFunction,ComponentPad*
%ADD46C,1.725000*%
G04 #@! TD*
G04 #@! TA.AperFunction,ViaPad*
%ADD47C,0.700000*%
G04 #@! TD*
G04 #@! TA.AperFunction,Conductor*
%ADD48C,0.300000*%
G04 #@! TD*
G04 #@! TA.AperFunction,Conductor*
%ADD49C,0.500000*%
G04 #@! TD*
G04 #@! TA.AperFunction,Conductor*
%ADD50C,0.200000*%
G04 #@! TD*
G04 APERTURE END LIST*
D10*
X96290000Y-74100000D03*
X97290000Y-74100000D03*
X97290000Y-75100000D03*
X96290000Y-75100000D03*
X95290000Y-75100000D03*
X95290000Y-74100000D03*
X95290000Y-73100000D03*
X96290000Y-73100000D03*
X97290000Y-73100000D03*
D11*
X100700000Y-80800000D03*
X99700000Y-80800000D03*
X98700000Y-80800000D03*
X97700000Y-80800000D03*
X96700000Y-80800000D03*
X95700000Y-80800000D03*
X94700000Y-80800000D03*
X93700000Y-80800000D03*
X92700000Y-80800000D03*
X91700000Y-80800000D03*
D12*
X88700000Y-78600000D03*
X88700000Y-77600000D03*
X88700000Y-76600000D03*
X88700000Y-75600000D03*
X88700000Y-74600000D03*
X88700000Y-73600000D03*
X88700000Y-72600000D03*
X88700000Y-71600000D03*
X88700000Y-70600000D03*
X88700000Y-69600000D03*
D11*
X91700000Y-67100000D03*
X92700000Y-67100000D03*
X93700000Y-67100000D03*
X94700000Y-67100000D03*
X95700000Y-67100000D03*
X96700000Y-67100000D03*
X97700000Y-67100000D03*
X98700000Y-67100000D03*
X99700000Y-67100000D03*
X100700000Y-67100000D03*
D13*
X98350000Y-99200000D03*
X98833274Y-98033274D03*
X98833274Y-100366726D03*
X100000000Y-97550000D03*
D14*
X100000000Y-99200000D03*
D13*
X100000000Y-100850000D03*
X101166726Y-98033274D03*
X101166726Y-100366726D03*
X101650000Y-99200000D03*
D15*
X93026726Y-92336726D03*
D16*
X93026726Y-84716726D03*
D15*
X62866726Y-86791726D03*
X62866726Y-84291726D03*
D13*
X22966726Y-99066726D03*
X23450000Y-97900000D03*
X23450000Y-100233452D03*
X24616726Y-97416726D03*
D14*
X24616726Y-99066726D03*
D13*
X24616726Y-100716726D03*
X25783452Y-97900000D03*
X25783452Y-100233452D03*
X26266726Y-99066726D03*
D17*
X49126726Y-76366726D03*
X50626726Y-76366726D03*
D18*
X63704226Y-61066726D03*
X63704226Y-61566726D03*
X63704226Y-62066726D03*
X63704226Y-62566726D03*
X63704226Y-63066726D03*
X63704226Y-63566726D03*
X63704226Y-64066726D03*
X63704226Y-64566726D03*
X63704226Y-65066726D03*
X63704226Y-65566726D03*
X63704226Y-66066726D03*
X63704226Y-66566726D03*
D19*
X65116726Y-67979226D03*
X65616726Y-67979226D03*
X66116726Y-67979226D03*
X66616726Y-67979226D03*
X67116726Y-67979226D03*
X67616726Y-67979226D03*
X68116726Y-67979226D03*
X68616726Y-67979226D03*
X69116726Y-67979226D03*
X69616726Y-67979226D03*
X70116726Y-67979226D03*
X70616726Y-67979226D03*
D18*
X72029226Y-66566726D03*
X72029226Y-66066726D03*
X72029226Y-65566726D03*
X72029226Y-65066726D03*
X72029226Y-64566726D03*
X72029226Y-64066726D03*
X72029226Y-63566726D03*
X72029226Y-63066726D03*
X72029226Y-62566726D03*
X72029226Y-62066726D03*
X72029226Y-61566726D03*
X72029226Y-61066726D03*
D19*
X70616726Y-59654226D03*
X70116726Y-59654226D03*
X69616726Y-59654226D03*
X69116726Y-59654226D03*
X68616726Y-59654226D03*
X68116726Y-59654226D03*
X67616726Y-59654226D03*
X67116726Y-59654226D03*
X66616726Y-59654226D03*
X66116726Y-59654226D03*
X65616726Y-59654226D03*
X65116726Y-59654226D03*
D20*
X83076726Y-45426726D03*
D21*
X84346726Y-45426726D03*
X85616726Y-45426726D03*
D15*
X53006726Y-76366726D03*
D16*
X60626726Y-76366726D03*
D17*
X95876726Y-89626726D03*
X95876726Y-91126726D03*
D15*
X68066726Y-37566726D03*
X68066726Y-35066726D03*
X50816726Y-58116726D03*
X48316726Y-58116726D03*
X53366726Y-37616726D03*
X53366726Y-35116726D03*
X55466726Y-86716726D03*
D16*
X47846726Y-86716726D03*
D17*
X98566726Y-89576726D03*
X98566726Y-91076726D03*
D22*
X63316726Y-27316726D03*
X63316726Y-28266726D03*
X63316726Y-29216726D03*
X66116726Y-29216726D03*
X66116726Y-28266726D03*
X66116726Y-27316726D03*
D23*
X64716726Y-28266726D03*
D24*
X54216726Y-58716726D03*
X54716726Y-58716726D03*
X55216726Y-58716726D03*
X55716726Y-58716726D03*
X55716726Y-55916726D03*
X55216726Y-55916726D03*
X54716726Y-55916726D03*
X54216726Y-55916726D03*
D25*
X54966726Y-57316726D03*
D15*
X56616726Y-64716726D03*
X54116726Y-64716726D03*
X50816726Y-64116726D03*
X48316726Y-64116726D03*
X50816726Y-61116726D03*
X48316726Y-61116726D03*
X87866726Y-56926726D03*
D16*
X87866726Y-49306726D03*
D15*
X50766726Y-70066726D03*
X48266726Y-70066726D03*
X65216726Y-37566726D03*
X65216726Y-35066726D03*
X51866726Y-53426726D03*
D16*
X51866726Y-45806726D03*
D26*
X98866726Y-36566726D03*
X88866726Y-36566726D03*
D15*
X52946726Y-80116726D03*
D16*
X60566726Y-80116726D03*
D27*
X78116726Y-36566726D03*
X73916726Y-36566726D03*
D15*
X82266726Y-64566726D03*
D16*
X89886726Y-64566726D03*
D15*
X50766726Y-72966726D03*
X48266726Y-72966726D03*
D28*
X66116726Y-87066726D03*
X88716726Y-87066726D03*
D29*
X51436726Y-41816726D03*
D30*
X53976726Y-41816726D03*
X56516726Y-41816726D03*
X59056726Y-41816726D03*
X61596726Y-41816726D03*
X64136726Y-41816726D03*
X66676726Y-41816726D03*
X69216726Y-41816726D03*
X71756726Y-41816726D03*
X74296726Y-41816726D03*
D31*
X35616726Y-46316726D03*
D32*
X35616726Y-30306726D03*
D15*
X56266726Y-37616726D03*
X56266726Y-35116726D03*
X101726726Y-61016726D03*
D16*
X94106726Y-61016726D03*
D15*
X61916726Y-90606726D03*
D16*
X61916726Y-98226726D03*
D33*
X96766726Y-52566726D03*
X100966726Y-52566726D03*
D13*
X98916726Y-27766726D03*
X99400000Y-26600000D03*
X99400000Y-28933452D03*
X100566726Y-26116726D03*
D14*
X100566726Y-27766726D03*
D13*
X100566726Y-29416726D03*
X101733452Y-26600000D03*
X101733452Y-28933452D03*
X102216726Y-27766726D03*
D15*
X59166726Y-37616726D03*
X59166726Y-35116726D03*
D17*
X97316726Y-58016726D03*
X98816726Y-58016726D03*
D13*
X22966726Y-28116726D03*
X23450000Y-26950000D03*
X23450000Y-29283452D03*
X24616726Y-26466726D03*
D14*
X24616726Y-28116726D03*
D13*
X24616726Y-29766726D03*
X25783452Y-26950000D03*
X25783452Y-29283452D03*
X26266726Y-28116726D03*
D34*
X55491726Y-83266726D03*
X51341726Y-83266726D03*
D35*
X76366726Y-59856726D03*
D36*
X76366726Y-57316726D03*
X76366726Y-54776726D03*
X76366726Y-52236726D03*
X76366726Y-49696726D03*
D15*
X62166726Y-37616726D03*
X62166726Y-35116726D03*
D29*
X86346726Y-80166726D03*
D30*
X83806726Y-80166726D03*
X81266726Y-80166726D03*
X78726726Y-80166726D03*
X76186726Y-80166726D03*
X73646726Y-80166726D03*
X71106726Y-80166726D03*
X68566726Y-80166726D03*
X66026726Y-80166726D03*
X63486726Y-80166726D03*
D15*
X60116726Y-84291726D03*
X60116726Y-86791726D03*
X56616726Y-61716726D03*
X54116726Y-61716726D03*
X55266726Y-53426726D03*
D16*
X55266726Y-45806726D03*
D15*
X81266726Y-55866726D03*
X81266726Y-58366726D03*
D37*
X56466726Y-93366726D03*
X56466726Y-92866726D03*
X56466726Y-92366726D03*
X56466726Y-91866726D03*
X56466726Y-91366726D03*
D38*
X54816726Y-91366726D03*
X54816726Y-91866726D03*
D39*
X55016726Y-92366726D03*
D38*
X54816726Y-92866726D03*
X54816726Y-93366726D03*
D17*
X49126726Y-80116726D03*
X50626726Y-80116726D03*
D40*
X60366726Y-61566726D03*
X60366726Y-63066726D03*
D41*
X74886726Y-96716726D03*
D42*
X78886726Y-96716726D03*
X82886726Y-96716726D03*
D15*
X58616726Y-45756726D03*
D16*
X58616726Y-53376726D03*
D15*
X51466726Y-89496726D03*
D16*
X51466726Y-97116726D03*
D31*
X35616726Y-81306726D03*
D32*
X35616726Y-97316726D03*
D43*
X64816726Y-51466726D03*
X64816726Y-50666726D03*
X64816726Y-49866726D03*
X64816726Y-49066726D03*
X64816726Y-48266726D03*
X64816726Y-47466726D03*
D44*
X63816726Y-47466726D03*
D43*
X62816726Y-47466726D03*
X62816726Y-48266726D03*
X62816726Y-49066726D03*
X62816726Y-49866726D03*
X62816726Y-50666726D03*
X62816726Y-51466726D03*
D44*
X63816726Y-51466726D03*
D15*
X83806726Y-61066726D03*
D16*
X91426726Y-61066726D03*
D15*
X75266726Y-45466726D03*
X72766726Y-45466726D03*
X101516726Y-92736726D03*
D16*
X101516726Y-85116726D03*
D15*
X48216726Y-89496726D03*
D16*
X48216726Y-97116726D03*
D45*
X77116726Y-67736726D03*
D46*
X77116726Y-70276726D03*
X77116726Y-72816726D03*
X77116726Y-75356726D03*
D15*
X50766726Y-67066726D03*
X48266726Y-67066726D03*
D47*
X57266726Y-50316726D03*
X59416726Y-50316726D03*
X56966726Y-55116726D03*
X49716726Y-53416726D03*
X99166726Y-75400000D03*
X99166726Y-74266726D03*
X66116726Y-48266726D03*
X49066726Y-83866726D03*
X100966726Y-70916726D03*
X93316726Y-73316726D03*
X99166726Y-71866726D03*
X100966726Y-77550000D03*
X33516726Y-33366726D03*
X37816726Y-35366726D03*
X97300000Y-73100000D03*
X48066726Y-78416726D03*
X56166726Y-94341726D03*
X56516726Y-56866726D03*
X99166726Y-69100000D03*
X95876726Y-87976726D03*
X97300000Y-74100000D03*
X100966726Y-78666726D03*
X97366726Y-76516726D03*
X102466726Y-70916726D03*
X91616726Y-72416726D03*
X95300000Y-74100000D03*
X35566726Y-33366726D03*
X35566726Y-35366726D03*
X35566726Y-38266726D03*
X33516726Y-35366726D03*
X98566726Y-87976726D03*
X91616726Y-77316726D03*
X91616726Y-70866726D03*
X91616726Y-69050000D03*
X37816726Y-38266726D03*
X97366726Y-77516726D03*
X37816726Y-33366726D03*
X95316726Y-71866726D03*
X102466726Y-78666726D03*
X97366726Y-69966726D03*
X91616726Y-73316726D03*
X97366726Y-71916726D03*
X95300000Y-75100000D03*
X96300000Y-74100000D03*
X91616726Y-75566726D03*
X93316726Y-77316726D03*
X100966726Y-69966726D03*
X35566726Y-40766726D03*
X99166726Y-76516726D03*
X91616726Y-69916726D03*
X102466726Y-77550000D03*
X100966726Y-75716726D03*
X58766726Y-92641726D03*
X66466726Y-61416726D03*
X37816726Y-40766726D03*
X96300000Y-73100000D03*
X33516726Y-40766726D03*
X99166726Y-73116726D03*
X73366726Y-39016726D03*
X95316726Y-69916726D03*
X97700000Y-82900000D03*
X100966726Y-76516726D03*
X56516726Y-57716726D03*
X97366726Y-70966726D03*
X93316726Y-69050000D03*
X97366726Y-78666726D03*
X91616726Y-74366726D03*
X55166726Y-94341726D03*
X48066726Y-81616726D03*
X37816726Y-43266726D03*
X82516726Y-81866726D03*
X102466726Y-76516726D03*
X99166726Y-78666726D03*
X102466726Y-75716726D03*
X95316726Y-69050000D03*
X69416726Y-63333274D03*
X95316726Y-78616726D03*
X102466726Y-69966726D03*
X99166726Y-69966726D03*
X93316726Y-70866726D03*
X91616726Y-78616726D03*
X66116726Y-50616726D03*
X61866726Y-29866726D03*
X33516726Y-43266726D03*
X96300000Y-75100000D03*
X95316726Y-76466726D03*
X66116726Y-49066726D03*
X95316726Y-70916726D03*
X93700000Y-64700000D03*
X61566726Y-28716726D03*
X93316726Y-75566726D03*
X97316726Y-56266726D03*
X33516726Y-38266726D03*
X95316726Y-77516726D03*
X56516726Y-58616726D03*
X95300000Y-73100000D03*
X58541726Y-93416726D03*
X93316726Y-69916726D03*
X101350000Y-64400000D03*
X96150000Y-64400000D03*
X35566726Y-43266726D03*
X99166726Y-70916726D03*
X93316726Y-76466726D03*
X97366726Y-69100000D03*
X100966726Y-69100000D03*
X97300000Y-75100000D03*
X102466726Y-69100000D03*
X51516726Y-91866726D03*
X93316726Y-74366726D03*
X50216726Y-45816726D03*
X97666726Y-63016726D03*
X70266726Y-66216726D03*
X47416726Y-45766726D03*
X82366726Y-75616726D03*
X67633452Y-65900000D03*
X49016726Y-59566726D03*
X53066726Y-59616726D03*
X86141726Y-77416726D03*
X87716726Y-67216726D03*
X46516726Y-76016726D03*
X50166726Y-49716726D03*
X45466726Y-73866726D03*
X45691726Y-50841726D03*
X80116726Y-65966726D03*
X99116726Y-64366726D03*
X86016726Y-71716726D03*
X61316726Y-48916726D03*
X65766726Y-53566726D03*
X64766726Y-45266726D03*
X61516726Y-46116726D03*
D48*
X70616726Y-66566726D02*
X70616726Y-67979226D01*
X70266726Y-66216726D02*
X70616726Y-66566726D01*
X66800178Y-65066726D02*
X63704226Y-65066726D01*
X67633452Y-65900000D02*
X66800178Y-65066726D01*
X70116726Y-67138606D02*
X70116726Y-67979226D01*
X69066726Y-66088606D02*
X70116726Y-67138606D01*
X69416726Y-63333274D02*
X69066726Y-63683274D01*
X69416726Y-63333274D02*
X68183274Y-64566726D01*
X71183274Y-61566726D02*
X72029226Y-61566726D01*
X69416726Y-63333274D02*
X71183274Y-61566726D01*
X69066726Y-63683274D02*
X69066726Y-66088606D01*
X68183274Y-64566726D02*
X63704226Y-64566726D01*
D49*
X48200000Y-87070000D02*
X47846726Y-86716726D01*
X48216726Y-89496726D02*
X48200000Y-89480000D01*
X48200000Y-89480000D02*
X48200000Y-87070000D01*
X97700000Y-82900000D02*
X97700000Y-80850000D01*
D48*
X93700000Y-83100000D02*
X93700000Y-80900000D01*
X95716726Y-85116726D02*
X93700000Y-83100000D01*
X101516726Y-85116726D02*
X95716726Y-85116726D01*
D49*
X93700000Y-64700000D02*
X93700000Y-66733452D01*
X96750000Y-65000000D02*
X96750000Y-67283452D01*
X96150000Y-64400000D02*
X96750000Y-65000000D01*
X100700000Y-65050000D02*
X100700000Y-67383452D01*
X101350000Y-64400000D02*
X100700000Y-65050000D01*
D48*
X99700000Y-64950000D02*
X99700000Y-66733452D01*
X99116726Y-64366726D02*
X99700000Y-64950000D01*
D49*
X97666726Y-63016726D02*
X97700000Y-63050000D01*
X97700000Y-63050000D02*
X97700000Y-67283452D01*
X91700000Y-83133452D02*
X91700000Y-80900000D01*
X90916726Y-83916726D02*
X91700000Y-83133452D01*
X86366726Y-83916726D02*
X90916726Y-83916726D01*
X84316726Y-81866726D02*
X86366726Y-83916726D01*
X50626726Y-80116726D02*
X52946726Y-80116726D01*
X50626726Y-76366726D02*
X53006726Y-76366726D01*
D48*
X55866726Y-91866726D02*
X55616726Y-91616726D01*
X52266726Y-86716726D02*
X47846726Y-86716726D01*
X56466726Y-91866726D02*
X55866726Y-91866726D01*
X55616726Y-90066726D02*
X52266726Y-86716726D01*
X55616726Y-91616726D02*
X55616726Y-90066726D01*
X54816726Y-92866726D02*
X54041726Y-92866726D01*
X54041726Y-92866726D02*
X51466726Y-95441726D01*
X51466726Y-95441726D02*
X51466726Y-97116726D01*
X53291726Y-91866726D02*
X51466726Y-90041726D01*
X51466726Y-90041726D02*
X51466726Y-89496726D01*
X54816726Y-91866726D02*
X53291726Y-91866726D01*
X52966726Y-60516726D02*
X64563275Y-60516726D01*
X66842886Y-62225587D02*
X67616726Y-61451747D01*
X64563275Y-60516726D02*
X66272136Y-62225587D01*
X54716726Y-55266726D02*
X54266726Y-54816726D01*
X52813833Y-55076726D02*
X52806726Y-55076726D01*
X54266726Y-54816726D02*
X53073833Y-54816726D01*
X52366726Y-55516726D02*
X52366726Y-59916726D01*
X54716726Y-55916726D02*
X54716726Y-55266726D01*
X52806726Y-55076726D02*
X52366726Y-55516726D01*
X67616726Y-61451747D02*
X67616726Y-59654226D01*
X66272136Y-62225587D02*
X66842886Y-62225587D01*
X53073833Y-54816726D02*
X52813833Y-55076726D01*
X52366726Y-59916726D02*
X52966726Y-60516726D01*
X48966726Y-36216726D02*
X48966726Y-50516726D01*
X56966726Y-55116726D02*
X59266726Y-57416726D01*
X64719846Y-57416726D02*
X66116726Y-58813606D01*
X57066726Y-50316726D02*
X57266726Y-50316726D01*
X56066726Y-55116726D02*
X56966726Y-55116726D01*
X48966726Y-50516726D02*
X51866726Y-53416726D01*
X55716726Y-55466726D02*
X56066726Y-55116726D01*
X51856726Y-53416726D02*
X51866726Y-53426726D01*
X54976726Y-50316726D02*
X57066726Y-50316726D01*
X57866726Y-27316726D02*
X48966726Y-36216726D01*
X55716726Y-55916726D02*
X55716726Y-55466726D01*
X59416726Y-50316726D02*
X60566726Y-51466726D01*
X51866726Y-53426726D02*
X54976726Y-50316726D01*
X51866726Y-53416726D02*
X51866726Y-53426726D01*
X66116726Y-58813606D02*
X66116726Y-59654226D01*
X63316726Y-27316726D02*
X57866726Y-27316726D01*
X60566726Y-51466726D02*
X62816726Y-51466726D01*
X49716726Y-53416726D02*
X51856726Y-53416726D01*
X59266726Y-57416726D02*
X64719846Y-57416726D01*
X59266726Y-56216726D02*
X64226953Y-56216726D01*
X63266726Y-52966726D02*
X63816726Y-52416726D01*
X64226953Y-56216726D02*
X65526953Y-57516726D01*
X48166726Y-34316726D02*
X48166726Y-54366726D01*
X67066726Y-27016726D02*
X67066726Y-26516726D01*
X66616726Y-58606499D02*
X66616726Y-59654226D01*
X55216726Y-53476726D02*
X55266726Y-53426726D01*
X55256726Y-53416726D02*
X55266726Y-53426726D01*
X60966726Y-52966726D02*
X63266726Y-52966726D01*
X66116726Y-27316726D02*
X66766726Y-27316726D01*
X67066726Y-26516726D02*
X66866726Y-26316726D01*
X66866726Y-26316726D02*
X56166726Y-26316726D01*
X66766726Y-27316726D02*
X67066726Y-27016726D01*
X55266726Y-53426726D02*
X56926726Y-51766726D01*
X48166726Y-54366726D02*
X49566726Y-55766726D01*
X65526953Y-57516726D02*
X66616726Y-58606499D01*
X52599619Y-54576726D02*
X52606726Y-54576726D01*
X63816726Y-52416726D02*
X63816726Y-51466726D01*
X53766726Y-53416726D02*
X55256726Y-53416726D01*
X51409619Y-55766726D02*
X52599619Y-54576726D01*
X59766726Y-51766726D02*
X60966726Y-52966726D01*
X55216726Y-55916726D02*
X55216726Y-53476726D01*
X56166726Y-26316726D02*
X48166726Y-34316726D01*
X56926726Y-51766726D02*
X59766726Y-51766726D01*
X55266726Y-53426726D02*
X56476726Y-53426726D01*
X52606726Y-54576726D02*
X53766726Y-53416726D01*
X56476726Y-53426726D02*
X59266726Y-56216726D01*
X49566726Y-55766726D02*
X51409619Y-55766726D01*
X69616726Y-69266726D02*
X70666726Y-70316726D01*
X69616726Y-67979226D02*
X69616726Y-69266726D01*
X70666726Y-70316726D02*
X77076726Y-70316726D01*
X77076726Y-70316726D02*
X77116726Y-70276726D01*
X69116726Y-67979226D02*
X69116726Y-69816726D01*
X69116726Y-69816726D02*
X72116726Y-72816726D01*
X72116726Y-72816726D02*
X77116726Y-72816726D01*
X75946726Y-66524226D02*
X78374226Y-66524226D01*
X79866726Y-68016726D02*
X79866726Y-78766726D01*
X78374226Y-66524226D02*
X79866726Y-68016726D01*
X72029226Y-66566726D02*
X75904226Y-66566726D01*
X81266726Y-80166726D02*
X81536726Y-80166726D01*
X81536726Y-80166726D02*
X81686726Y-80016726D01*
X75904226Y-66566726D02*
X75946726Y-66524226D01*
X79866726Y-78766726D02*
X81266726Y-80166726D01*
X74902261Y-65816726D02*
X74652261Y-66066726D01*
X74652261Y-66066726D02*
X72029226Y-66066726D01*
X84226726Y-80016726D02*
X84076726Y-80166726D01*
X78666726Y-65816726D02*
X74902261Y-65816726D01*
X81166726Y-68316726D02*
X78666726Y-65816726D01*
X81166726Y-77526726D02*
X81166726Y-68316726D01*
X83806726Y-80166726D02*
X81166726Y-77526726D01*
X84076726Y-80166726D02*
X83806726Y-80166726D01*
X65616726Y-67979226D02*
X65616726Y-77929619D01*
X65616726Y-77929619D02*
X63486726Y-80059619D01*
X63486726Y-80059619D02*
X63486726Y-80166726D01*
X68566726Y-78666726D02*
X68566726Y-80166726D01*
X66616726Y-67979226D02*
X66616726Y-76716726D01*
X66616726Y-76716726D02*
X68566726Y-78666726D01*
X66116726Y-67979226D02*
X66116726Y-78136726D01*
X66666726Y-80066726D02*
X66616726Y-80016726D01*
X66116726Y-78136726D02*
X66026726Y-78226726D01*
X66026726Y-78226726D02*
X66026726Y-80166726D01*
X70116726Y-42716726D02*
X69216726Y-41816726D01*
X70116726Y-59654226D02*
X70116726Y-42716726D01*
X67116726Y-67979226D02*
X67116726Y-75566726D01*
X71106726Y-79556726D02*
X71106726Y-80166726D01*
X67116726Y-75566726D02*
X71106726Y-79556726D01*
X68116726Y-72466726D02*
X75816726Y-80166726D01*
X75816726Y-80166726D02*
X76186726Y-80166726D01*
X76186726Y-80166726D02*
X76456726Y-80166726D01*
X68116726Y-67979226D02*
X68116726Y-72466726D01*
X78216726Y-80166726D02*
X78726726Y-80166726D01*
X68616726Y-67979226D02*
X68616726Y-70566726D01*
X68616726Y-70566726D02*
X78216726Y-80166726D01*
X78726726Y-80166726D02*
X78996726Y-80166726D01*
X78996726Y-80166726D02*
X79146726Y-80016726D01*
X64136726Y-42386726D02*
X64136726Y-41816726D01*
X69116726Y-47366726D02*
X64136726Y-42386726D01*
X69116726Y-59654226D02*
X69116726Y-47366726D01*
X67616726Y-74116726D02*
X73646726Y-80146726D01*
X67616726Y-67979226D02*
X67616726Y-74116726D01*
X73646726Y-80146726D02*
X73646726Y-80166726D01*
X69616726Y-45316726D02*
X66676726Y-42376726D01*
X66676726Y-42376726D02*
X66676726Y-41816726D01*
X69616726Y-59654226D02*
X69616726Y-45316726D01*
D49*
X85916726Y-60596726D02*
X89886726Y-64566726D01*
X85616726Y-45426726D02*
X85916726Y-45726726D01*
X85916726Y-45726726D02*
X85916726Y-60596726D01*
D48*
X60566726Y-80116726D02*
X65116726Y-75566726D01*
X65116726Y-75566726D02*
X65116726Y-67979226D01*
X72869846Y-62066726D02*
X73819846Y-61116726D01*
X73819846Y-61116726D02*
X75566726Y-61116726D01*
X75566726Y-61116726D02*
X76366726Y-60316726D01*
X76366726Y-60316726D02*
X76366726Y-59856726D01*
X72029226Y-62066726D02*
X72869846Y-62066726D01*
X60626726Y-67756726D02*
X60626726Y-76366726D01*
X63704226Y-66566726D02*
X61816726Y-66566726D01*
X61816726Y-66566726D02*
X60626726Y-67756726D01*
X73284060Y-63066726D02*
X74134060Y-62216726D01*
X74134060Y-62216726D02*
X84466726Y-62216726D01*
X85266726Y-61416726D02*
X85266726Y-54566726D01*
X72029226Y-63066726D02*
X73284060Y-63066726D01*
X85266726Y-54566726D02*
X81366726Y-50666726D01*
X79866726Y-29216726D02*
X66116726Y-29216726D01*
X81366726Y-50666726D02*
X81366726Y-30716726D01*
X81366726Y-30716726D02*
X79866726Y-29216726D01*
X84466726Y-62216726D02*
X85266726Y-61416726D01*
X71466726Y-57716726D02*
X71466726Y-52116726D01*
X70616726Y-59654226D02*
X70616726Y-58566726D01*
X73886726Y-49696726D02*
X76366726Y-49696726D01*
X71466726Y-52116726D02*
X73886726Y-49696726D01*
X70616726Y-58566726D02*
X71466726Y-57716726D01*
X74030941Y-64566726D02*
X74380941Y-64216726D01*
X81916726Y-64216726D02*
X82266726Y-64566726D01*
X72029226Y-64566726D02*
X74030941Y-64566726D01*
X74380941Y-64216726D02*
X81916726Y-64216726D01*
X62366726Y-63063606D02*
X62363606Y-63066726D01*
X62366726Y-63063606D02*
X62366726Y-63066726D01*
X62363606Y-63066726D02*
X60366726Y-63066726D01*
D49*
X57666726Y-64716726D02*
X59266726Y-63116726D01*
D48*
X63704226Y-62566726D02*
X62863606Y-62566726D01*
D49*
X59266726Y-63116726D02*
X60316726Y-63116726D01*
X56616726Y-64716726D02*
X57666726Y-64716726D01*
D48*
X62863606Y-62566726D02*
X62366726Y-63063606D01*
D49*
X60316726Y-63116726D02*
X60366726Y-63066726D01*
D48*
X72866726Y-55736726D02*
X72866726Y-58744846D01*
X67544846Y-64066726D02*
X63704226Y-64066726D01*
X72866726Y-58744846D02*
X67544846Y-64066726D01*
X76366726Y-52236726D02*
X78116726Y-50486726D01*
X76366726Y-52236726D02*
X72866726Y-55736726D01*
X78116726Y-42616726D02*
X78116726Y-36566726D01*
X78116726Y-50486726D02*
X78116726Y-48316726D01*
X78116726Y-48316726D02*
X75266726Y-45466726D01*
X75266726Y-45466726D02*
X78116726Y-42616726D01*
X62863606Y-62066726D02*
X62363606Y-61566726D01*
X63704226Y-62066726D02*
X62863606Y-62066726D01*
X56766726Y-61566726D02*
X56616726Y-61716726D01*
D49*
X56816726Y-61516726D02*
X60316726Y-61516726D01*
X56616726Y-61716726D02*
X56816726Y-61516726D01*
D48*
X62363606Y-61566726D02*
X60366726Y-61566726D01*
X64616726Y-55416726D02*
X67116726Y-57916726D01*
X67116726Y-57916726D02*
X67116726Y-59654226D01*
X60636726Y-55416726D02*
X64616726Y-55416726D01*
X58616726Y-53396726D02*
X60636726Y-55416726D01*
X58616726Y-53376726D02*
X58616726Y-53396726D01*
X73076954Y-62566726D02*
X72029226Y-62566726D01*
D49*
X83806726Y-61066726D02*
X81266726Y-58526726D01*
D48*
X74026954Y-61616726D02*
X73076954Y-62566726D01*
D49*
X81266726Y-58526726D02*
X81266726Y-58366726D01*
D48*
X83256726Y-61616726D02*
X74026954Y-61616726D01*
X83806726Y-61066726D02*
X83256726Y-61616726D01*
X91426726Y-61066726D02*
X91426726Y-57256726D01*
X91426726Y-57256726D02*
X93366726Y-55316726D01*
X93366726Y-55316726D02*
X99766726Y-55316726D01*
X99766726Y-55316726D02*
X100966726Y-54116726D01*
X100966726Y-54116726D02*
X100966726Y-52566726D01*
D49*
X84346726Y-41086726D02*
X88866726Y-36566726D01*
X84346726Y-45426726D02*
X84346726Y-41086726D01*
X87866726Y-49306726D02*
X87866726Y-44116726D01*
X84346726Y-43736726D02*
X84346726Y-45426726D01*
X87866726Y-44116726D02*
X86566726Y-42816726D01*
X86566726Y-42816726D02*
X85266726Y-42816726D01*
X85266726Y-42816726D02*
X84346726Y-43736726D01*
D48*
X52016726Y-92366726D02*
X55016726Y-92366726D01*
D49*
X62816726Y-50666726D02*
X61666726Y-50666726D01*
D48*
X58491726Y-92366726D02*
X56466726Y-92366726D01*
X55716726Y-92991726D02*
X55716726Y-93891726D01*
X55716726Y-58716726D02*
X55716726Y-58066726D01*
X55716726Y-58066726D02*
X54966726Y-57316726D01*
X58766726Y-92641726D02*
X58491726Y-92366726D01*
D49*
X64816726Y-48266726D02*
X66116726Y-48266726D01*
X98566726Y-89576726D02*
X98566726Y-87976726D01*
D48*
X56466726Y-92866726D02*
X55841726Y-92866726D01*
X55941726Y-94341726D02*
X56166726Y-94341726D01*
D49*
X85466726Y-76616726D02*
X85044226Y-77039226D01*
X97316726Y-58016726D02*
X97316726Y-56266726D01*
X73916726Y-38466726D02*
X73366726Y-39016726D01*
D48*
X66466726Y-61416726D02*
X65616726Y-60566726D01*
X62516726Y-29216726D02*
X61866726Y-29866726D01*
D49*
X64816726Y-50666726D02*
X66066726Y-50666726D01*
X48066726Y-81616726D02*
X49126726Y-80556726D01*
D48*
X55841726Y-92866726D02*
X55716726Y-92991726D01*
D49*
X73916726Y-36566726D02*
X73916726Y-38466726D01*
X50266726Y-83266726D02*
X49666726Y-83266726D01*
X50266726Y-83266726D02*
X51341726Y-83266726D01*
D48*
X56216726Y-92866726D02*
X55716726Y-92366726D01*
D49*
X48066726Y-78416726D02*
X48166726Y-78416726D01*
X61666726Y-50666726D02*
X58616726Y-47616726D01*
X49126726Y-80556726D02*
X49126726Y-80116726D01*
D48*
X55716726Y-94116726D02*
X55941726Y-94341726D01*
D49*
X58616726Y-47616726D02*
X58616726Y-45756726D01*
X89266726Y-76616726D02*
X85466726Y-76616726D01*
X66066726Y-50666726D02*
X66116726Y-50616726D01*
D48*
X58541726Y-93416726D02*
X57991726Y-92866726D01*
D49*
X85044226Y-77039226D02*
X85044226Y-81139226D01*
X49666726Y-83266726D02*
X49066726Y-83866726D01*
D48*
X56466726Y-92866726D02*
X56216726Y-92866726D01*
X62016726Y-28266726D02*
X63316726Y-28266726D01*
X55716726Y-94016726D02*
X55391726Y-94341726D01*
D49*
X84316726Y-81866726D02*
X82516726Y-81866726D01*
X95876726Y-89626726D02*
X95876726Y-87976726D01*
D48*
X57991726Y-92866726D02*
X56466726Y-92866726D01*
X55716726Y-93891726D02*
X55716726Y-94116726D01*
X65616726Y-60566726D02*
X65616726Y-59654226D01*
X63316726Y-29216726D02*
X62516726Y-29216726D01*
X55016726Y-92366726D02*
X55716726Y-92366726D01*
X55716726Y-92366726D02*
X56466726Y-92366726D01*
D49*
X85044226Y-81139226D02*
X84316726Y-81866726D01*
D48*
X55716726Y-93891726D02*
X55716726Y-94016726D01*
X55391726Y-94341726D02*
X55166726Y-94341726D01*
D49*
X35616726Y-46316726D02*
X37016726Y-47716726D01*
X49126726Y-77456726D02*
X49126726Y-76366726D01*
D48*
X51516726Y-91866726D02*
X52016726Y-92366726D01*
X61566726Y-28716726D02*
X62016726Y-28266726D01*
D49*
X64816726Y-49066726D02*
X66116726Y-49066726D01*
X48166726Y-78416726D02*
X49126726Y-77456726D01*
X78366726Y-33566726D02*
X69566726Y-33566726D01*
D48*
X91916726Y-36566726D02*
X98866726Y-36566726D01*
X48841726Y-85016726D02*
X53766726Y-85016726D01*
D49*
X63816726Y-47466726D02*
X63816726Y-46616726D01*
X89266726Y-75616726D02*
X82366726Y-75616726D01*
D48*
X48866726Y-74716726D02*
X48266726Y-74116726D01*
D49*
X65216726Y-35066726D02*
X68066726Y-35066726D01*
X50916726Y-39616726D02*
X50016726Y-40516726D01*
D48*
X50016726Y-90591726D02*
X48966726Y-91641726D01*
X66116726Y-28266726D02*
X83616726Y-28266726D01*
D49*
X87816726Y-25516726D02*
X54366726Y-25516726D01*
D48*
X47166726Y-83341726D02*
X48841726Y-85016726D01*
D49*
X53366726Y-35116726D02*
X50016726Y-38466726D01*
X48266726Y-70066726D02*
X48266726Y-72966726D01*
D48*
X63704226Y-65066726D02*
X60916726Y-65066726D01*
X53266726Y-55516726D02*
X53466726Y-55316726D01*
X49016726Y-59566726D02*
X49016726Y-58816726D01*
X60916726Y-65066726D02*
X51266726Y-74716726D01*
D49*
X96766726Y-52566726D02*
X96766726Y-38666726D01*
D48*
X49016726Y-58816726D02*
X48316726Y-58116726D01*
D49*
X46266726Y-33616726D02*
X46266726Y-48066726D01*
X66666726Y-51466726D02*
X67166726Y-50966726D01*
X60359226Y-40759226D02*
X59216726Y-39616726D01*
X67166726Y-50966726D02*
X67166726Y-47916726D01*
X79816726Y-53566726D02*
X79816726Y-35016726D01*
X60116726Y-86791726D02*
X60041726Y-86716726D01*
D48*
X78566726Y-73906726D02*
X77116726Y-75356726D01*
X76266726Y-69016726D02*
X77866726Y-69016726D01*
D49*
X59216726Y-39616726D02*
X50916726Y-39616726D01*
D48*
X73162740Y-61066726D02*
X74566726Y-59662740D01*
X75566726Y-69716726D02*
X76266726Y-69016726D01*
D49*
X48266726Y-67066726D02*
X48266726Y-70066726D01*
D48*
X48966726Y-91641726D02*
X47566726Y-91641726D01*
X54816726Y-91366726D02*
X54050848Y-91366726D01*
D49*
X54366726Y-25516726D02*
X46266726Y-33616726D01*
D48*
X74566726Y-56576726D02*
X76366726Y-54776726D01*
X54059620Y-55316726D02*
X54216726Y-55473832D01*
X71166726Y-69716726D02*
X75566726Y-69716726D01*
D49*
X50226726Y-45806726D02*
X50216726Y-45816726D01*
X65166726Y-35116726D02*
X65216726Y-35066726D01*
X96766726Y-52566726D02*
X96766726Y-54116726D01*
D48*
X47566726Y-91641726D02*
X46266726Y-90341726D01*
X78566726Y-69716726D02*
X78566726Y-73906726D01*
D49*
X59866726Y-87041726D02*
X60116726Y-86791726D01*
X47066726Y-48866726D02*
X47066726Y-56866726D01*
D48*
X47716726Y-74666726D02*
X45916726Y-74666726D01*
D49*
X48316726Y-58116726D02*
X48316726Y-61116726D01*
D48*
X54216726Y-55473832D02*
X54216726Y-55916726D01*
X54050848Y-91366726D02*
X53066726Y-90382604D01*
X58116726Y-59566726D02*
X53916726Y-59566726D01*
X45066726Y-75516726D02*
X45066726Y-81241726D01*
X77866726Y-69016726D02*
X78566726Y-69716726D01*
D49*
X96766726Y-54116726D02*
X96466726Y-54416726D01*
X50016726Y-38466726D02*
X50016726Y-43956726D01*
X76366726Y-54776726D02*
X78606726Y-54776726D01*
X60041726Y-86716726D02*
X55466726Y-86716726D01*
D48*
X53916726Y-59566726D02*
X53116726Y-59566726D01*
D49*
X62166726Y-35116726D02*
X59166726Y-35116726D01*
D48*
X46266726Y-84241726D02*
X47166726Y-83341726D01*
X50616726Y-88066726D02*
X50016726Y-88666726D01*
D49*
X48316726Y-64116726D02*
X48316726Y-67016726D01*
X83366726Y-74616726D02*
X89266726Y-74616726D01*
D48*
X64866726Y-58316726D02*
X59366726Y-58316726D01*
D49*
X50016726Y-40516726D02*
X50016726Y-42716726D01*
X60359226Y-43159226D02*
X60359226Y-40759226D01*
X46266726Y-48066726D02*
X47066726Y-48866726D01*
X48316726Y-67016726D02*
X48266726Y-67066726D01*
D48*
X51266726Y-74716726D02*
X48866726Y-74716726D01*
X65116726Y-58566726D02*
X64866726Y-58316726D01*
D49*
X96466726Y-54416726D02*
X90376726Y-54416726D01*
D48*
X50016726Y-88666726D02*
X50016726Y-90591726D01*
D49*
X98866726Y-36566726D02*
X87816726Y-25516726D01*
X62166726Y-35116726D02*
X65166726Y-35116726D01*
D48*
X53266726Y-58916726D02*
X53266726Y-55516726D01*
X52516726Y-88066726D02*
X50616726Y-88066726D01*
D49*
X48316726Y-61116726D02*
X48316726Y-64116726D01*
D48*
X53766726Y-85016726D02*
X55466726Y-86716726D01*
X46266726Y-90341726D02*
X46266726Y-84241726D01*
D49*
X47066726Y-56866726D02*
X48316726Y-58116726D01*
X67166726Y-47916726D02*
X66716726Y-47466726D01*
X78606726Y-54776726D02*
X79816726Y-53566726D01*
X51866726Y-45806726D02*
X50226726Y-45806726D01*
D48*
X53116726Y-59566726D02*
X53066726Y-59616726D01*
X48266726Y-72966726D02*
X48266726Y-74116726D01*
D49*
X56266726Y-35116726D02*
X53366726Y-35116726D01*
X55266726Y-45806726D02*
X51866726Y-45806726D01*
X46266726Y-46916726D02*
X46266726Y-48066726D01*
X47416726Y-45766726D02*
X46266726Y-46916726D01*
D48*
X53466726Y-55316726D02*
X54059620Y-55316726D01*
X53066726Y-88616726D02*
X52516726Y-88066726D01*
D49*
X90376726Y-54416726D02*
X87866726Y-56926726D01*
D48*
X45066726Y-81241726D02*
X47166726Y-83341726D01*
X70616726Y-67979226D02*
X70616726Y-69166726D01*
D49*
X63816726Y-46616726D02*
X60359226Y-43159226D01*
D48*
X70616726Y-69166726D02*
X71166726Y-69716726D01*
D49*
X59166726Y-35116726D02*
X56266726Y-35116726D01*
D48*
X59366726Y-58316726D02*
X58116726Y-59566726D01*
D49*
X50016726Y-43956726D02*
X51866726Y-45806726D01*
D48*
X74566726Y-59662740D02*
X74566726Y-56576726D01*
X65116726Y-59654226D02*
X65116726Y-58566726D01*
D49*
X82366726Y-75616726D02*
X83366726Y-74616726D01*
D48*
X83616726Y-28266726D02*
X91916726Y-36566726D01*
X45916726Y-74666726D02*
X45066726Y-75516726D01*
D49*
X96766726Y-38666726D02*
X98866726Y-36566726D01*
D48*
X48266726Y-74116726D02*
X47716726Y-74666726D01*
D49*
X69566726Y-33566726D02*
X68066726Y-35066726D01*
D48*
X72029226Y-61066726D02*
X73162740Y-61066726D01*
D49*
X79816726Y-35016726D02*
X78366726Y-33566726D01*
D48*
X53916726Y-59566726D02*
X53266726Y-58916726D01*
D49*
X66716726Y-47466726D02*
X64816726Y-47466726D01*
D48*
X53066726Y-90382604D02*
X53066726Y-88616726D01*
D49*
X64816726Y-51466726D02*
X66666726Y-51466726D01*
D48*
X73823834Y-64066726D02*
X74623834Y-63266726D01*
X85116726Y-70116726D02*
X85616726Y-70616726D01*
X83766726Y-63266726D02*
X85116726Y-64616726D01*
X72029226Y-64066726D02*
X73823834Y-64066726D01*
X85616726Y-70616726D02*
X88616726Y-70616726D01*
X74623834Y-63266726D02*
X83766726Y-63266726D01*
X88869414Y-70616726D02*
X89266726Y-70616726D01*
X85116726Y-64616726D02*
X85116726Y-70116726D01*
X88066726Y-70616726D02*
X89266726Y-70616726D01*
X87766726Y-63916726D02*
X86616726Y-62766726D01*
X86616726Y-62766726D02*
X74416726Y-62766726D01*
X86341726Y-77616726D02*
X89266726Y-77616726D01*
X87716726Y-67216726D02*
X87766726Y-67166726D01*
X87766726Y-67166726D02*
X87766726Y-63916726D01*
X73616726Y-63566726D02*
X72029226Y-63566726D01*
X74416726Y-62766726D02*
X73616726Y-63566726D01*
X86141726Y-77416726D02*
X86341726Y-77616726D01*
X63704226Y-66066726D02*
X61609619Y-66066726D01*
X56691726Y-93366726D02*
X56466726Y-93366726D01*
X53816726Y-94691726D02*
X54241726Y-95116726D01*
D49*
X59166726Y-95116726D02*
X62916726Y-95116726D01*
D48*
X53816726Y-93941726D02*
X53816726Y-94691726D01*
X58566726Y-69109619D02*
X58566726Y-79743072D01*
D49*
X63341726Y-84291726D02*
X62866726Y-84291726D01*
X66116726Y-87066726D02*
X63341726Y-84291726D01*
D48*
X59166726Y-95116726D02*
X56966726Y-95116726D01*
X58566726Y-79743072D02*
X58566726Y-79991726D01*
X57566726Y-94241726D02*
X56691726Y-93366726D01*
D49*
X66116726Y-91916726D02*
X66116726Y-87066726D01*
X56616726Y-83266726D02*
X58891726Y-85541726D01*
X58891726Y-85541726D02*
X61616726Y-85541726D01*
X55491726Y-83266726D02*
X56616726Y-83266726D01*
D48*
X54391726Y-93366726D02*
X53816726Y-93941726D01*
D49*
X62916726Y-95116726D02*
X66116726Y-91916726D01*
D48*
X58566726Y-79991726D02*
X62866726Y-84291726D01*
X54816726Y-93366726D02*
X54391726Y-93366726D01*
X54241726Y-95116726D02*
X56966726Y-95116726D01*
X57566726Y-94716726D02*
X57566726Y-94241726D01*
X61609619Y-66066726D02*
X58566726Y-69109619D01*
X57166726Y-95116726D02*
X57566726Y-94716726D01*
X56966726Y-95116726D02*
X57166726Y-95116726D01*
D49*
X61616726Y-85541726D02*
X62866726Y-84291726D01*
D48*
X74238047Y-65066726D02*
X74588047Y-64716726D01*
X82766726Y-67456676D02*
X82766726Y-70316726D01*
X85066726Y-72616726D02*
X88616726Y-72616726D01*
X82766726Y-70316726D02*
X85066726Y-72616726D01*
X74588047Y-64716726D02*
X80026776Y-64716726D01*
X72029226Y-65066726D02*
X74238047Y-65066726D01*
X80026776Y-64716726D02*
X82766726Y-67456676D01*
X45691726Y-50841726D02*
X45516726Y-51016726D01*
X45516726Y-73816726D02*
X45466726Y-73866726D01*
X46516726Y-76016726D02*
X47316726Y-75216726D01*
X56816726Y-42116726D02*
X56516726Y-41816726D01*
X45516726Y-51016726D02*
X45516726Y-73816726D01*
X50166726Y-49716726D02*
X55066726Y-49716726D01*
X56816726Y-47966726D02*
X56816726Y-42116726D01*
X51752513Y-75216726D02*
X61402513Y-65566726D01*
X61402513Y-65566726D02*
X63704226Y-65566726D01*
X47316726Y-75216726D02*
X51752513Y-75216726D01*
X55066726Y-49716726D02*
X56816726Y-47966726D01*
D49*
X61736726Y-98266726D02*
X63286726Y-96716726D01*
X63286726Y-96716726D02*
X74886726Y-96716726D01*
D48*
X74695154Y-65316726D02*
X74445154Y-65566726D01*
X80116726Y-65966726D02*
X79466726Y-65316726D01*
X79466726Y-65316726D02*
X74695154Y-65316726D01*
X74445154Y-65566726D02*
X72029226Y-65566726D01*
X99666726Y-66666726D02*
X99666726Y-67416726D01*
X92616726Y-67366726D02*
X92616726Y-64216726D01*
X92666726Y-67416726D02*
X92616726Y-67366726D01*
X94106726Y-62726726D02*
X94106726Y-61016726D01*
X92616726Y-64216726D02*
X94106726Y-62726726D01*
X86016726Y-71716726D02*
X86116726Y-71616726D01*
X86116726Y-71616726D02*
X88616726Y-71616726D01*
D50*
X87916726Y-71616726D02*
X89266726Y-71616726D01*
D48*
X101726726Y-61016726D02*
X101726726Y-59476726D01*
X101726726Y-59476726D02*
X100266726Y-58016726D01*
X100266726Y-58016726D02*
X98816726Y-58016726D01*
X101516726Y-92736726D02*
X99856726Y-91076726D01*
X99856726Y-91076726D02*
X98566726Y-91076726D01*
X93026726Y-92336726D02*
X94236726Y-91126726D01*
X94236726Y-91126726D02*
X95876726Y-91126726D01*
D49*
X88566726Y-87066726D02*
X88716726Y-87066726D01*
X78916726Y-96716726D02*
X88566726Y-87066726D01*
X78886726Y-96716726D02*
X78916726Y-96716726D01*
D48*
X61966726Y-48266726D02*
X62816726Y-48266726D01*
X65816726Y-53566726D02*
X65766726Y-53566726D01*
X61316726Y-48916726D02*
X61966726Y-48266726D01*
X68116726Y-59654226D02*
X68116726Y-55866726D01*
X68116726Y-55866726D02*
X65816726Y-53566726D01*
X65916726Y-45316726D02*
X68616726Y-48016726D01*
X64816726Y-45316726D02*
X64766726Y-45266726D01*
X61516726Y-46116726D02*
X61516726Y-47266726D01*
X61516726Y-47266726D02*
X61716726Y-47466726D01*
X61716726Y-47466726D02*
X62816726Y-47466726D01*
X65916726Y-45316726D02*
X64816726Y-45316726D01*
X68616726Y-48016726D02*
X68616726Y-59654226D01*
G04 #@! TA.AperFunction,Conductor*
G36*
X58967402Y-92161411D02*
G01*
X59003537Y-92196943D01*
X59478233Y-92908986D01*
X59499041Y-92975685D01*
X59487646Y-93029732D01*
X59410506Y-93196869D01*
X59102902Y-93863346D01*
X59099974Y-93869689D01*
X59054008Y-93922309D01*
X58987387Y-93941726D01*
X58210989Y-93941726D01*
X58143950Y-93922041D01*
X58132468Y-93913697D01*
X58078680Y-93869689D01*
X57066726Y-93041726D01*
X57055191Y-93041726D01*
X56988152Y-93022041D01*
X56972544Y-93009464D01*
X56968343Y-93006240D01*
X56968340Y-93006237D01*
X56944177Y-92992286D01*
X56937911Y-92988340D01*
X56933224Y-92985962D01*
X56865616Y-92946928D01*
X56865617Y-92946928D01*
X56855215Y-92944141D01*
X56841399Y-92940439D01*
X56841396Y-92940438D01*
X56803204Y-92930204D01*
X56751035Y-92916226D01*
X56407417Y-92916226D01*
X56407415Y-92916226D01*
X56329880Y-92937001D01*
X56297789Y-92941226D01*
X56121868Y-92941226D01*
X56121844Y-92941228D01*
X56096737Y-92944140D01*
X56096734Y-92944141D01*
X55993961Y-92989519D01*
X55914520Y-93068960D01*
X55869141Y-93171732D01*
X55869141Y-93171734D01*
X55866226Y-93196857D01*
X55866226Y-93536582D01*
X55866228Y-93536608D01*
X55869139Y-93561713D01*
X55869141Y-93561717D01*
X55914519Y-93664490D01*
X55930407Y-93680378D01*
X55959111Y-93732945D01*
X55966726Y-93741725D01*
X55966726Y-93741726D01*
X55982686Y-93744006D01*
X56015230Y-93753323D01*
X56096735Y-93789311D01*
X56121861Y-93792226D01*
X56297787Y-93792225D01*
X56329882Y-93796450D01*
X56407417Y-93817226D01*
X56453761Y-93817226D01*
X56520800Y-93836911D01*
X56541442Y-93853545D01*
X56861584Y-94173687D01*
X56880232Y-94197571D01*
X56923828Y-94270231D01*
X56941440Y-94337844D01*
X56919702Y-94404246D01*
X56916699Y-94408428D01*
X56760551Y-94616626D01*
X56704580Y-94658447D01*
X56661351Y-94666226D01*
X54505612Y-94666226D01*
X54438573Y-94646541D01*
X54394703Y-94597680D01*
X54291628Y-94391530D01*
X54279253Y-94322765D01*
X54287404Y-94290029D01*
X54399206Y-94010525D01*
X54426651Y-93968904D01*
X54532212Y-93863343D01*
X54593531Y-93829861D01*
X54607527Y-93827645D01*
X54699042Y-93818494D01*
X54705577Y-93817841D01*
X54717914Y-93817226D01*
X54876033Y-93817226D01*
X54876035Y-93817226D01*
X54953570Y-93796449D01*
X54985664Y-93792225D01*
X55311582Y-93792225D01*
X55311590Y-93792225D01*
X55311605Y-93792223D01*
X55311608Y-93792223D01*
X55336712Y-93789312D01*
X55336713Y-93789311D01*
X55336717Y-93789311D01*
X55419900Y-93752581D01*
X55457636Y-93742634D01*
X55466726Y-93741726D01*
X55466726Y-93741725D01*
X55478172Y-93729078D01*
X55486411Y-93701020D01*
X55503045Y-93680378D01*
X55518932Y-93664491D01*
X55564311Y-93561717D01*
X55567226Y-93536591D01*
X55567225Y-93196862D01*
X55567223Y-93196843D01*
X55564312Y-93171739D01*
X55564311Y-93171737D01*
X55564311Y-93171735D01*
X55562137Y-93166812D01*
X55553065Y-93097538D01*
X55562138Y-93066637D01*
X55564311Y-93061717D01*
X55567226Y-93036591D01*
X55567225Y-92696862D01*
X55567223Y-92696843D01*
X55564312Y-92671738D01*
X55564311Y-92671736D01*
X55564311Y-92671735D01*
X55518932Y-92568961D01*
X55503045Y-92553074D01*
X55469560Y-92491751D01*
X55466726Y-92465393D01*
X55466726Y-92370752D01*
X55486411Y-92303713D01*
X55539215Y-92257958D01*
X55608373Y-92248014D01*
X55652727Y-92263366D01*
X55692834Y-92286522D01*
X55692835Y-92286523D01*
X55692837Y-92286523D01*
X55692840Y-92286525D01*
X55807417Y-92317226D01*
X55807420Y-92317226D01*
X56526033Y-92317226D01*
X56526035Y-92317226D01*
X56603570Y-92296449D01*
X56635664Y-92292225D01*
X56811582Y-92292225D01*
X56811590Y-92292225D01*
X56811605Y-92292223D01*
X56811608Y-92292223D01*
X56836713Y-92289312D01*
X56836714Y-92289311D01*
X56836717Y-92289311D01*
X56939491Y-92243932D01*
X57005379Y-92178044D01*
X57066703Y-92144560D01*
X57093060Y-92141726D01*
X58900363Y-92141726D01*
X58967402Y-92161411D01*
G37*
G04 #@! TD.AperFunction*
G04 #@! TA.AperFunction,Conductor*
G36*
X37877013Y-27836411D02*
G01*
X37903820Y-27859677D01*
X38786572Y-28881811D01*
X38815493Y-28945413D01*
X38816726Y-28962859D01*
X38816726Y-48215364D01*
X38797041Y-48282403D01*
X38780407Y-48303045D01*
X38153045Y-48930407D01*
X38091722Y-48963892D01*
X38065364Y-48966726D01*
X33268088Y-48966726D01*
X33201049Y-48947041D01*
X33180407Y-48930407D01*
X32553045Y-48303045D01*
X32519560Y-48241722D01*
X32516726Y-48215364D01*
X32516726Y-28959051D01*
X32536411Y-28892012D01*
X32542591Y-28883253D01*
X33329497Y-27864904D01*
X33386062Y-27823895D01*
X33427614Y-27816726D01*
X37809974Y-27816726D01*
X37877013Y-27836411D01*
G37*
G04 #@! TD.AperFunction*
G04 #@! TA.AperFunction,Conductor*
G36*
X97682403Y-72486411D02*
G01*
X97703045Y-72503045D01*
X97880407Y-72680407D01*
X97913892Y-72741730D01*
X97916726Y-72768088D01*
X97916726Y-75465364D01*
X97897041Y-75532403D01*
X97880407Y-75553045D01*
X97703045Y-75730407D01*
X97641722Y-75763892D01*
X97615364Y-75766726D01*
X94910223Y-75766726D01*
X94843184Y-75747041D01*
X94832761Y-75739554D01*
X94663264Y-75603956D01*
X94623212Y-75546705D01*
X94616726Y-75507128D01*
X94616726Y-72686933D01*
X94636411Y-72619894D01*
X94676929Y-72580604D01*
X94833918Y-72486411D01*
X94837274Y-72484396D01*
X94901071Y-72466726D01*
X97615364Y-72466726D01*
X97682403Y-72486411D01*
G37*
G04 #@! TD.AperFunction*
G04 #@! TA.AperFunction,Conductor*
G36*
X56909765Y-56436411D02*
G01*
X56955520Y-56489215D01*
X56966726Y-56540726D01*
X56966726Y-58992226D01*
X56947041Y-59059265D01*
X56894237Y-59105020D01*
X56842726Y-59116226D01*
X55791226Y-59116226D01*
X55724187Y-59096541D01*
X55678432Y-59043737D01*
X55667226Y-58992226D01*
X55667225Y-58371869D01*
X55667225Y-58371862D01*
X55667223Y-58371843D01*
X55664312Y-58346738D01*
X55664311Y-58346736D01*
X55664311Y-58346735D01*
X55618932Y-58243961D01*
X55539491Y-58164520D01*
X55436718Y-58119141D01*
X55411591Y-58116226D01*
X55021869Y-58116226D01*
X55021843Y-58116228D01*
X54987468Y-58120215D01*
X54987263Y-58118453D01*
X54946185Y-58118451D01*
X54945981Y-58120216D01*
X54936717Y-58119141D01*
X54911591Y-58116226D01*
X54521869Y-58116226D01*
X54521843Y-58116228D01*
X54487468Y-58120215D01*
X54487263Y-58118453D01*
X54446185Y-58118451D01*
X54445981Y-58120216D01*
X54436717Y-58119141D01*
X54430770Y-58118451D01*
X54411594Y-58116226D01*
X54090726Y-58116226D01*
X54023687Y-58096541D01*
X53977932Y-58043737D01*
X53966726Y-57992226D01*
X53966726Y-56641225D01*
X53986411Y-56574186D01*
X54039215Y-56528431D01*
X54090722Y-56517225D01*
X54411590Y-56517225D01*
X54411605Y-56517223D01*
X54411608Y-56517223D01*
X54445984Y-56513237D01*
X54446189Y-56515007D01*
X54487266Y-56515007D01*
X54487471Y-56513236D01*
X54496733Y-56514310D01*
X54496735Y-56514311D01*
X54521861Y-56517226D01*
X54911590Y-56517225D01*
X54911605Y-56517223D01*
X54911608Y-56517223D01*
X54945984Y-56513237D01*
X54946189Y-56515007D01*
X54987266Y-56515007D01*
X54987471Y-56513236D01*
X54996733Y-56514310D01*
X54996735Y-56514311D01*
X55021861Y-56517226D01*
X55411590Y-56517225D01*
X55411605Y-56517223D01*
X55411608Y-56517223D01*
X55445984Y-56513237D01*
X55446189Y-56515007D01*
X55487266Y-56515007D01*
X55487471Y-56513236D01*
X55496733Y-56514310D01*
X55496735Y-56514311D01*
X55521861Y-56517226D01*
X55911590Y-56517225D01*
X55911605Y-56517223D01*
X55911608Y-56517223D01*
X55936713Y-56514312D01*
X55936714Y-56514311D01*
X55936717Y-56514311D01*
X56039491Y-56468932D01*
X56055378Y-56453045D01*
X56116701Y-56419560D01*
X56143059Y-56416726D01*
X56842726Y-56416726D01*
X56909765Y-56436411D01*
G37*
G04 #@! TD.AperFunction*
G04 #@! TA.AperFunction,Conductor*
G36*
X38809765Y-78736411D02*
G01*
X38855520Y-78789215D01*
X38866726Y-78840726D01*
X38866726Y-99516726D01*
X39866726Y-100316726D01*
X80266726Y-100216726D01*
X80866726Y-99416726D01*
X80866726Y-96396839D01*
X80880537Y-96339967D01*
X80930765Y-96242651D01*
X81632840Y-94882379D01*
X81681078Y-94831837D01*
X81740594Y-94815277D01*
X84136053Y-94768307D01*
X84203463Y-94786673D01*
X84250244Y-94838570D01*
X84250848Y-94839845D01*
X84905491Y-96242651D01*
X84917111Y-96293292D01*
X84966694Y-99714539D01*
X84966680Y-99718919D01*
X84919256Y-101995309D01*
X84898179Y-102061924D01*
X84844434Y-102106569D01*
X84795283Y-102116726D01*
X34971951Y-102116726D01*
X34904912Y-102097041D01*
X34879783Y-102075678D01*
X32698558Y-99652094D01*
X32668342Y-99589095D01*
X32666726Y-99569142D01*
X32666726Y-78840726D01*
X32686411Y-78773687D01*
X32739215Y-78727932D01*
X32790726Y-78716726D01*
X38742726Y-78716726D01*
X38809765Y-78736411D01*
G37*
G04 #@! TD.AperFunction*
G04 #@! TA.AperFunction,Conductor*
G36*
X65282745Y-46521094D02*
G01*
X65683557Y-46630407D01*
X65725353Y-46641806D01*
X65784850Y-46678436D01*
X65815099Y-46741419D01*
X65816726Y-46761437D01*
X65816726Y-47592226D01*
X65797041Y-47659265D01*
X65744237Y-47705020D01*
X65692726Y-47716226D01*
X65382230Y-47716226D01*
X65341275Y-47709267D01*
X65226427Y-47669080D01*
X65226425Y-47669079D01*
X65195996Y-47666226D01*
X65195992Y-47666226D01*
X64437460Y-47666226D01*
X64437456Y-47666226D01*
X64407026Y-47669079D01*
X64407024Y-47669079D01*
X64278845Y-47713932D01*
X64278843Y-47713933D01*
X64260538Y-47727443D01*
X64169576Y-47794576D01*
X64088933Y-47903844D01*
X64078491Y-47933682D01*
X64037772Y-47990456D01*
X63972820Y-48016204D01*
X63961452Y-48016726D01*
X63672001Y-48016726D01*
X63604962Y-47997041D01*
X63559207Y-47944237D01*
X63554961Y-47933685D01*
X63553330Y-47929025D01*
X63545861Y-47907681D01*
X63542297Y-47837907D01*
X63545855Y-47825787D01*
X63589372Y-47701425D01*
X63592226Y-47670992D01*
X63592226Y-47262460D01*
X63589372Y-47232027D01*
X63589372Y-47232026D01*
X63589372Y-47232024D01*
X63544519Y-47103845D01*
X63544518Y-47103843D01*
X63534385Y-47090113D01*
X63463876Y-46994576D01*
X63463874Y-46994575D01*
X63463874Y-46994574D01*
X63457306Y-46988006D01*
X63459008Y-46986303D01*
X63424840Y-46941298D01*
X63416726Y-46897180D01*
X63416726Y-46718088D01*
X63436411Y-46651049D01*
X63453045Y-46630407D01*
X63530407Y-46553045D01*
X63591730Y-46519560D01*
X63618088Y-46516726D01*
X65250119Y-46516726D01*
X65282745Y-46521094D01*
G37*
G04 #@! TD.AperFunction*
G04 #@! TA.AperFunction,Conductor*
G36*
X49019668Y-56936411D02*
G01*
X49065423Y-56989215D01*
X49076201Y-57030428D01*
X49166265Y-58111202D01*
X49166691Y-58122268D01*
X49066726Y-74266786D01*
X49066726Y-74642226D01*
X49047041Y-74709265D01*
X48994237Y-74755020D01*
X48942726Y-74766226D01*
X47438417Y-74766226D01*
X47371378Y-74746541D01*
X47325623Y-74693737D01*
X47318120Y-74672304D01*
X47220473Y-74281715D01*
X47216773Y-74251270D01*
X47266687Y-58129314D01*
X47269292Y-58104409D01*
X47496161Y-57015436D01*
X47529105Y-56953820D01*
X47590131Y-56919797D01*
X47617555Y-56916726D01*
X48952629Y-56916726D01*
X49019668Y-56936411D01*
G37*
G04 #@! TD.AperFunction*
M02*
