M48
; DRILL file {KiCad 8.0.8} date 2025-04-14T10:59:11+0100
; FORMAT={-:-/ absolute / metric / decimal}
; #@! TF.CreationDate,2025-04-14T10:59:11+01:00
; #@! TF.GenerationSoftware,Kicad,Pcbnew,8.0.8
; #@! TF.FileFunction,Plated,1,2,PTH
FMAT,2
METRIC
; #@! TA.AperFunction,Plated,PTH,ViaDrill
T1C0.300
; #@! TA.AperFunction,Plated,PTH,ComponentDrill
T2C0.400
; #@! TA.AperFunction,Plated,PTH,ComponentDrill
T3C0.750
; #@! TA.AperFunction,Plated,PTH,ComponentDrill
T4C0.800
; #@! TA.AperFunction,Plated,PTH,ComponentDrill
T5C1.000
; #@! TA.AperFunction,Plated,PTH,ComponentDrill
T6C1.020
; #@! TA.AperFunction,Plated,PTH,ComponentDrill
T7C1.050
; #@! TA.AperFunction,Plated,PTH,ComponentDrill
T8C1.150
; #@! TA.AperFunction,Plated,PTH,ComponentDrill
T9C1.500
; #@! TA.AperFunction,Plated,PTH,ComponentDrill
T10C1.950
; #@! TA.AperFunction,Plated,PTH,ComponentDrill
T11C2.200
%
G90
G05
T1
X33.517Y-33.367
X33.517Y-35.367
X33.517Y-38.267
X33.517Y-40.767
X33.517Y-43.267
X35.567Y-33.367
X35.567Y-35.367
X35.567Y-38.267
X35.567Y-40.767
X35.567Y-43.267
X37.817Y-33.367
X37.817Y-35.367
X37.817Y-38.267
X37.817Y-40.767
X37.817Y-43.267
X45.467Y-73.867
X45.692Y-50.842
X46.517Y-76.017
X47.417Y-45.767
X48.067Y-78.417
X48.067Y-81.617
X49.017Y-59.567
X49.067Y-83.867
X49.717Y-53.417
X50.167Y-49.717
X50.217Y-45.817
X51.517Y-91.867
X53.067Y-59.617
X55.167Y-94.342
X56.167Y-94.342
X56.517Y-56.867
X56.517Y-57.717
X56.517Y-58.617
X56.967Y-55.117
X57.267Y-50.317
X58.542Y-93.417
X58.767Y-92.642
X59.417Y-50.317
X61.317Y-48.917
X61.517Y-46.117
X61.567Y-28.717
X61.867Y-29.867
X64.767Y-45.267
X65.767Y-53.567
X66.117Y-48.267
X66.117Y-49.067
X66.117Y-50.617
X66.467Y-61.417
X67.633Y-65.9
X69.417Y-63.333
X70.267Y-66.217
X73.367Y-39.017
X80.117Y-65.967
X82.367Y-75.617
X82.517Y-81.867
X86.017Y-71.717
X86.142Y-77.417
X87.717Y-67.217
X91.617Y-69.05
X91.617Y-69.917
X91.617Y-70.867
X91.617Y-72.417
X91.617Y-73.317
X91.617Y-74.367
X91.617Y-75.567
X91.617Y-77.317
X91.617Y-78.617
X93.317Y-69.05
X93.317Y-69.917
X93.317Y-70.867
X93.317Y-73.317
X93.317Y-74.367
X93.317Y-75.567
X93.317Y-76.467
X93.317Y-77.317
X93.7Y-64.7
X95.3Y-73.1
X95.3Y-74.1
X95.3Y-75.1
X95.317Y-69.05
X95.317Y-69.917
X95.317Y-70.917
X95.317Y-71.867
X95.317Y-76.467
X95.317Y-77.517
X95.317Y-78.617
X95.877Y-87.977
X96.15Y-64.4
X96.3Y-73.1
X96.3Y-74.1
X96.3Y-75.1
X97.3Y-73.1
X97.3Y-74.1
X97.3Y-75.1
X97.317Y-56.267
X97.367Y-69.1
X97.367Y-69.967
X97.367Y-70.967
X97.367Y-71.917
X97.367Y-76.517
X97.367Y-77.517
X97.367Y-78.667
X97.667Y-63.017
X97.7Y-82.9
X98.567Y-87.977
X99.117Y-64.367
X99.167Y-69.1
X99.167Y-69.967
X99.167Y-70.917
X99.167Y-71.867
X99.167Y-73.117
X99.167Y-74.267
X99.167Y-75.4
X99.167Y-76.517
X99.167Y-78.667
X100.967Y-69.1
X100.967Y-69.967
X100.967Y-70.917
X100.967Y-75.717
X100.967Y-76.517
X100.967Y-77.55
X100.967Y-78.667
X101.35Y-64.4
X102.467Y-69.1
X102.467Y-69.967
X102.467Y-70.917
X102.467Y-75.717
X102.467Y-76.517
X102.467Y-77.55
X102.467Y-78.667
T2
X22.967Y-28.117
X22.967Y-99.067
X23.45Y-26.95
X23.45Y-29.283
X23.45Y-97.9
X23.45Y-100.233
X24.617Y-26.467
X24.617Y-29.767
X24.617Y-97.417
X24.617Y-100.717
X25.783Y-26.95
X25.783Y-29.283
X25.783Y-97.9
X25.783Y-100.233
X26.267Y-28.117
X26.267Y-99.067
X98.35Y-99.2
X98.833Y-98.033
X98.833Y-100.367
X98.917Y-27.767
X99.4Y-26.6
X99.4Y-28.933
X100.0Y-97.55
X100.0Y-100.85
X100.567Y-26.117
X100.567Y-29.417
X101.167Y-98.033
X101.167Y-100.367
X101.65Y-99.2
X101.733Y-26.6
X101.733Y-28.933
X102.217Y-27.767
T3
X83.077Y-45.427
X84.347Y-45.427
X85.617Y-45.427
T4
X47.847Y-86.717
X48.217Y-89.497
X48.217Y-97.117
X48.267Y-67.067
X48.267Y-70.067
X48.267Y-72.967
X48.317Y-58.117
X48.317Y-61.117
X48.317Y-64.117
X50.767Y-67.067
X50.767Y-70.067
X50.767Y-72.967
X50.817Y-58.117
X50.817Y-61.117
X50.817Y-64.117
X51.467Y-89.497
X51.467Y-97.117
X51.867Y-45.807
X51.867Y-53.427
X52.947Y-80.117
X53.007Y-76.367
X53.367Y-35.117
X53.367Y-37.617
X54.117Y-61.717
X54.117Y-64.717
X55.267Y-45.807
X55.267Y-53.427
X55.467Y-86.717
X56.267Y-35.117
X56.267Y-37.617
X56.617Y-61.717
X56.617Y-64.717
X58.617Y-45.757
X58.617Y-53.377
X59.167Y-35.117
X59.167Y-37.617
X60.117Y-84.292
X60.117Y-86.792
X60.567Y-80.117
X60.627Y-76.367
X61.917Y-90.607
X61.917Y-98.227
X62.167Y-35.117
X62.167Y-37.617
X62.867Y-84.292
X62.867Y-86.792
X65.217Y-35.067
X65.217Y-37.567
X68.067Y-35.067
X68.067Y-37.567
X72.767Y-45.467
X75.267Y-45.467
X81.267Y-55.867
X81.267Y-58.367
X82.267Y-64.567
X83.807Y-61.067
X87.867Y-49.307
X87.867Y-56.927
X89.887Y-64.567
X91.427Y-61.067
X93.027Y-84.717
X93.027Y-92.337
X94.107Y-61.017
X101.517Y-85.117
X101.517Y-92.737
X101.727Y-61.017
T5
X76.367Y-49.697
X76.367Y-52.237
X76.367Y-54.777
X76.367Y-57.317
X76.367Y-59.857
T6
X88.867Y-36.567
X98.867Y-36.567
T7
X51.437Y-41.817
X53.977Y-41.817
X56.517Y-41.817
X59.057Y-41.817
X61.597Y-41.817
X63.487Y-80.167
X64.137Y-41.817
X66.027Y-80.167
X66.677Y-41.817
X68.567Y-80.167
X69.217Y-41.817
X71.107Y-80.167
X71.757Y-41.817
X73.647Y-80.167
X74.297Y-41.817
X76.187Y-80.167
X78.727Y-80.167
X81.267Y-80.167
X83.807Y-80.167
X86.347Y-80.167
T8
X77.117Y-67.737
X77.117Y-70.277
X77.117Y-72.817
X77.117Y-75.357
T9
X66.117Y-87.067
X88.717Y-87.067
T10
X74.887Y-96.717
X78.887Y-96.717
X82.887Y-96.717
T11
X24.617Y-28.117
X24.617Y-99.067
X100.0Y-99.2
X100.567Y-27.767
M30
