G04 #@! TF.GenerationSoftware,KiCad,Pcbnew,8.0.8*
G04 #@! TF.CreationDate,2025-04-14T10:59:08+01:00*
G04 #@! TF.ProjectId,Bat-mon_v1,4261742d-6d6f-46e5-9f76-312e6b696361,rev?*
G04 #@! TF.SameCoordinates,Original*
G04 #@! TF.FileFunction,Soldermask,Top*
G04 #@! TF.FilePolarity,Negative*
%FSLAX46Y46*%
G04 Gerber Fmt 4.6, Leading zero omitted, Abs format (unit mm)*
G04 Created by KiCad (PCBNEW 8.0.8) date 2025-04-14 10:59:08*
%MOMM*%
%LPD*%
G01*
G04 APERTURE LIST*
G04 Aperture macros list*
%AMRoundRect*
0 Rectangle with rounded corners*
0 $1 Rounding radius*
0 $2 $3 $4 $5 $6 $7 $8 $9 X,Y pos of 4 corners*
0 Add a 4 corners polygon primitive as box body*
4,1,4,$2,$3,$4,$5,$6,$7,$8,$9,$2,$3,0*
0 Add four circle primitives for the rounded corners*
1,1,$1+$1,$2,$3*
1,1,$1+$1,$4,$5*
1,1,$1+$1,$6,$7*
1,1,$1+$1,$8,$9*
0 Add four rect primitives between the rounded corners*
20,1,$1+$1,$2,$3,$4,$5,0*
20,1,$1+$1,$4,$5,$6,$7,0*
20,1,$1+$1,$6,$7,$8,$9,0*
20,1,$1+$1,$8,$9,$2,$3,0*%
G04 Aperture macros list end*
%ADD10RoundRect,0.200000X-0.200000X-0.200000X0.200000X-0.200000X0.200000X0.200000X-0.200000X0.200000X0*%
%ADD11RoundRect,0.175000X-0.175000X1.125000X-0.175000X-1.125000X0.175000X-1.125000X0.175000X1.125000X0*%
%ADD12RoundRect,0.175000X-1.125000X-0.175000X1.125000X-0.175000X1.125000X0.175000X-1.125000X0.175000X0*%
%ADD13C,0.700000*%
%ADD14C,4.400000*%
%ADD15C,1.600000*%
%ADD16O,1.600000X1.600000*%
%ADD17R,0.950000X0.950000*%
%ADD18RoundRect,0.075000X-0.662500X-0.075000X0.662500X-0.075000X0.662500X0.075000X-0.662500X0.075000X0*%
%ADD19RoundRect,0.075000X-0.075000X-0.662500X0.075000X-0.662500X0.075000X0.662500X-0.075000X0.662500X0*%
%ADD20R,1.050000X1.500000*%
%ADD21O,1.050000X1.500000*%
%ADD22RoundRect,0.100000X-0.200000X-0.100000X0.200000X-0.100000X0.200000X0.100000X-0.200000X0.100000X0*%
%ADD23R,1.500000X2.400000*%
%ADD24R,0.300000X0.600000*%
%ADD25R,1.600000X1.600000*%
%ADD26C,1.580000*%
%ADD27RoundRect,0.200000X0.200000X0.800000X-0.200000X0.800000X-0.200000X-0.800000X0.200000X-0.800000X0*%
%ADD28C,2.300000*%
%ADD29R,1.575000X1.575000*%
%ADD30C,1.575000*%
%ADD31RoundRect,0.102000X2.600000X-2.120000X2.600000X2.120000X-2.600000X2.120000X-2.600000X-2.120000X0*%
%ADD32RoundRect,0.102000X1.650000X-2.120000X1.650000X2.120000X-1.650000X2.120000X-1.650000X-2.120000X0*%
%ADD33RoundRect,0.200000X-0.200000X-0.800000X0.200000X-0.800000X0.200000X0.800000X-0.200000X0.800000X0*%
%ADD34R,1.120000X1.720000*%
%ADD35R,1.700000X1.700000*%
%ADD36O,1.700000X1.700000*%
%ADD37R,0.600000X0.250000*%
%ADD38R,0.900000X0.250000*%
%ADD39R,1.300000X0.250000*%
%ADD40R,1.500000X0.800000*%
%ADD41R,2.925000X2.925000*%
%ADD42C,2.925000*%
%ADD43RoundRect,0.102000X-2.600000X2.120000X-2.600000X-2.120000X2.600000X-2.120000X2.600000X2.120000X0*%
%ADD44RoundRect,0.102000X-1.650000X2.120000X-1.650000X-2.120000X1.650000X-2.120000X1.650000X2.120000X0*%
%ADD45RoundRect,0.150000X0.325000X0.150000X-0.325000X0.150000X-0.325000X-0.150000X0.325000X-0.150000X0*%
%ADD46RoundRect,0.150000X0.150000X0.325000X-0.150000X0.325000X-0.150000X-0.325000X0.150000X-0.325000X0*%
%ADD47R,1.725000X1.725000*%
%ADD48C,1.725000*%
G04 APERTURE END LIST*
D10*
X96290000Y-74100000D03*
X97290000Y-74100000D03*
X97290000Y-75100000D03*
X96290000Y-75100000D03*
X95290000Y-75100000D03*
X95290000Y-74100000D03*
X95290000Y-73100000D03*
X96290000Y-73100000D03*
X97290000Y-73100000D03*
D11*
X100700000Y-80800000D03*
X99700000Y-80800000D03*
X98700000Y-80800000D03*
X97700000Y-80800000D03*
X96700000Y-80800000D03*
X95700000Y-80800000D03*
X94700000Y-80800000D03*
X93700000Y-80800000D03*
X92700000Y-80800000D03*
X91700000Y-80800000D03*
D12*
X88700000Y-78600000D03*
X88700000Y-77600000D03*
X88700000Y-76600000D03*
X88700000Y-75600000D03*
X88700000Y-74600000D03*
X88700000Y-73600000D03*
X88700000Y-72600000D03*
X88700000Y-71600000D03*
X88700000Y-70600000D03*
X88700000Y-69600000D03*
D11*
X91700000Y-67100000D03*
X92700000Y-67100000D03*
X93700000Y-67100000D03*
X94700000Y-67100000D03*
X95700000Y-67100000D03*
X96700000Y-67100000D03*
X97700000Y-67100000D03*
X98700000Y-67100000D03*
X99700000Y-67100000D03*
X100700000Y-67100000D03*
D13*
X98350000Y-99200000D03*
X98833274Y-98033274D03*
X98833274Y-100366726D03*
X100000000Y-97550000D03*
D14*
X100000000Y-99200000D03*
D13*
X100000000Y-100850000D03*
X101166726Y-98033274D03*
X101166726Y-100366726D03*
X101650000Y-99200000D03*
D15*
X93026726Y-92336726D03*
D16*
X93026726Y-84716726D03*
D15*
X62866726Y-86791726D03*
X62866726Y-84291726D03*
D13*
X22966726Y-99066726D03*
X23450000Y-97900000D03*
X23450000Y-100233452D03*
X24616726Y-97416726D03*
D14*
X24616726Y-99066726D03*
D13*
X24616726Y-100716726D03*
X25783452Y-97900000D03*
X25783452Y-100233452D03*
X26266726Y-99066726D03*
D17*
X49126726Y-76366726D03*
X50626726Y-76366726D03*
D18*
X63704226Y-61066726D03*
X63704226Y-61566726D03*
X63704226Y-62066726D03*
X63704226Y-62566726D03*
X63704226Y-63066726D03*
X63704226Y-63566726D03*
X63704226Y-64066726D03*
X63704226Y-64566726D03*
X63704226Y-65066726D03*
X63704226Y-65566726D03*
X63704226Y-66066726D03*
X63704226Y-66566726D03*
D19*
X65116726Y-67979226D03*
X65616726Y-67979226D03*
X66116726Y-67979226D03*
X66616726Y-67979226D03*
X67116726Y-67979226D03*
X67616726Y-67979226D03*
X68116726Y-67979226D03*
X68616726Y-67979226D03*
X69116726Y-67979226D03*
X69616726Y-67979226D03*
X70116726Y-67979226D03*
X70616726Y-67979226D03*
D18*
X72029226Y-66566726D03*
X72029226Y-66066726D03*
X72029226Y-65566726D03*
X72029226Y-65066726D03*
X72029226Y-64566726D03*
X72029226Y-64066726D03*
X72029226Y-63566726D03*
X72029226Y-63066726D03*
X72029226Y-62566726D03*
X72029226Y-62066726D03*
X72029226Y-61566726D03*
X72029226Y-61066726D03*
D19*
X70616726Y-59654226D03*
X70116726Y-59654226D03*
X69616726Y-59654226D03*
X69116726Y-59654226D03*
X68616726Y-59654226D03*
X68116726Y-59654226D03*
X67616726Y-59654226D03*
X67116726Y-59654226D03*
X66616726Y-59654226D03*
X66116726Y-59654226D03*
X65616726Y-59654226D03*
X65116726Y-59654226D03*
D20*
X83076726Y-45426726D03*
D21*
X84346726Y-45426726D03*
X85616726Y-45426726D03*
D15*
X53006726Y-76366726D03*
D16*
X60626726Y-76366726D03*
D17*
X95876726Y-89626726D03*
X95876726Y-91126726D03*
D15*
X68066726Y-37566726D03*
X68066726Y-35066726D03*
X50816726Y-58116726D03*
X48316726Y-58116726D03*
X53366726Y-37616726D03*
X53366726Y-35116726D03*
X55466726Y-86716726D03*
D16*
X47846726Y-86716726D03*
D17*
X98566726Y-89576726D03*
X98566726Y-91076726D03*
D22*
X63316726Y-27316726D03*
X63316726Y-28266726D03*
X63316726Y-29216726D03*
X66116726Y-29216726D03*
X66116726Y-28266726D03*
X66116726Y-27316726D03*
D23*
X64716726Y-28266726D03*
D24*
X54216726Y-58716726D03*
X54716726Y-58716726D03*
X55216726Y-58716726D03*
X55716726Y-58716726D03*
X55716726Y-55916726D03*
X55216726Y-55916726D03*
X54716726Y-55916726D03*
X54216726Y-55916726D03*
D25*
X54966726Y-57316726D03*
D15*
X56616726Y-64716726D03*
X54116726Y-64716726D03*
X50816726Y-64116726D03*
X48316726Y-64116726D03*
X50816726Y-61116726D03*
X48316726Y-61116726D03*
X87866726Y-56926726D03*
D16*
X87866726Y-49306726D03*
D15*
X50766726Y-70066726D03*
X48266726Y-70066726D03*
X65216726Y-37566726D03*
X65216726Y-35066726D03*
X51866726Y-53426726D03*
D16*
X51866726Y-45806726D03*
D26*
X98866726Y-36566726D03*
X88866726Y-36566726D03*
D15*
X52946726Y-80116726D03*
D16*
X60566726Y-80116726D03*
D27*
X78116726Y-36566726D03*
X73916726Y-36566726D03*
D15*
X82266726Y-64566726D03*
D16*
X89886726Y-64566726D03*
D15*
X50766726Y-72966726D03*
X48266726Y-72966726D03*
D28*
X66116726Y-87066726D03*
X88716726Y-87066726D03*
D29*
X51436726Y-41816726D03*
D30*
X53976726Y-41816726D03*
X56516726Y-41816726D03*
X59056726Y-41816726D03*
X61596726Y-41816726D03*
X64136726Y-41816726D03*
X66676726Y-41816726D03*
X69216726Y-41816726D03*
X71756726Y-41816726D03*
X74296726Y-41816726D03*
D31*
X35616726Y-46316726D03*
D32*
X35616726Y-30306726D03*
D15*
X56266726Y-37616726D03*
X56266726Y-35116726D03*
X101726726Y-61016726D03*
D16*
X94106726Y-61016726D03*
D15*
X61916726Y-90606726D03*
D16*
X61916726Y-98226726D03*
D33*
X96766726Y-52566726D03*
X100966726Y-52566726D03*
D13*
X98916726Y-27766726D03*
X99400000Y-26600000D03*
X99400000Y-28933452D03*
X100566726Y-26116726D03*
D14*
X100566726Y-27766726D03*
D13*
X100566726Y-29416726D03*
X101733452Y-26600000D03*
X101733452Y-28933452D03*
X102216726Y-27766726D03*
D15*
X59166726Y-37616726D03*
X59166726Y-35116726D03*
D17*
X97316726Y-58016726D03*
X98816726Y-58016726D03*
D13*
X22966726Y-28116726D03*
X23450000Y-26950000D03*
X23450000Y-29283452D03*
X24616726Y-26466726D03*
D14*
X24616726Y-28116726D03*
D13*
X24616726Y-29766726D03*
X25783452Y-26950000D03*
X25783452Y-29283452D03*
X26266726Y-28116726D03*
D34*
X55491726Y-83266726D03*
X51341726Y-83266726D03*
D35*
X76366726Y-59856726D03*
D36*
X76366726Y-57316726D03*
X76366726Y-54776726D03*
X76366726Y-52236726D03*
X76366726Y-49696726D03*
D15*
X62166726Y-37616726D03*
X62166726Y-35116726D03*
D29*
X86346726Y-80166726D03*
D30*
X83806726Y-80166726D03*
X81266726Y-80166726D03*
X78726726Y-80166726D03*
X76186726Y-80166726D03*
X73646726Y-80166726D03*
X71106726Y-80166726D03*
X68566726Y-80166726D03*
X66026726Y-80166726D03*
X63486726Y-80166726D03*
D15*
X60116726Y-84291726D03*
X60116726Y-86791726D03*
X56616726Y-61716726D03*
X54116726Y-61716726D03*
X55266726Y-53426726D03*
D16*
X55266726Y-45806726D03*
D15*
X81266726Y-55866726D03*
X81266726Y-58366726D03*
D37*
X56466726Y-93366726D03*
X56466726Y-92866726D03*
X56466726Y-92366726D03*
X56466726Y-91866726D03*
X56466726Y-91366726D03*
D38*
X54816726Y-91366726D03*
X54816726Y-91866726D03*
D39*
X55016726Y-92366726D03*
D38*
X54816726Y-92866726D03*
X54816726Y-93366726D03*
D17*
X49126726Y-80116726D03*
X50626726Y-80116726D03*
D40*
X60366726Y-61566726D03*
X60366726Y-63066726D03*
D41*
X74886726Y-96716726D03*
D42*
X78886726Y-96716726D03*
X82886726Y-96716726D03*
D15*
X58616726Y-45756726D03*
D16*
X58616726Y-53376726D03*
D15*
X51466726Y-89496726D03*
D16*
X51466726Y-97116726D03*
D43*
X35616726Y-81306726D03*
D44*
X35616726Y-97316726D03*
D45*
X64816726Y-51466726D03*
X64816726Y-50666726D03*
X64816726Y-49866726D03*
X64816726Y-49066726D03*
X64816726Y-48266726D03*
X64816726Y-47466726D03*
D46*
X63816726Y-47466726D03*
D45*
X62816726Y-47466726D03*
X62816726Y-48266726D03*
X62816726Y-49066726D03*
X62816726Y-49866726D03*
X62816726Y-50666726D03*
X62816726Y-51466726D03*
D46*
X63816726Y-51466726D03*
D15*
X83806726Y-61066726D03*
D16*
X91426726Y-61066726D03*
D15*
X75266726Y-45466726D03*
X72766726Y-45466726D03*
X101516726Y-92736726D03*
D16*
X101516726Y-85116726D03*
D15*
X48216726Y-89496726D03*
D16*
X48216726Y-97116726D03*
D47*
X77116726Y-67736726D03*
D48*
X77116726Y-70276726D03*
X77116726Y-72816726D03*
X77116726Y-75356726D03*
D15*
X50766726Y-67066726D03*
X48266726Y-67066726D03*
M02*
