G04 #@! TF.GenerationSoftware,KiCad,Pcbnew,8.0.8*
G04 #@! TF.CreationDate,2025-04-14T11:11:05+01:00*
G04 #@! TF.ProjectId,Bat-mon_v1-Fixo,4261742d-6d6f-46e5-9f76-312d4669786f,rev?*
G04 #@! TF.SameCoordinates,Original*
G04 #@! TF.FileFunction,Soldermask,Top*
G04 #@! TF.FilePolarity,Negative*
%FSLAX46Y46*%
G04 Gerber Fmt 4.6, Leading zero omitted, Abs format (unit mm)*
G04 Created by KiCad (PCBNEW 8.0.8) date 2025-04-14 11:11:05*
%MOMM*%
%LPD*%
G01*
G04 APERTURE LIST*
G04 Aperture macros list*
%AMRoundRect*
0 Rectangle with rounded corners*
0 $1 Rounding radius*
0 $2 $3 $4 $5 $6 $7 $8 $9 X,Y pos of 4 corners*
0 Add a 4 corners polygon primitive as box body*
4,1,4,$2,$3,$4,$5,$6,$7,$8,$9,$2,$3,0*
0 Add four circle primitives for the rounded corners*
1,1,$1+$1,$2,$3*
1,1,$1+$1,$4,$5*
1,1,$1+$1,$6,$7*
1,1,$1+$1,$8,$9*
0 Add four rect primitives between the rounded corners*
20,1,$1+$1,$2,$3,$4,$5,0*
20,1,$1+$1,$4,$5,$6,$7,0*
20,1,$1+$1,$6,$7,$8,$9,0*
20,1,$1+$1,$8,$9,$2,$3,0*%
G04 Aperture macros list end*
%ADD10R,1.720000X1.120000*%
%ADD11R,1.050000X1.500000*%
%ADD12O,1.050000X1.500000*%
%ADD13C,1.600000*%
%ADD14O,1.600000X1.600000*%
%ADD15C,0.700000*%
%ADD16C,4.400000*%
%ADD17R,1.575000X1.575000*%
%ADD18C,1.575000*%
%ADD19RoundRect,0.150000X0.512500X0.150000X-0.512500X0.150000X-0.512500X-0.150000X0.512500X-0.150000X0*%
%ADD20RoundRect,0.175000X-0.175000X1.125000X-0.175000X-1.125000X0.175000X-1.125000X0.175000X1.125000X0*%
%ADD21RoundRect,0.175000X-1.125000X-0.175000X1.125000X-0.175000X1.125000X0.175000X-1.125000X0.175000X0*%
%ADD22RoundRect,0.200000X-0.200000X-0.200000X0.200000X-0.200000X0.200000X0.200000X-0.200000X0.200000X0*%
%ADD23R,0.950000X0.950000*%
%ADD24R,2.175000X2.175000*%
%ADD25C,2.175000*%
%ADD26RoundRect,0.200000X0.200000X0.800000X-0.200000X0.800000X-0.200000X-0.800000X0.200000X-0.800000X0*%
%ADD27RoundRect,0.250000X-0.850000X0.375000X-0.850000X-0.375000X0.850000X-0.375000X0.850000X0.375000X0*%
%ADD28R,1.725000X1.725000*%
%ADD29C,1.725000*%
%ADD30C,1.580000*%
%ADD31R,1.650000X1.650000*%
%ADD32C,1.650000*%
%ADD33R,1.500000X0.800000*%
%ADD34R,1.700000X1.700000*%
%ADD35O,1.700000X1.700000*%
%ADD36R,0.300000X0.600000*%
%ADD37R,1.600000X1.600000*%
%ADD38C,2.300000*%
%ADD39R,2.925000X2.925000*%
%ADD40C,2.925000*%
%ADD41RoundRect,0.075000X-0.662500X-0.075000X0.662500X-0.075000X0.662500X0.075000X-0.662500X0.075000X0*%
%ADD42RoundRect,0.075000X-0.075000X-0.662500X0.075000X-0.662500X0.075000X0.662500X-0.075000X0.662500X0*%
G04 APERTURE END LIST*
D10*
X153300000Y-89200000D03*
X153300000Y-85050000D03*
D11*
X182810000Y-54800000D03*
D12*
X184080000Y-54800000D03*
X185350000Y-54800000D03*
D13*
X151050000Y-75550000D03*
X148550000Y-75550000D03*
X154250000Y-58560000D03*
D14*
X154250000Y-50940000D03*
D13*
X182950000Y-93300000D03*
X182950000Y-95800000D03*
D15*
X200650000Y-107950000D03*
X201133274Y-106783274D03*
X201133274Y-109116726D03*
X202300000Y-106300000D03*
D16*
X202300000Y-107950000D03*
D15*
X202300000Y-109600000D03*
X203466726Y-106783274D03*
X203466726Y-109116726D03*
X203950000Y-107950000D03*
D17*
X187230000Y-85650000D03*
D18*
X184690000Y-85650000D03*
X182150000Y-85650000D03*
X179610000Y-85650000D03*
X177070000Y-85650000D03*
X174530000Y-85650000D03*
X171990000Y-85650000D03*
X169450000Y-85650000D03*
X166910000Y-85650000D03*
X164370000Y-85650000D03*
D15*
X135666726Y-108066726D03*
X136150000Y-106900000D03*
X136150000Y-109233452D03*
X137316726Y-106416726D03*
D16*
X137316726Y-108066726D03*
D15*
X137316726Y-109716726D03*
X138483452Y-106900000D03*
X138483452Y-109233452D03*
X138966726Y-108066726D03*
D13*
X185500000Y-65660000D03*
D14*
X185500000Y-58040000D03*
D13*
X154380000Y-96800000D03*
D14*
X162000000Y-96800000D03*
D13*
X148500000Y-72300000D03*
X151000000Y-72300000D03*
D19*
X167037500Y-94550000D03*
X167037500Y-93600000D03*
X167037500Y-92650000D03*
X164762500Y-92650000D03*
X164762500Y-93600000D03*
X164762500Y-94550000D03*
D20*
X202650000Y-77000000D03*
X201650000Y-77000000D03*
X200650000Y-77000000D03*
X199650000Y-77000000D03*
X198650000Y-77000000D03*
X197650000Y-77000000D03*
X196650000Y-77000000D03*
X195650000Y-77000000D03*
X194650000Y-77000000D03*
X193650000Y-77000000D03*
D21*
X190650000Y-79500000D03*
X190650000Y-80500000D03*
X190650000Y-81500000D03*
X190650000Y-82500000D03*
X190650000Y-83500000D03*
X190650000Y-84500000D03*
X190650000Y-85500000D03*
X190650000Y-86500000D03*
X190650000Y-87500000D03*
X190650000Y-88500000D03*
D20*
X193650000Y-90700000D03*
X194650000Y-90700000D03*
X195650000Y-90700000D03*
X196650000Y-90700000D03*
X197650000Y-90700000D03*
X198650000Y-90700000D03*
X199650000Y-90700000D03*
X200650000Y-90700000D03*
X201650000Y-90700000D03*
X202650000Y-90700000D03*
D22*
X199240000Y-83000000D03*
X198240000Y-83000000D03*
X197240000Y-83000000D03*
X197240000Y-84000000D03*
X197240000Y-85000000D03*
X198240000Y-85000000D03*
X199240000Y-85000000D03*
X199240000Y-84000000D03*
X198240000Y-84000000D03*
D23*
X200650000Y-98600000D03*
X200650000Y-100100000D03*
D13*
X202250000Y-72250000D03*
D14*
X194630000Y-72250000D03*
D13*
X160600000Y-93000000D03*
X158100000Y-93000000D03*
D24*
X149100000Y-106550000D03*
D25*
X145290000Y-106550000D03*
D13*
X179300000Y-50750000D03*
X176800000Y-50750000D03*
X192000000Y-93300000D03*
X192000000Y-95800000D03*
D23*
X202240000Y-68050000D03*
X202240000Y-69550000D03*
D13*
X160050000Y-81560000D03*
D14*
X160050000Y-73940000D03*
D26*
X198600000Y-68600000D03*
X194400000Y-68600000D03*
D23*
X198000000Y-98600000D03*
X198000000Y-100100000D03*
D27*
X164900000Y-101400000D03*
X164900000Y-103550000D03*
D28*
X182800000Y-74680000D03*
D29*
X182800000Y-77220000D03*
X182800000Y-79760000D03*
X182800000Y-82300000D03*
D13*
X148550000Y-69350000D03*
X151050000Y-69350000D03*
D30*
X200500000Y-55200000D03*
X190500000Y-55200000D03*
D13*
X186000000Y-93300000D03*
X186000000Y-95800000D03*
D26*
X185800000Y-46700000D03*
X181600000Y-46700000D03*
D13*
X153750000Y-107100000D03*
D14*
X153750000Y-99480000D03*
D13*
X160750000Y-107100000D03*
D14*
X160750000Y-99480000D03*
D31*
X137800000Y-60900000D03*
D32*
X137800000Y-58400000D03*
X137800000Y-55900000D03*
X137800000Y-53400000D03*
X137800000Y-50900000D03*
D13*
X195300000Y-103400000D03*
D14*
X195300000Y-95780000D03*
D33*
X163500000Y-66850000D03*
X163500000Y-68350000D03*
D13*
X157200000Y-107100000D03*
D14*
X157200000Y-99480000D03*
D34*
X179250000Y-65150000D03*
D35*
X179250000Y-62610000D03*
X179250000Y-60070000D03*
X179250000Y-57530000D03*
X179250000Y-54990000D03*
D13*
X151050000Y-78650000D03*
X148550000Y-78650000D03*
D36*
X158100000Y-64000000D03*
X158600000Y-64000000D03*
X159100000Y-64000000D03*
X159600000Y-64000000D03*
X159600000Y-61200000D03*
X159100000Y-61200000D03*
X158600000Y-61200000D03*
X158100000Y-61200000D03*
D37*
X158850000Y-62600000D03*
D13*
X158750000Y-58660000D03*
D14*
X158750000Y-51040000D03*
D13*
X180190000Y-68600000D03*
D14*
X187810000Y-68600000D03*
D13*
X159950000Y-69550000D03*
X157450000Y-69550000D03*
D38*
X139550000Y-64950000D03*
X139550000Y-87550000D03*
D13*
X167200000Y-97550000D03*
X164700000Y-97550000D03*
D39*
X176650000Y-105700000D03*
D40*
X180650000Y-105700000D03*
X184650000Y-105700000D03*
D13*
X148550000Y-63450000D03*
X151050000Y-63450000D03*
X148600000Y-60550000D03*
X151100000Y-60550000D03*
X156200000Y-81560000D03*
D14*
X156200000Y-73940000D03*
D13*
X173450000Y-90150000D03*
X173450000Y-92650000D03*
X170040000Y-98400000D03*
D14*
X177660000Y-98400000D03*
D13*
X188950000Y-93300000D03*
X188950000Y-95800000D03*
D41*
X166487500Y-66750000D03*
X166487500Y-67250000D03*
X166487500Y-67750000D03*
X166487500Y-68250000D03*
X166487500Y-68750000D03*
X166487500Y-69250000D03*
X166487500Y-69750000D03*
X166487500Y-70250000D03*
X166487500Y-70750000D03*
X166487500Y-71250000D03*
X166487500Y-71750000D03*
X166487500Y-72250000D03*
D42*
X167900000Y-73662500D03*
X168400000Y-73662500D03*
X168900000Y-73662500D03*
X169400000Y-73662500D03*
X169900000Y-73662500D03*
X170400000Y-73662500D03*
X170900000Y-73662500D03*
X171400000Y-73662500D03*
X171900000Y-73662500D03*
X172400000Y-73662500D03*
X172900000Y-73662500D03*
X173400000Y-73662500D03*
D41*
X174812500Y-72250000D03*
X174812500Y-71750000D03*
X174812500Y-71250000D03*
X174812500Y-70750000D03*
X174812500Y-70250000D03*
X174812500Y-69750000D03*
X174812500Y-69250000D03*
X174812500Y-68750000D03*
X174812500Y-68250000D03*
X174812500Y-67750000D03*
X174812500Y-67250000D03*
X174812500Y-66750000D03*
D42*
X173400000Y-65337500D03*
X172900000Y-65337500D03*
X172400000Y-65337500D03*
X171900000Y-65337500D03*
X171400000Y-65337500D03*
X170900000Y-65337500D03*
X170400000Y-65337500D03*
X169900000Y-65337500D03*
X169400000Y-65337500D03*
X168900000Y-65337500D03*
X168400000Y-65337500D03*
X167900000Y-65337500D03*
D13*
X182600000Y-63150000D03*
X182600000Y-65650000D03*
D23*
X156250000Y-85400000D03*
X156250000Y-83900000D03*
D15*
X200700000Y-45450000D03*
X201183274Y-44283274D03*
X201183274Y-46616726D03*
X202350000Y-43800000D03*
D16*
X202350000Y-45450000D03*
D15*
X202350000Y-47100000D03*
X203516726Y-44283274D03*
X203516726Y-46616726D03*
X204000000Y-45450000D03*
D17*
X153460000Y-46650000D03*
D18*
X156000000Y-46650000D03*
X158540000Y-46650000D03*
X161080000Y-46650000D03*
X163620000Y-46650000D03*
X166160000Y-46650000D03*
X168700000Y-46650000D03*
X171240000Y-46650000D03*
X173780000Y-46650000D03*
X176320000Y-46650000D03*
D13*
X162950000Y-51040000D03*
D14*
X162950000Y-58660000D03*
D13*
X159950000Y-66850000D03*
X157450000Y-66850000D03*
X148650000Y-57700000D03*
X151150000Y-57700000D03*
X176450000Y-90200000D03*
X176450000Y-92700000D03*
X190550000Y-71960000D03*
D14*
X190550000Y-64340000D03*
D23*
X160050000Y-85450000D03*
X160050000Y-83950000D03*
D13*
X203350000Y-103420000D03*
D14*
X203350000Y-95800000D03*
D15*
X135600000Y-45350000D03*
X136083274Y-44183274D03*
X136083274Y-46516726D03*
X137250000Y-43700000D03*
D16*
X137250000Y-45350000D03*
D15*
X137250000Y-47000000D03*
X138416726Y-44183274D03*
X138416726Y-46516726D03*
X138900000Y-45350000D03*
D13*
X167060000Y-89750000D03*
D14*
X159440000Y-89750000D03*
D13*
X148550000Y-66400000D03*
X151050000Y-66400000D03*
M02*
