%TF.GenerationSoftware,KiCad,Pcbnew,8.0.8*%
%TF.CreationDate,2025-04-14T11:11:13+01:00*%
%TF.ProjectId,Bat-mon_v1-Fixo,4261742d-6d6f-46e5-9f76-312d4669786f,rev?*%
%TF.SameCoordinates,Original*%
%TF.FileFunction,Drillmap*%
%TF.FilePolarity,Positive*%
%FSLAX45Y45*%
G04 Gerber Fmt 4.5, Leading zero omitted, Abs format (unit mm)*
G04 Created by KiCad (PCBNEW 8.0.8) date 2025-04-14 11:11:13*
%MOMM*%
%LPD*%
G01*
G04 APERTURE LIST*
%ADD10C,0.050000*%
%ADD11C,0.200000*%
G04 APERTURE END LIST*
D10*
X13423223Y-4514994D02*
G75*
G02*
X13706842Y-4232117I285747J-2876D01*
G01*
X20543223Y-10838223D02*
G75*
G02*
X20293223Y-11088223I-250003J3D01*
G01*
X20543223Y-10838223D02*
X20545000Y-9390000D01*
X13722132Y-11092868D02*
X20293223Y-11088223D01*
X20288223Y-4234994D02*
G75*
G02*
X20540000Y-4485000I-3J-251786D01*
G01*
X13706842Y-4232126D02*
X20288223Y-4234994D01*
X13422132Y-10792868D02*
X13423223Y-4514994D01*
X20545000Y-9390000D02*
X20540000Y-4485000D01*
X13722132Y-11092868D02*
G75*
G02*
X13422132Y-10792868I-2J299998D01*
G01*
D11*
X13680409Y-11406852D02*
X13680409Y-11206852D01*
X13680409Y-11206852D02*
X13728028Y-11206852D01*
X13728028Y-11206852D02*
X13756599Y-11216376D01*
X13756599Y-11216376D02*
X13775647Y-11235423D01*
X13775647Y-11235423D02*
X13785171Y-11254471D01*
X13785171Y-11254471D02*
X13794694Y-11292566D01*
X13794694Y-11292566D02*
X13794694Y-11321137D01*
X13794694Y-11321137D02*
X13785171Y-11359233D01*
X13785171Y-11359233D02*
X13775647Y-11378280D01*
X13775647Y-11378280D02*
X13756599Y-11397328D01*
X13756599Y-11397328D02*
X13728028Y-11406852D01*
X13728028Y-11406852D02*
X13680409Y-11406852D01*
X13880409Y-11406852D02*
X13880409Y-11273518D01*
X13880409Y-11311614D02*
X13889933Y-11292566D01*
X13889933Y-11292566D02*
X13899456Y-11283042D01*
X13899456Y-11283042D02*
X13918504Y-11273518D01*
X13918504Y-11273518D02*
X13937552Y-11273518D01*
X14004218Y-11406852D02*
X14004218Y-11273518D01*
X14004218Y-11206852D02*
X13994694Y-11216376D01*
X13994694Y-11216376D02*
X14004218Y-11225899D01*
X14004218Y-11225899D02*
X14013742Y-11216376D01*
X14013742Y-11216376D02*
X14004218Y-11206852D01*
X14004218Y-11206852D02*
X14004218Y-11225899D01*
X14128028Y-11406852D02*
X14108980Y-11397328D01*
X14108980Y-11397328D02*
X14099456Y-11378280D01*
X14099456Y-11378280D02*
X14099456Y-11206852D01*
X14232790Y-11406852D02*
X14213742Y-11397328D01*
X14213742Y-11397328D02*
X14204218Y-11378280D01*
X14204218Y-11378280D02*
X14204218Y-11206852D01*
X14461361Y-11406852D02*
X14461361Y-11206852D01*
X14461361Y-11206852D02*
X14528028Y-11349709D01*
X14528028Y-11349709D02*
X14594694Y-11206852D01*
X14594694Y-11206852D02*
X14594694Y-11406852D01*
X14775647Y-11406852D02*
X14775647Y-11302090D01*
X14775647Y-11302090D02*
X14766123Y-11283042D01*
X14766123Y-11283042D02*
X14747075Y-11273518D01*
X14747075Y-11273518D02*
X14708980Y-11273518D01*
X14708980Y-11273518D02*
X14689933Y-11283042D01*
X14775647Y-11397328D02*
X14756599Y-11406852D01*
X14756599Y-11406852D02*
X14708980Y-11406852D01*
X14708980Y-11406852D02*
X14689933Y-11397328D01*
X14689933Y-11397328D02*
X14680409Y-11378280D01*
X14680409Y-11378280D02*
X14680409Y-11359233D01*
X14680409Y-11359233D02*
X14689933Y-11340185D01*
X14689933Y-11340185D02*
X14708980Y-11330661D01*
X14708980Y-11330661D02*
X14756599Y-11330661D01*
X14756599Y-11330661D02*
X14775647Y-11321137D01*
X14870885Y-11273518D02*
X14870885Y-11473518D01*
X14870885Y-11283042D02*
X14889933Y-11273518D01*
X14889933Y-11273518D02*
X14928028Y-11273518D01*
X14928028Y-11273518D02*
X14947075Y-11283042D01*
X14947075Y-11283042D02*
X14956599Y-11292566D01*
X14956599Y-11292566D02*
X14966123Y-11311614D01*
X14966123Y-11311614D02*
X14966123Y-11368756D01*
X14966123Y-11368756D02*
X14956599Y-11387804D01*
X14956599Y-11387804D02*
X14947075Y-11397328D01*
X14947075Y-11397328D02*
X14928028Y-11406852D01*
X14928028Y-11406852D02*
X14889933Y-11406852D01*
X14889933Y-11406852D02*
X14870885Y-11397328D01*
X15051837Y-11387804D02*
X15061361Y-11397328D01*
X15061361Y-11397328D02*
X15051837Y-11406852D01*
X15051837Y-11406852D02*
X15042314Y-11397328D01*
X15042314Y-11397328D02*
X15051837Y-11387804D01*
X15051837Y-11387804D02*
X15051837Y-11406852D01*
X15051837Y-11283042D02*
X15061361Y-11292566D01*
X15061361Y-11292566D02*
X15051837Y-11302090D01*
X15051837Y-11302090D02*
X15042314Y-11292566D01*
X15042314Y-11292566D02*
X15051837Y-11283042D01*
X15051837Y-11283042D02*
X15051837Y-11302090D01*
M02*
