M48
; DRILL file {KiCad 8.0.8} date 2025-04-14T11:11:12+0100
; FORMAT={-:-/ absolute / metric / decimal}
; #@! TF.CreationDate,2025-04-14T11:11:12+01:00
; #@! TF.GenerationSoftware,Kicad,Pcbnew,8.0.8
; #@! TF.FileFunction,Plated,1,2,PTH
FMAT,2
METRIC
; #@! TA.AperFunction,Plated,PTH,ViaDrill
T1C0.300
; #@! TA.AperFunction,Plated,PTH,ComponentDrill
T2C0.400
; #@! TA.AperFunction,Plated,PTH,ComponentDrill
T3C0.750
; #@! TA.AperFunction,Plated,PTH,ComponentDrill
T4C0.800
; #@! TA.AperFunction,Plated,PTH,ComponentDrill
T5C1.000
; #@! TA.AperFunction,Plated,PTH,ComponentDrill
T6C1.020
; #@! TA.AperFunction,Plated,PTH,ComponentDrill
T7C1.050
; #@! TA.AperFunction,Plated,PTH,ComponentDrill
T8C1.100
; #@! TA.AperFunction,Plated,PTH,ComponentDrill
T9C1.150
; #@! TA.AperFunction,Plated,PTH,ComponentDrill
T10C1.450
; #@! TA.AperFunction,Plated,PTH,ComponentDrill
T11C1.500
; #@! TA.AperFunction,Plated,PTH,ComponentDrill
T12C1.950
; #@! TA.AperFunction,Plated,PTH,ComponentDrill
T13C2.200
%
G90
G05
T1
X145.0Y-70.3
X145.3Y-54.55
X148.3Y-50.9
X151.15Y-80.55
X151.15Y-83.5
X152.25Y-83.1
X152.9Y-53.7
X154.3Y-63.7
X156.25Y-63.725
X156.25Y-86.7
X156.85Y-58.15
X158.15Y-94.75
X159.4Y-57.05
X160.0Y-59.55
X160.05Y-86.75
X160.35Y-62.1
X160.35Y-63.0
X160.35Y-64.0
X161.7Y-72.95
X162.825Y-106.225
X165.4Y-95.5
X166.35Y-95.5
X167.95Y-95.5
X170.4Y-71.9
X173.4Y-70.725
X183.15Y-60.05
X184.85Y-60.05
X187.65Y-74.45
X188.2Y-81.6
X192.5Y-86.0
X192.7Y-75.25
X193.5Y-78.95
X193.5Y-79.8
X193.5Y-80.75
X193.5Y-82.3
X193.5Y-83.2
X193.5Y-84.25
X193.5Y-85.45
X193.5Y-87.2
X193.5Y-88.5
X195.2Y-78.95
X195.2Y-79.8
X195.2Y-80.75
X195.2Y-83.2
X195.2Y-84.25
X195.2Y-85.45
X195.2Y-86.35
X195.2Y-87.2
X196.25Y-73.05
X197.2Y-78.95
X197.2Y-79.8
X197.2Y-80.8
X197.2Y-81.75
X197.2Y-86.35
X197.2Y-87.4
X197.2Y-88.5
X197.24Y-83.0
X197.24Y-84.0
X197.24Y-85.0
X198.0Y-73.15
X198.0Y-96.85
X198.24Y-83.0
X198.24Y-84.0
X198.24Y-85.0
X199.24Y-83.0
X199.24Y-84.0
X199.24Y-85.0
X199.25Y-79.0
X199.25Y-79.85
X199.25Y-80.85
X199.25Y-81.8
X199.25Y-86.4
X199.25Y-87.4
X199.25Y-88.55
X199.65Y-93.8
X200.54Y-67.4
X200.65Y-96.85
X200.85Y-74.35
X201.05Y-79.0
X201.05Y-79.85
X201.05Y-80.8
X201.05Y-81.75
X201.05Y-83.0
X201.05Y-84.15
X201.05Y-85.6
X201.05Y-86.4
X201.05Y-87.25
X201.05Y-88.55
X202.85Y-79.0
X202.85Y-79.85
X202.85Y-80.8
X202.85Y-85.6
X202.85Y-86.4
X202.85Y-87.25
X202.85Y-88.55
X204.05Y-73.75
X204.35Y-79.0
X204.35Y-79.85
X204.35Y-80.8
X204.35Y-85.6
X204.35Y-86.4
X204.35Y-87.25
X204.35Y-88.55
T2
X135.6Y-45.35
X135.667Y-108.067
X136.083Y-44.183
X136.083Y-46.517
X136.15Y-106.9
X136.15Y-109.233
X137.25Y-43.7
X137.25Y-47.0
X137.317Y-106.417
X137.317Y-109.717
X138.417Y-44.183
X138.417Y-46.517
X138.483Y-106.9
X138.483Y-109.233
X138.9Y-45.35
X138.967Y-108.067
X200.65Y-107.95
X200.7Y-45.45
X201.133Y-106.783
X201.133Y-109.117
X201.183Y-44.283
X201.183Y-46.617
X202.3Y-106.3
X202.3Y-109.6
X202.35Y-43.8
X202.35Y-47.1
X203.467Y-106.783
X203.467Y-109.117
X203.517Y-44.283
X203.517Y-46.617
X203.95Y-107.95
X204.0Y-45.45
T3
X182.81Y-54.8
X184.08Y-54.8
X185.35Y-54.8
T4
X148.5Y-72.3
X148.55Y-63.45
X148.55Y-66.4
X148.55Y-69.35
X148.55Y-75.55
X148.55Y-78.65
X148.6Y-60.55
X148.65Y-57.7
X151.0Y-72.3
X151.05Y-63.45
X151.05Y-66.4
X151.05Y-69.35
X151.05Y-75.55
X151.05Y-78.65
X151.1Y-60.55
X151.15Y-57.7
X153.75Y-99.48
X153.75Y-107.1
X154.25Y-50.94
X154.25Y-58.56
X154.38Y-96.8
X156.2Y-73.94
X156.2Y-81.56
X157.2Y-99.48
X157.2Y-107.1
X157.45Y-66.85
X157.45Y-69.55
X158.1Y-93.0
X158.75Y-51.04
X158.75Y-58.66
X159.44Y-89.75
X159.95Y-66.85
X159.95Y-69.55
X160.05Y-73.94
X160.05Y-81.56
X160.6Y-93.0
X160.75Y-99.48
X160.75Y-107.1
X162.0Y-96.8
X162.95Y-51.04
X162.95Y-58.66
X164.7Y-97.55
X167.06Y-89.75
X167.2Y-97.55
X170.04Y-98.4
X173.45Y-90.15
X173.45Y-92.65
X176.45Y-90.2
X176.45Y-92.7
X176.8Y-50.75
X177.66Y-98.4
X179.3Y-50.75
X180.19Y-68.6
X182.6Y-63.15
X182.6Y-65.65
X182.95Y-93.3
X182.95Y-95.8
X185.5Y-58.04
X185.5Y-65.66
X186.0Y-93.3
X186.0Y-95.8
X187.81Y-68.6
X188.95Y-93.3
X188.95Y-95.8
X190.55Y-64.34
X190.55Y-71.96
X192.0Y-93.3
X192.0Y-95.8
X194.63Y-72.25
X195.3Y-95.78
X195.3Y-103.4
X202.25Y-72.25
X203.35Y-95.8
X203.35Y-103.42
T5
X179.25Y-54.99
X179.25Y-57.53
X179.25Y-60.07
X179.25Y-62.61
X179.25Y-65.15
T6
X190.5Y-55.2
X200.5Y-55.2
T7
X153.46Y-46.65
X156.0Y-46.65
X158.54Y-46.65
X161.08Y-46.65
X163.62Y-46.65
X164.37Y-85.65
X166.16Y-46.65
X166.91Y-85.65
X168.7Y-46.65
X169.45Y-85.65
X171.24Y-46.65
X171.99Y-85.65
X173.78Y-46.65
X174.53Y-85.65
X176.32Y-46.65
X177.07Y-85.65
X179.61Y-85.65
X182.15Y-85.65
X184.69Y-85.65
X187.23Y-85.65
T8
X137.8Y-50.9
X137.8Y-53.4
X137.8Y-55.9
X137.8Y-58.4
X137.8Y-60.9
T9
X182.8Y-74.68
X182.8Y-77.22
X182.8Y-79.76
X182.8Y-82.3
T10
X145.29Y-106.55
X149.1Y-106.55
T11
X139.55Y-64.95
X139.55Y-87.55
T12
X176.65Y-105.7
X180.65Y-105.7
X184.65Y-105.7
T13
X137.25Y-45.35
X137.317Y-108.067
X202.3Y-107.95
X202.35Y-45.45
M30
