G04 #@! TF.GenerationSoftware,KiCad,Pcbnew,8.0.8*
G04 #@! TF.CreationDate,2025-04-14T11:11:05+01:00*
G04 #@! TF.ProjectId,Bat-mon_v1-Fixo,4261742d-6d6f-46e5-9f76-312d4669786f,rev?*
G04 #@! TF.SameCoordinates,Original*
G04 #@! TF.FileFunction,Legend,Bot*
G04 #@! TF.FilePolarity,Positive*
%FSLAX46Y46*%
G04 Gerber Fmt 4.6, Leading zero omitted, Abs format (unit mm)*
G04 Created by KiCad (PCBNEW 8.0.8) date 2025-04-14 11:11:05*
%MOMM*%
%LPD*%
G01*
G04 APERTURE LIST*
%ADD10C,0.200000*%
%ADD11C,0.000000*%
%ADD12R,1.050000X1.500000*%
%ADD13O,1.050000X1.500000*%
%ADD14C,1.600000*%
%ADD15O,1.600000X1.600000*%
%ADD16C,0.700000*%
%ADD17C,4.400000*%
%ADD18R,1.575000X1.575000*%
%ADD19C,1.575000*%
%ADD20R,2.175000X2.175000*%
%ADD21C,2.175000*%
%ADD22R,1.725000X1.725000*%
%ADD23C,1.725000*%
%ADD24C,1.580000*%
%ADD25R,1.650000X1.650000*%
%ADD26C,1.650000*%
%ADD27R,1.700000X1.700000*%
%ADD28O,1.700000X1.700000*%
%ADD29C,2.300000*%
%ADD30R,2.925000X2.925000*%
%ADD31C,2.925000*%
G04 APERTURE END LIST*
D10*
X144892998Y-103104136D02*
X144833474Y-102925564D01*
X144833474Y-102925564D02*
X144773950Y-102866041D01*
X144773950Y-102866041D02*
X144654902Y-102806517D01*
X144654902Y-102806517D02*
X144476331Y-102806517D01*
X144476331Y-102806517D02*
X144357283Y-102866041D01*
X144357283Y-102866041D02*
X144297760Y-102925564D01*
X144297760Y-102925564D02*
X144238236Y-103044612D01*
X144238236Y-103044612D02*
X144238236Y-103520802D01*
X144238236Y-103520802D02*
X145488236Y-103520802D01*
X145488236Y-103520802D02*
X145488236Y-103104136D01*
X145488236Y-103104136D02*
X145428712Y-102985088D01*
X145428712Y-102985088D02*
X145369188Y-102925564D01*
X145369188Y-102925564D02*
X145250140Y-102866041D01*
X145250140Y-102866041D02*
X145131093Y-102866041D01*
X145131093Y-102866041D02*
X145012045Y-102925564D01*
X145012045Y-102925564D02*
X144952521Y-102985088D01*
X144952521Y-102985088D02*
X144892998Y-103104136D01*
X144892998Y-103104136D02*
X144892998Y-103520802D01*
X144595379Y-102330326D02*
X144595379Y-101735088D01*
X144238236Y-102449374D02*
X145488236Y-102032707D01*
X145488236Y-102032707D02*
X144238236Y-101616041D01*
X145488236Y-101377945D02*
X145488236Y-100663659D01*
X144238236Y-101020802D02*
X145488236Y-101020802D01*
X144714426Y-100246992D02*
X144714426Y-99294612D01*
X144238236Y-98699373D02*
X145488236Y-98699373D01*
X145488236Y-98699373D02*
X144595379Y-98282707D01*
X144595379Y-98282707D02*
X145488236Y-97866040D01*
X145488236Y-97866040D02*
X144238236Y-97866040D01*
X145488236Y-97032707D02*
X145488236Y-96794612D01*
X145488236Y-96794612D02*
X145428712Y-96675564D01*
X145428712Y-96675564D02*
X145309664Y-96556517D01*
X145309664Y-96556517D02*
X145071569Y-96496993D01*
X145071569Y-96496993D02*
X144654902Y-96496993D01*
X144654902Y-96496993D02*
X144416807Y-96556517D01*
X144416807Y-96556517D02*
X144297760Y-96675564D01*
X144297760Y-96675564D02*
X144238236Y-96794612D01*
X144238236Y-96794612D02*
X144238236Y-97032707D01*
X144238236Y-97032707D02*
X144297760Y-97151755D01*
X144297760Y-97151755D02*
X144416807Y-97270802D01*
X144416807Y-97270802D02*
X144654902Y-97330326D01*
X144654902Y-97330326D02*
X145071569Y-97330326D01*
X145071569Y-97330326D02*
X145309664Y-97270802D01*
X145309664Y-97270802D02*
X145428712Y-97151755D01*
X145428712Y-97151755D02*
X145488236Y-97032707D01*
X144238236Y-95961278D02*
X145488236Y-95961278D01*
X145488236Y-95961278D02*
X144238236Y-95246993D01*
X144238236Y-95246993D02*
X145488236Y-95246993D01*
X145071569Y-93818421D02*
X144238236Y-93520802D01*
X144238236Y-93520802D02*
X145071569Y-93223183D01*
X144238236Y-92092231D02*
X144238236Y-92806516D01*
X144238236Y-92449373D02*
X145488236Y-92449373D01*
X145488236Y-92449373D02*
X145309664Y-92568421D01*
X145309664Y-92568421D02*
X145190617Y-92687469D01*
X145190617Y-92687469D02*
X145131093Y-92806516D01*
X142225806Y-103520802D02*
X143475806Y-103520802D01*
X143475806Y-103520802D02*
X143475806Y-103223183D01*
X143475806Y-103223183D02*
X143416282Y-103044612D01*
X143416282Y-103044612D02*
X143297234Y-102925564D01*
X143297234Y-102925564D02*
X143178187Y-102866041D01*
X143178187Y-102866041D02*
X142940091Y-102806517D01*
X142940091Y-102806517D02*
X142761520Y-102806517D01*
X142761520Y-102806517D02*
X142523425Y-102866041D01*
X142523425Y-102866041D02*
X142404377Y-102925564D01*
X142404377Y-102925564D02*
X142285330Y-103044612D01*
X142285330Y-103044612D02*
X142225806Y-103223183D01*
X142225806Y-103223183D02*
X142225806Y-103520802D01*
X142285330Y-101794612D02*
X142225806Y-101913660D01*
X142225806Y-101913660D02*
X142225806Y-102151755D01*
X142225806Y-102151755D02*
X142285330Y-102270802D01*
X142285330Y-102270802D02*
X142404377Y-102330326D01*
X142404377Y-102330326D02*
X142880568Y-102330326D01*
X142880568Y-102330326D02*
X142999615Y-102270802D01*
X142999615Y-102270802D02*
X143059139Y-102151755D01*
X143059139Y-102151755D02*
X143059139Y-101913660D01*
X143059139Y-101913660D02*
X142999615Y-101794612D01*
X142999615Y-101794612D02*
X142880568Y-101735088D01*
X142880568Y-101735088D02*
X142761520Y-101735088D01*
X142761520Y-101735088D02*
X142642472Y-102330326D01*
X142285330Y-101258897D02*
X142225806Y-101139850D01*
X142225806Y-101139850D02*
X142225806Y-100901754D01*
X142225806Y-100901754D02*
X142285330Y-100782707D01*
X142285330Y-100782707D02*
X142404377Y-100723183D01*
X142404377Y-100723183D02*
X142463901Y-100723183D01*
X142463901Y-100723183D02*
X142582949Y-100782707D01*
X142582949Y-100782707D02*
X142642472Y-100901754D01*
X142642472Y-100901754D02*
X142642472Y-101080326D01*
X142642472Y-101080326D02*
X142701996Y-101199373D01*
X142701996Y-101199373D02*
X142821044Y-101258897D01*
X142821044Y-101258897D02*
X142880568Y-101258897D01*
X142880568Y-101258897D02*
X142999615Y-101199373D01*
X142999615Y-101199373D02*
X143059139Y-101080326D01*
X143059139Y-101080326D02*
X143059139Y-100901754D01*
X143059139Y-100901754D02*
X142999615Y-100782707D01*
X142225806Y-100187468D02*
X143059139Y-100187468D01*
X143475806Y-100187468D02*
X143416282Y-100246992D01*
X143416282Y-100246992D02*
X143356758Y-100187468D01*
X143356758Y-100187468D02*
X143416282Y-100127945D01*
X143416282Y-100127945D02*
X143475806Y-100187468D01*
X143475806Y-100187468D02*
X143356758Y-100187468D01*
X143059139Y-99056516D02*
X142047234Y-99056516D01*
X142047234Y-99056516D02*
X141928187Y-99116040D01*
X141928187Y-99116040D02*
X141868663Y-99175564D01*
X141868663Y-99175564D02*
X141809139Y-99294611D01*
X141809139Y-99294611D02*
X141809139Y-99473183D01*
X141809139Y-99473183D02*
X141868663Y-99592230D01*
X142285330Y-99056516D02*
X142225806Y-99175564D01*
X142225806Y-99175564D02*
X142225806Y-99413659D01*
X142225806Y-99413659D02*
X142285330Y-99532707D01*
X142285330Y-99532707D02*
X142344853Y-99592230D01*
X142344853Y-99592230D02*
X142463901Y-99651754D01*
X142463901Y-99651754D02*
X142821044Y-99651754D01*
X142821044Y-99651754D02*
X142940091Y-99592230D01*
X142940091Y-99592230D02*
X142999615Y-99532707D01*
X142999615Y-99532707D02*
X143059139Y-99413659D01*
X143059139Y-99413659D02*
X143059139Y-99175564D01*
X143059139Y-99175564D02*
X142999615Y-99056516D01*
X143059139Y-98461278D02*
X142225806Y-98461278D01*
X142940091Y-98461278D02*
X142999615Y-98401755D01*
X142999615Y-98401755D02*
X143059139Y-98282707D01*
X143059139Y-98282707D02*
X143059139Y-98104136D01*
X143059139Y-98104136D02*
X142999615Y-97985088D01*
X142999615Y-97985088D02*
X142880568Y-97925564D01*
X142880568Y-97925564D02*
X142225806Y-97925564D01*
X142285330Y-96854136D02*
X142225806Y-96973184D01*
X142225806Y-96973184D02*
X142225806Y-97211279D01*
X142225806Y-97211279D02*
X142285330Y-97330326D01*
X142285330Y-97330326D02*
X142404377Y-97389850D01*
X142404377Y-97389850D02*
X142880568Y-97389850D01*
X142880568Y-97389850D02*
X142999615Y-97330326D01*
X142999615Y-97330326D02*
X143059139Y-97211279D01*
X143059139Y-97211279D02*
X143059139Y-96973184D01*
X143059139Y-96973184D02*
X142999615Y-96854136D01*
X142999615Y-96854136D02*
X142880568Y-96794612D01*
X142880568Y-96794612D02*
X142761520Y-96794612D01*
X142761520Y-96794612D02*
X142642472Y-97389850D01*
X142225806Y-95723183D02*
X143475806Y-95723183D01*
X142285330Y-95723183D02*
X142225806Y-95842231D01*
X142225806Y-95842231D02*
X142225806Y-96080326D01*
X142225806Y-96080326D02*
X142285330Y-96199374D01*
X142285330Y-96199374D02*
X142344853Y-96258897D01*
X142344853Y-96258897D02*
X142463901Y-96318421D01*
X142463901Y-96318421D02*
X142821044Y-96318421D01*
X142821044Y-96318421D02*
X142940091Y-96258897D01*
X142940091Y-96258897D02*
X142999615Y-96199374D01*
X142999615Y-96199374D02*
X143059139Y-96080326D01*
X143059139Y-96080326D02*
X143059139Y-95842231D01*
X143059139Y-95842231D02*
X142999615Y-95723183D01*
X142821044Y-93401755D02*
X142880568Y-93461279D01*
X142880568Y-93461279D02*
X142940091Y-93580326D01*
X142940091Y-93580326D02*
X142940091Y-93699374D01*
X142940091Y-93699374D02*
X142880568Y-93818422D01*
X142880568Y-93818422D02*
X142821044Y-93877945D01*
X142821044Y-93877945D02*
X142701996Y-93937469D01*
X142701996Y-93937469D02*
X142582949Y-93937469D01*
X142582949Y-93937469D02*
X142463901Y-93877945D01*
X142463901Y-93877945D02*
X142404377Y-93818422D01*
X142404377Y-93818422D02*
X142344853Y-93699374D01*
X142344853Y-93699374D02*
X142344853Y-93580326D01*
X142344853Y-93580326D02*
X142404377Y-93461279D01*
X142404377Y-93461279D02*
X142463901Y-93401755D01*
X142940091Y-93401755D02*
X142463901Y-93401755D01*
X142463901Y-93401755D02*
X142404377Y-93342231D01*
X142404377Y-93342231D02*
X142404377Y-93282707D01*
X142404377Y-93282707D02*
X142463901Y-93163660D01*
X142463901Y-93163660D02*
X142582949Y-93104136D01*
X142582949Y-93104136D02*
X142880568Y-93104136D01*
X142880568Y-93104136D02*
X143059139Y-93223184D01*
X143059139Y-93223184D02*
X143178187Y-93401755D01*
X143178187Y-93401755D02*
X143237710Y-93639850D01*
X143237710Y-93639850D02*
X143178187Y-93877945D01*
X143178187Y-93877945D02*
X143059139Y-94056517D01*
X143059139Y-94056517D02*
X142880568Y-94175564D01*
X142880568Y-94175564D02*
X142642472Y-94235088D01*
X142642472Y-94235088D02*
X142404377Y-94175564D01*
X142404377Y-94175564D02*
X142225806Y-94056517D01*
X142225806Y-94056517D02*
X142106758Y-93877945D01*
X142106758Y-93877945D02*
X142047234Y-93639850D01*
X142047234Y-93639850D02*
X142106758Y-93401755D01*
X142106758Y-93401755D02*
X142225806Y-93223184D01*
X141463376Y-103282707D02*
X141463376Y-103163660D01*
X141463376Y-103163660D02*
X141403852Y-103044612D01*
X141403852Y-103044612D02*
X141344328Y-102985088D01*
X141344328Y-102985088D02*
X141225280Y-102925564D01*
X141225280Y-102925564D02*
X140987185Y-102866041D01*
X140987185Y-102866041D02*
X140689566Y-102866041D01*
X140689566Y-102866041D02*
X140451471Y-102925564D01*
X140451471Y-102925564D02*
X140332423Y-102985088D01*
X140332423Y-102985088D02*
X140272900Y-103044612D01*
X140272900Y-103044612D02*
X140213376Y-103163660D01*
X140213376Y-103163660D02*
X140213376Y-103282707D01*
X140213376Y-103282707D02*
X140272900Y-103401755D01*
X140272900Y-103401755D02*
X140332423Y-103461279D01*
X140332423Y-103461279D02*
X140451471Y-103520802D01*
X140451471Y-103520802D02*
X140689566Y-103580326D01*
X140689566Y-103580326D02*
X140987185Y-103580326D01*
X140987185Y-103580326D02*
X141225280Y-103520802D01*
X141225280Y-103520802D02*
X141344328Y-103461279D01*
X141344328Y-103461279D02*
X141403852Y-103401755D01*
X141403852Y-103401755D02*
X141463376Y-103282707D01*
X141463376Y-102449374D02*
X141463376Y-101675565D01*
X141463376Y-101675565D02*
X140987185Y-102092231D01*
X140987185Y-102092231D02*
X140987185Y-101913660D01*
X140987185Y-101913660D02*
X140927661Y-101794612D01*
X140927661Y-101794612D02*
X140868138Y-101735088D01*
X140868138Y-101735088D02*
X140749090Y-101675565D01*
X140749090Y-101675565D02*
X140451471Y-101675565D01*
X140451471Y-101675565D02*
X140332423Y-101735088D01*
X140332423Y-101735088D02*
X140272900Y-101794612D01*
X140272900Y-101794612D02*
X140213376Y-101913660D01*
X140213376Y-101913660D02*
X140213376Y-102270803D01*
X140213376Y-102270803D02*
X140272900Y-102389850D01*
X140272900Y-102389850D02*
X140332423Y-102449374D01*
X141522900Y-100246993D02*
X139915757Y-101318422D01*
X141344328Y-99889850D02*
X141403852Y-99830326D01*
X141403852Y-99830326D02*
X141463376Y-99711279D01*
X141463376Y-99711279D02*
X141463376Y-99413660D01*
X141463376Y-99413660D02*
X141403852Y-99294612D01*
X141403852Y-99294612D02*
X141344328Y-99235088D01*
X141344328Y-99235088D02*
X141225280Y-99175565D01*
X141225280Y-99175565D02*
X141106233Y-99175565D01*
X141106233Y-99175565D02*
X140927661Y-99235088D01*
X140927661Y-99235088D02*
X140213376Y-99949374D01*
X140213376Y-99949374D02*
X140213376Y-99175565D01*
X141463376Y-98401755D02*
X141463376Y-98282708D01*
X141463376Y-98282708D02*
X141403852Y-98163660D01*
X141403852Y-98163660D02*
X141344328Y-98104136D01*
X141344328Y-98104136D02*
X141225280Y-98044612D01*
X141225280Y-98044612D02*
X140987185Y-97985089D01*
X140987185Y-97985089D02*
X140689566Y-97985089D01*
X140689566Y-97985089D02*
X140451471Y-98044612D01*
X140451471Y-98044612D02*
X140332423Y-98104136D01*
X140332423Y-98104136D02*
X140272900Y-98163660D01*
X140272900Y-98163660D02*
X140213376Y-98282708D01*
X140213376Y-98282708D02*
X140213376Y-98401755D01*
X140213376Y-98401755D02*
X140272900Y-98520803D01*
X140272900Y-98520803D02*
X140332423Y-98580327D01*
X140332423Y-98580327D02*
X140451471Y-98639850D01*
X140451471Y-98639850D02*
X140689566Y-98699374D01*
X140689566Y-98699374D02*
X140987185Y-98699374D01*
X140987185Y-98699374D02*
X141225280Y-98639850D01*
X141225280Y-98639850D02*
X141344328Y-98580327D01*
X141344328Y-98580327D02*
X141403852Y-98520803D01*
X141403852Y-98520803D02*
X141463376Y-98401755D01*
X141344328Y-97508898D02*
X141403852Y-97449374D01*
X141403852Y-97449374D02*
X141463376Y-97330327D01*
X141463376Y-97330327D02*
X141463376Y-97032708D01*
X141463376Y-97032708D02*
X141403852Y-96913660D01*
X141403852Y-96913660D02*
X141344328Y-96854136D01*
X141344328Y-96854136D02*
X141225280Y-96794613D01*
X141225280Y-96794613D02*
X141106233Y-96794613D01*
X141106233Y-96794613D02*
X140927661Y-96854136D01*
X140927661Y-96854136D02*
X140213376Y-97568422D01*
X140213376Y-97568422D02*
X140213376Y-96794613D01*
X141463376Y-95663660D02*
X141463376Y-96258898D01*
X141463376Y-96258898D02*
X140868138Y-96318422D01*
X140868138Y-96318422D02*
X140927661Y-96258898D01*
X140927661Y-96258898D02*
X140987185Y-96139851D01*
X140987185Y-96139851D02*
X140987185Y-95842232D01*
X140987185Y-95842232D02*
X140927661Y-95723184D01*
X140927661Y-95723184D02*
X140868138Y-95663660D01*
X140868138Y-95663660D02*
X140749090Y-95604137D01*
X140749090Y-95604137D02*
X140451471Y-95604137D01*
X140451471Y-95604137D02*
X140332423Y-95663660D01*
X140332423Y-95663660D02*
X140272900Y-95723184D01*
X140272900Y-95723184D02*
X140213376Y-95842232D01*
X140213376Y-95842232D02*
X140213376Y-96139851D01*
X140213376Y-96139851D02*
X140272900Y-96258898D01*
X140272900Y-96258898D02*
X140332423Y-96318422D01*
D11*
G36*
X144786703Y-75692469D02*
G01*
X144786703Y-75924697D01*
X143302362Y-75924697D01*
X143284796Y-75924697D01*
X143143774Y-75924671D01*
X143006447Y-75924604D01*
X142873437Y-75924498D01*
X142745367Y-75924356D01*
X142622860Y-75924179D01*
X142506538Y-75923970D01*
X142397025Y-75923729D01*
X142294942Y-75923460D01*
X142200914Y-75923163D01*
X142115563Y-75922842D01*
X142039512Y-75922497D01*
X141973383Y-75922132D01*
X141917799Y-75921747D01*
X141873384Y-75921344D01*
X141840760Y-75920927D01*
X141820550Y-75920496D01*
X141813376Y-75920053D01*
X141812649Y-75916333D01*
X141811715Y-75900429D01*
X141810986Y-75873589D01*
X141810483Y-75837447D01*
X141810226Y-75793637D01*
X141810235Y-75743793D01*
X141810531Y-75689548D01*
X141812329Y-75463686D01*
X143299516Y-75461963D01*
X144786703Y-75460240D01*
X144786703Y-75692469D01*
G37*
G36*
X145620895Y-75365736D02*
G01*
X145649295Y-75369528D01*
X145679215Y-75377366D01*
X145692144Y-75381481D01*
X145721674Y-75392751D01*
X145746424Y-75406280D01*
X145770890Y-75424824D01*
X145799566Y-75451138D01*
X145823869Y-75476509D01*
X145860059Y-75526150D01*
X145884061Y-75579510D01*
X145896599Y-75638446D01*
X145898395Y-75704812D01*
X145895468Y-75738712D01*
X145881114Y-75803215D01*
X145855308Y-75860506D01*
X145817727Y-75911212D01*
X145768043Y-75955960D01*
X145727768Y-75981515D01*
X145673227Y-76003407D01*
X145617097Y-76013432D01*
X145560835Y-76012235D01*
X145505899Y-76000455D01*
X145453746Y-75978736D01*
X145405833Y-75947720D01*
X145363617Y-75908047D01*
X145328557Y-75860361D01*
X145302110Y-75805303D01*
X145285732Y-75743514D01*
X145281312Y-75712649D01*
X145279884Y-75684176D01*
X145282322Y-75655767D01*
X145288787Y-75620890D01*
X145291232Y-75610008D01*
X145309811Y-75553168D01*
X145337587Y-75503533D01*
X145376719Y-75457085D01*
X145418455Y-75419967D01*
X145465355Y-75391060D01*
X145515836Y-75373441D01*
X145572487Y-75365905D01*
X145587736Y-75365316D01*
X145620895Y-75365736D01*
G37*
G36*
X142239750Y-86153701D02*
G01*
X142309780Y-86159959D01*
X142373400Y-86176011D01*
X142432754Y-86202780D01*
X142489984Y-86241189D01*
X142547235Y-86292162D01*
X142571678Y-86316917D01*
X142594827Y-86342322D01*
X142612328Y-86364916D01*
X142626768Y-86388105D01*
X142640734Y-86415297D01*
X142662789Y-86468632D01*
X142682413Y-86544616D01*
X142688883Y-86620702D01*
X142682412Y-86695814D01*
X142663213Y-86768878D01*
X142631502Y-86838816D01*
X142587492Y-86904553D01*
X142531397Y-86965014D01*
X142508651Y-86984486D01*
X142453857Y-87021949D01*
X142394302Y-87051889D01*
X142334808Y-87071688D01*
X142320866Y-87074459D01*
X142281673Y-87078727D01*
X142236093Y-87080207D01*
X142188964Y-87078966D01*
X142145128Y-87075071D01*
X142109425Y-87068587D01*
X142105322Y-87067505D01*
X142034851Y-87041689D01*
X141969511Y-87004323D01*
X141910685Y-86956912D01*
X141859755Y-86900963D01*
X141818103Y-86837981D01*
X141787112Y-86769471D01*
X141768165Y-86696939D01*
X141762552Y-86644957D01*
X141765425Y-86567371D01*
X141781438Y-86490319D01*
X141810369Y-86415297D01*
X141821721Y-86392832D01*
X141835825Y-86369192D01*
X141852488Y-86346803D01*
X141874294Y-86322261D01*
X141903827Y-86292162D01*
X141914815Y-86281458D01*
X141971897Y-86232946D01*
X142029366Y-86196822D01*
X142089366Y-86172162D01*
X142154040Y-86158043D01*
X142225531Y-86153542D01*
X142239750Y-86153701D01*
G37*
G36*
X142934124Y-72274174D02*
G01*
X143064938Y-72274189D01*
X143183407Y-72274237D01*
X143290263Y-72274340D01*
X143386234Y-72274517D01*
X143472052Y-72274789D01*
X143548444Y-72275175D01*
X143616142Y-72275695D01*
X143675876Y-72276371D01*
X143728375Y-72277222D01*
X143774369Y-72278268D01*
X143814588Y-72279529D01*
X143849762Y-72281026D01*
X143880620Y-72282778D01*
X143907894Y-72284806D01*
X143932312Y-72287131D01*
X143954604Y-72289771D01*
X143975501Y-72292748D01*
X143995732Y-72296081D01*
X144016027Y-72299791D01*
X144037116Y-72303898D01*
X144059729Y-72308421D01*
X144065795Y-72309652D01*
X144178476Y-72338253D01*
X144281453Y-72375941D01*
X144375538Y-72423124D01*
X144461547Y-72480206D01*
X144540295Y-72547593D01*
X144546088Y-72553231D01*
X144617921Y-72633270D01*
X144679566Y-72721883D01*
X144730769Y-72818308D01*
X144771275Y-72921779D01*
X144800829Y-73031532D01*
X144819176Y-73146804D01*
X144826063Y-73266829D01*
X144821234Y-73390844D01*
X144813466Y-73462470D01*
X144795617Y-73563928D01*
X144769994Y-73656190D01*
X144735881Y-73740933D01*
X144692564Y-73819833D01*
X144639326Y-73894568D01*
X144575452Y-73966814D01*
X144550241Y-73992071D01*
X144493860Y-74042608D01*
X144436825Y-74084771D01*
X144375208Y-74121595D01*
X144373457Y-74122541D01*
X144347735Y-74137141D01*
X144332111Y-74148094D01*
X144324366Y-74157290D01*
X144322277Y-74166619D01*
X144322277Y-74183100D01*
X144554490Y-74183100D01*
X144786703Y-74183100D01*
X144786703Y-74405068D01*
X144786703Y-74627036D01*
X143297716Y-74627036D01*
X141808730Y-74627036D01*
X141810529Y-74399946D01*
X141812329Y-74172855D01*
X142785574Y-74169164D01*
X142848045Y-74168927D01*
X142976659Y-74168432D01*
X143092636Y-74167969D01*
X143196681Y-74167526D01*
X143289498Y-74167089D01*
X143371790Y-74166646D01*
X143444262Y-74166185D01*
X143507619Y-74165694D01*
X143562565Y-74165159D01*
X143609803Y-74164570D01*
X143650039Y-74163912D01*
X143683976Y-74163175D01*
X143712319Y-74162345D01*
X143735772Y-74161409D01*
X143755039Y-74160357D01*
X143770825Y-74159174D01*
X143783833Y-74157849D01*
X143794769Y-74156369D01*
X143804336Y-74154722D01*
X143813239Y-74152896D01*
X143822181Y-74150877D01*
X143874976Y-74137655D01*
X143955285Y-74112217D01*
X144025943Y-74081935D01*
X144089277Y-74045582D01*
X144147617Y-74001929D01*
X144203290Y-73949748D01*
X144256163Y-73890415D01*
X144303639Y-73824280D01*
X144341513Y-73754455D01*
X144371794Y-73677695D01*
X144382791Y-73643568D01*
X144392106Y-73610409D01*
X144398790Y-73579188D01*
X144403262Y-73546787D01*
X144405940Y-73510089D01*
X144407244Y-73465977D01*
X144407592Y-73411333D01*
X144407565Y-73387705D01*
X144407199Y-73344725D01*
X144406225Y-73311293D01*
X144404412Y-73284591D01*
X144401528Y-73261802D01*
X144397344Y-73240105D01*
X144391626Y-73216684D01*
X144382224Y-73184027D01*
X144352366Y-73106295D01*
X144314029Y-73033950D01*
X144268684Y-72969545D01*
X144217805Y-72915630D01*
X144179038Y-72883487D01*
X144110979Y-72837430D01*
X144038982Y-72799974D01*
X143966991Y-72773357D01*
X143957213Y-72770493D01*
X143942678Y-72766163D01*
X143929331Y-72762250D01*
X143916466Y-72758730D01*
X143903376Y-72755580D01*
X143889352Y-72752777D01*
X143873689Y-72750297D01*
X143855679Y-72748117D01*
X143834616Y-72746213D01*
X143809792Y-72744562D01*
X143780499Y-72743140D01*
X143746032Y-72741925D01*
X143705683Y-72740892D01*
X143658745Y-72740019D01*
X143604511Y-72739281D01*
X143542274Y-72738656D01*
X143471327Y-72738120D01*
X143390963Y-72737649D01*
X143300474Y-72737220D01*
X143199155Y-72736810D01*
X143086297Y-72736395D01*
X142961193Y-72735952D01*
X142823138Y-72735457D01*
X141812329Y-72731769D01*
X141812329Y-72502971D01*
X141812329Y-72274173D01*
X142819723Y-72274173D01*
X142934124Y-72274174D01*
G37*
G36*
X143494912Y-87652804D02*
G01*
X143636151Y-87667157D01*
X143770846Y-87689280D01*
X143860272Y-87709547D01*
X143992572Y-87749173D01*
X144116931Y-87798479D01*
X144232887Y-87857091D01*
X144339974Y-87924633D01*
X144437729Y-88000732D01*
X144525688Y-88085012D01*
X144603387Y-88177099D01*
X144670362Y-88276618D01*
X144726149Y-88383194D01*
X144770284Y-88496452D01*
X144772844Y-88504386D01*
X144799072Y-88604124D01*
X144816217Y-88708144D01*
X144824294Y-88814020D01*
X144823315Y-88919326D01*
X144813296Y-89021636D01*
X144794250Y-89118521D01*
X144766190Y-89207557D01*
X144758123Y-89227427D01*
X144722079Y-89300943D01*
X144677431Y-89373771D01*
X144627024Y-89441587D01*
X144573704Y-89500067D01*
X144539760Y-89530632D01*
X144494562Y-89566904D01*
X144444948Y-89603217D01*
X144395064Y-89636548D01*
X144349057Y-89663874D01*
X144345921Y-89665595D01*
X144314063Y-89684458D01*
X144294809Y-89698935D01*
X144288292Y-89708927D01*
X144288293Y-89709096D01*
X144288908Y-89710956D01*
X144291163Y-89712610D01*
X144295809Y-89714070D01*
X144303596Y-89715348D01*
X144315277Y-89716455D01*
X144331602Y-89717405D01*
X144353323Y-89718209D01*
X144381191Y-89718879D01*
X144415957Y-89719428D01*
X144458373Y-89719866D01*
X144509190Y-89720207D01*
X144569158Y-89720463D01*
X144639030Y-89720645D01*
X144719557Y-89720765D01*
X144811489Y-89720836D01*
X144915578Y-89720870D01*
X145032576Y-89720879D01*
X145777023Y-89720879D01*
X145777023Y-90134093D01*
X145777023Y-90547307D01*
X143794676Y-90545588D01*
X143309221Y-90545167D01*
X141812329Y-90543869D01*
X141810567Y-90139204D01*
X141808805Y-89734538D01*
X142047902Y-89734538D01*
X142286999Y-89734538D01*
X142286890Y-89715757D01*
X142286613Y-89711068D01*
X142283426Y-89701924D01*
X142274830Y-89692861D01*
X142258547Y-89681834D01*
X142232297Y-89666799D01*
X142214798Y-89656722D01*
X142167904Y-89626752D01*
X142118725Y-89591787D01*
X142070887Y-89554597D01*
X142028019Y-89517953D01*
X141993751Y-89484627D01*
X141962206Y-89448921D01*
X141900169Y-89363948D01*
X141849633Y-89271731D01*
X141810702Y-89172511D01*
X141795204Y-89112175D01*
X142426110Y-89112175D01*
X142426456Y-89160372D01*
X142428870Y-89203228D01*
X142433457Y-89236679D01*
X142453060Y-89306741D01*
X142486979Y-89382345D01*
X142532533Y-89451538D01*
X142589340Y-89514013D01*
X142657015Y-89569462D01*
X142735174Y-89617575D01*
X142823435Y-89658046D01*
X142921413Y-89690566D01*
X143028726Y-89714826D01*
X143062583Y-89719892D01*
X143116423Y-89725474D01*
X143177782Y-89729754D01*
X143243201Y-89732630D01*
X143309221Y-89734000D01*
X143372385Y-89733762D01*
X143429235Y-89731813D01*
X143476310Y-89728052D01*
X143583572Y-89711648D01*
X143688740Y-89686339D01*
X143784487Y-89653143D01*
X143870374Y-89612305D01*
X143945961Y-89564068D01*
X144010809Y-89508678D01*
X144064480Y-89446378D01*
X144106533Y-89377412D01*
X144116636Y-89356794D01*
X144133353Y-89319275D01*
X144145451Y-89285011D01*
X144153634Y-89250629D01*
X144158607Y-89212754D01*
X144161074Y-89168011D01*
X144161739Y-89113027D01*
X144161614Y-89086487D01*
X144160219Y-89036711D01*
X144156711Y-88995609D01*
X144150392Y-88959788D01*
X144140563Y-88925854D01*
X144126526Y-88890416D01*
X144107582Y-88850080D01*
X144077539Y-88797446D01*
X144028116Y-88734533D01*
X143968229Y-88680401D01*
X143928653Y-88651993D01*
X143844113Y-88602185D01*
X143752212Y-88561849D01*
X143652291Y-88530800D01*
X143543689Y-88508852D01*
X143425748Y-88495819D01*
X143297809Y-88491516D01*
X143290952Y-88491526D01*
X143193619Y-88494065D01*
X143105320Y-88501386D01*
X143022380Y-88513906D01*
X142941124Y-88532042D01*
X142872976Y-88551915D01*
X142778198Y-88588427D01*
X142693943Y-88632419D01*
X142620501Y-88683644D01*
X142558165Y-88741857D01*
X142507227Y-88806808D01*
X142467977Y-88878252D01*
X142440708Y-88955942D01*
X142436432Y-88976185D01*
X142431203Y-89016018D01*
X142427728Y-89062703D01*
X142426110Y-89112175D01*
X141795204Y-89112175D01*
X141783480Y-89066532D01*
X141768070Y-88954038D01*
X141764513Y-88888582D01*
X141767490Y-88765191D01*
X141782898Y-88643544D01*
X141810424Y-88525165D01*
X141849759Y-88411576D01*
X141900590Y-88304302D01*
X141936824Y-88243345D01*
X142004495Y-88150495D01*
X142083440Y-88063791D01*
X142172819Y-87983827D01*
X142271792Y-87911197D01*
X142379521Y-87846495D01*
X142495164Y-87790314D01*
X142617883Y-87743248D01*
X142746838Y-87705891D01*
X142789740Y-87695978D01*
X142921194Y-87672171D01*
X143060271Y-87655905D01*
X143204139Y-87647224D01*
X143349964Y-87646175D01*
X143494912Y-87652804D01*
G37*
G36*
X142886313Y-83152640D02*
G01*
X142946555Y-83152779D01*
X143084478Y-83153114D01*
X143209669Y-83153447D01*
X143322788Y-83153785D01*
X143424493Y-83154137D01*
X143515443Y-83154512D01*
X143596297Y-83154916D01*
X143667715Y-83155358D01*
X143730353Y-83155847D01*
X143784873Y-83156389D01*
X143831931Y-83156994D01*
X143872187Y-83157668D01*
X143906301Y-83158421D01*
X143934930Y-83159260D01*
X143958733Y-83160193D01*
X143978370Y-83161228D01*
X143994499Y-83162374D01*
X144007779Y-83163638D01*
X144018869Y-83165028D01*
X144028427Y-83166552D01*
X144086322Y-83178118D01*
X144153305Y-83194682D01*
X144215017Y-83213324D01*
X144267264Y-83232879D01*
X144291604Y-83243826D01*
X144355427Y-83277529D01*
X144419001Y-83317618D01*
X144479054Y-83361760D01*
X144532313Y-83407619D01*
X144575508Y-83452860D01*
X144639061Y-83538522D01*
X144694792Y-83635889D01*
X144740602Y-83742314D01*
X144776413Y-83857548D01*
X144802149Y-83981344D01*
X144817734Y-84113454D01*
X144823091Y-84253630D01*
X144821986Y-84320993D01*
X144811797Y-84459380D01*
X144791158Y-84591833D01*
X144760328Y-84717743D01*
X144719565Y-84836505D01*
X144669130Y-84947512D01*
X144609280Y-85050158D01*
X144540275Y-85143836D01*
X144462372Y-85227939D01*
X144375832Y-85301861D01*
X144350480Y-85320053D01*
X144317684Y-85341677D01*
X144282271Y-85363491D01*
X144246251Y-85384403D01*
X144211632Y-85403318D01*
X144180420Y-85419143D01*
X144154626Y-85430786D01*
X144136256Y-85437153D01*
X144127319Y-85437151D01*
X144125877Y-85434042D01*
X144120232Y-85419589D01*
X144110947Y-85394785D01*
X144098584Y-85361167D01*
X144083707Y-85320270D01*
X144066881Y-85273632D01*
X144048668Y-85222790D01*
X144032457Y-85177265D01*
X144015098Y-85128028D01*
X144001758Y-85089314D01*
X143992053Y-85059818D01*
X143985600Y-85038234D01*
X143982015Y-85023257D01*
X143980915Y-85013580D01*
X143981915Y-85007899D01*
X143984631Y-85004907D01*
X144043090Y-84967458D01*
X144132307Y-84900125D01*
X144209677Y-84827435D01*
X144275882Y-84748790D01*
X144320077Y-84681540D01*
X144356435Y-84607803D01*
X144384051Y-84527936D01*
X144403305Y-84440574D01*
X144414577Y-84344349D01*
X144418250Y-84237895D01*
X144418167Y-84222575D01*
X144412835Y-84120849D01*
X144399052Y-84029493D01*
X144376621Y-83948039D01*
X144345343Y-83876021D01*
X144305022Y-83812969D01*
X144255461Y-83758417D01*
X144196461Y-83711896D01*
X144141908Y-83679164D01*
X144074711Y-83649110D01*
X144003151Y-83628349D01*
X143924833Y-83616215D01*
X143837362Y-83612041D01*
X143811485Y-83612001D01*
X143780375Y-83612459D01*
X143757926Y-83613893D01*
X143741094Y-83616688D01*
X143726835Y-83621229D01*
X143712105Y-83627902D01*
X143690527Y-83640918D01*
X143663436Y-83667244D01*
X143641270Y-83703450D01*
X143622732Y-83751324D01*
X143621045Y-83756694D01*
X143615164Y-83776168D01*
X143609993Y-83795156D01*
X143605282Y-83815222D01*
X143600780Y-83837926D01*
X143596237Y-83864831D01*
X143591404Y-83897498D01*
X143586030Y-83937491D01*
X143579864Y-83986369D01*
X143572658Y-84045696D01*
X143564159Y-84117034D01*
X143561812Y-84136762D01*
X143545644Y-84267752D01*
X143529867Y-84386302D01*
X143514245Y-84493466D01*
X143498545Y-84590299D01*
X143482535Y-84677854D01*
X143465981Y-84757186D01*
X143448649Y-84829348D01*
X143430305Y-84895395D01*
X143410717Y-84956380D01*
X143389651Y-85013357D01*
X143366874Y-85067382D01*
X143342152Y-85119506D01*
X143339965Y-85123861D01*
X143307740Y-85183638D01*
X143275414Y-85234282D01*
X143240223Y-85279756D01*
X143199398Y-85324025D01*
X143176175Y-85346486D01*
X143106435Y-85403078D01*
X143031027Y-85448672D01*
X142949105Y-85483584D01*
X142859825Y-85508129D01*
X142762341Y-85522624D01*
X142655808Y-85527386D01*
X142649722Y-85527190D01*
X142576790Y-85524837D01*
X142467789Y-85511807D01*
X142366029Y-85487504D01*
X142270882Y-85451677D01*
X142181722Y-85404075D01*
X142097921Y-85344447D01*
X142018850Y-85272541D01*
X141983312Y-85233776D01*
X141922544Y-85153180D01*
X141869508Y-85063102D01*
X141824879Y-84965118D01*
X141789331Y-84860807D01*
X141763539Y-84751746D01*
X141748177Y-84639513D01*
X141742985Y-84546238D01*
X141744156Y-84463337D01*
X142158223Y-84463337D01*
X142159049Y-84514205D01*
X142161204Y-84559012D01*
X142164723Y-84593993D01*
X142182275Y-84681653D01*
X142208348Y-84763588D01*
X142242163Y-84837702D01*
X142283070Y-84902788D01*
X142330419Y-84957636D01*
X142383561Y-85001038D01*
X142384711Y-85001802D01*
X142441672Y-85031926D01*
X142506590Y-85053219D01*
X142576820Y-85065399D01*
X142649722Y-85068187D01*
X142722653Y-85061302D01*
X142792971Y-85044464D01*
X142803139Y-85040958D01*
X142857309Y-85014054D01*
X142908317Y-84974838D01*
X142955348Y-84924299D01*
X142997588Y-84863428D01*
X143034223Y-84793212D01*
X143064439Y-84714641D01*
X143065950Y-84709969D01*
X143080431Y-84663412D01*
X143092920Y-84619131D01*
X143103863Y-84574855D01*
X143113706Y-84528315D01*
X143122896Y-84477242D01*
X143131878Y-84419364D01*
X143141098Y-84352413D01*
X143151002Y-84274119D01*
X143166097Y-84156366D01*
X143181359Y-84048575D01*
X143196473Y-83953613D01*
X143211530Y-83871063D01*
X143226620Y-83800506D01*
X143241831Y-83741524D01*
X143257254Y-83693698D01*
X143272978Y-83656611D01*
X143289093Y-83629844D01*
X143306199Y-83607080D01*
X143044179Y-83609882D01*
X143043702Y-83609887D01*
X142976400Y-83610646D01*
X142921170Y-83611403D01*
X142876437Y-83612249D01*
X142840623Y-83613274D01*
X142812151Y-83614569D01*
X142789447Y-83616225D01*
X142770932Y-83618333D01*
X142755030Y-83620984D01*
X142740165Y-83624268D01*
X142724760Y-83628276D01*
X142667628Y-83645892D01*
X142574091Y-83685128D01*
X142489184Y-83734950D01*
X142412902Y-83795364D01*
X142345241Y-83866374D01*
X142286194Y-83947984D01*
X142235756Y-84040198D01*
X142218776Y-84078493D01*
X142197269Y-84138147D01*
X142180670Y-84201768D01*
X142167590Y-84274119D01*
X142167533Y-84274501D01*
X142163380Y-84311989D01*
X142160422Y-84358465D01*
X142158692Y-84410169D01*
X142158223Y-84463337D01*
X141744156Y-84463337D01*
X141744574Y-84433788D01*
X141754639Y-84325149D01*
X141772930Y-84222802D01*
X141799199Y-84129234D01*
X141799760Y-84127602D01*
X141819153Y-84078223D01*
X141844421Y-84023783D01*
X141873185Y-83968835D01*
X141903063Y-83917939D01*
X141931676Y-83875650D01*
X141933251Y-83873549D01*
X141964423Y-83835538D01*
X142001536Y-83795627D01*
X142042215Y-83755939D01*
X142084085Y-83718598D01*
X142124771Y-83685727D01*
X142161897Y-83659451D01*
X142193089Y-83641893D01*
X142206073Y-83632599D01*
X142211871Y-83620777D01*
X142211367Y-83617474D01*
X142208765Y-83614568D01*
X142202620Y-83612342D01*
X142191485Y-83610705D01*
X142173915Y-83609568D01*
X142148466Y-83608841D01*
X142113693Y-83608433D01*
X142068150Y-83608254D01*
X142010393Y-83608214D01*
X141808914Y-83608214D01*
X141808914Y-83379195D01*
X141808914Y-83150176D01*
X142886313Y-83152640D01*
G37*
G36*
X142893051Y-76759834D02*
G01*
X142979711Y-76760021D01*
X143114267Y-76760319D01*
X143236233Y-76760605D01*
X143346280Y-76760889D01*
X143445078Y-76761180D01*
X143533296Y-76761488D01*
X143611603Y-76761823D01*
X143680671Y-76762195D01*
X143741169Y-76762614D01*
X143793767Y-76763089D01*
X143839135Y-76763629D01*
X143877942Y-76764246D01*
X143910859Y-76764948D01*
X143938556Y-76765745D01*
X143961702Y-76766648D01*
X143980968Y-76767665D01*
X143997023Y-76768807D01*
X144010537Y-76770083D01*
X144022180Y-76771503D01*
X144032622Y-76773077D01*
X144042534Y-76774815D01*
X144052584Y-76776726D01*
X144116622Y-76790529D01*
X144198293Y-76813513D01*
X144272703Y-76841819D01*
X144343416Y-76876860D01*
X144413999Y-76920051D01*
X144422801Y-76925993D01*
X144504918Y-76990379D01*
X144577958Y-77064909D01*
X144641958Y-77149631D01*
X144696955Y-77244593D01*
X144742984Y-77349844D01*
X144750777Y-77372011D01*
X144767494Y-77429448D01*
X144783145Y-77496299D01*
X144797201Y-77569645D01*
X144809133Y-77646569D01*
X144818412Y-77724152D01*
X144824508Y-77799475D01*
X144826138Y-77862287D01*
X144822673Y-77953788D01*
X144813267Y-78050882D01*
X144798471Y-78150030D01*
X144778836Y-78247692D01*
X144754913Y-78340329D01*
X144727253Y-78424401D01*
X144693196Y-78506232D01*
X144636421Y-78613714D01*
X144569392Y-78712410D01*
X144492415Y-78801974D01*
X144405798Y-78882060D01*
X144309850Y-78952322D01*
X144204876Y-79012413D01*
X144182206Y-79023618D01*
X144157971Y-79035157D01*
X144140385Y-79043012D01*
X144132203Y-79045912D01*
X144131984Y-79045789D01*
X144128000Y-79038005D01*
X144120263Y-79019404D01*
X144109431Y-78991800D01*
X144096166Y-78957008D01*
X144081127Y-78916844D01*
X144064974Y-78873123D01*
X144048367Y-78827660D01*
X144031966Y-78782269D01*
X144016431Y-78738767D01*
X144002421Y-78698968D01*
X143990598Y-78664687D01*
X143981620Y-78637740D01*
X143976148Y-78619941D01*
X143974841Y-78613106D01*
X143974871Y-78613085D01*
X143981887Y-78608955D01*
X143997487Y-78600150D01*
X144018352Y-78588543D01*
X144050569Y-78569318D01*
X144120511Y-78517892D01*
X144190719Y-78453003D01*
X144215020Y-78427469D01*
X144272567Y-78358574D01*
X144319589Y-78287681D01*
X144356699Y-78213151D01*
X144384511Y-78133348D01*
X144403639Y-78046635D01*
X144414697Y-77951374D01*
X144418297Y-77845929D01*
X144418052Y-77818592D01*
X144411943Y-77718233D01*
X144397453Y-77628194D01*
X144374350Y-77547928D01*
X144342398Y-77476887D01*
X144301364Y-77414522D01*
X144251015Y-77360287D01*
X144191116Y-77313632D01*
X144140602Y-77283632D01*
X144074820Y-77254799D01*
X144003765Y-77234830D01*
X143925318Y-77223159D01*
X143837362Y-77219220D01*
X143802832Y-77219248D01*
X143772606Y-77219820D01*
X143750935Y-77221281D01*
X143735065Y-77223957D01*
X143722238Y-77228170D01*
X143709699Y-77234247D01*
X143706451Y-77236034D01*
X143682056Y-77253461D01*
X143660816Y-77276895D01*
X143642343Y-77307429D01*
X143626250Y-77346156D01*
X143612146Y-77394167D01*
X143599645Y-77452554D01*
X143588357Y-77522410D01*
X143577895Y-77604826D01*
X143567279Y-77696310D01*
X143551428Y-77827013D01*
X143536067Y-77945645D01*
X143520996Y-78053153D01*
X143506017Y-78150488D01*
X143490931Y-78238596D01*
X143475536Y-78318429D01*
X143459635Y-78390933D01*
X143443028Y-78457059D01*
X143425514Y-78517755D01*
X143406896Y-78573970D01*
X143386973Y-78626652D01*
X143365546Y-78676752D01*
X143342416Y-78725217D01*
X143313485Y-78779487D01*
X143281068Y-78831187D01*
X143245397Y-78878050D01*
X143203331Y-78924579D01*
X143151555Y-78973430D01*
X143080493Y-79026420D01*
X143003735Y-79068247D01*
X142919636Y-79099775D01*
X142826553Y-79121863D01*
X142807681Y-79124644D01*
X142765256Y-79128374D01*
X142714859Y-79130519D01*
X142660077Y-79131112D01*
X142637292Y-79130732D01*
X142604498Y-79130186D01*
X142551708Y-79127773D01*
X142505296Y-79123905D01*
X142468849Y-79118616D01*
X142378188Y-79096393D01*
X142279792Y-79060803D01*
X142189266Y-79014527D01*
X142105752Y-78957114D01*
X142028393Y-78888117D01*
X142012249Y-78871452D01*
X141942635Y-78787759D01*
X141882908Y-78695003D01*
X141833302Y-78593720D01*
X141794050Y-78484449D01*
X141765388Y-78367724D01*
X141747548Y-78244084D01*
X141745976Y-78225816D01*
X141743001Y-78152641D01*
X141744279Y-78073695D01*
X141745667Y-78052180D01*
X142158214Y-78052180D01*
X142158704Y-78106663D01*
X142160730Y-78155848D01*
X142164338Y-78195603D01*
X142170989Y-78236586D01*
X142189243Y-78310693D01*
X142214460Y-78382070D01*
X142245470Y-78448033D01*
X142281102Y-78505897D01*
X142320185Y-78552978D01*
X142337916Y-78569941D01*
X142392493Y-78611512D01*
X142452984Y-78642304D01*
X142520901Y-78662977D01*
X142597755Y-78674193D01*
X142637292Y-78675896D01*
X142712402Y-78670175D01*
X142782583Y-78652750D01*
X142846734Y-78624054D01*
X142903752Y-78584521D01*
X142952535Y-78534585D01*
X142972667Y-78508079D01*
X143004843Y-78457950D01*
X143033517Y-78401985D01*
X143059026Y-78339073D01*
X143081708Y-78268104D01*
X143101898Y-78187966D01*
X143119936Y-78097549D01*
X143136158Y-77995741D01*
X143150902Y-77881433D01*
X143151000Y-77880595D01*
X143164560Y-77771464D01*
X143178776Y-77670171D01*
X143193498Y-77577444D01*
X143208574Y-77494007D01*
X143223853Y-77420589D01*
X143239185Y-77357914D01*
X143254417Y-77306708D01*
X143269400Y-77267699D01*
X143283982Y-77241612D01*
X143285155Y-77240010D01*
X143294130Y-77226534D01*
X143297809Y-77218718D01*
X143297573Y-77218542D01*
X143288610Y-77217709D01*
X143267742Y-77217074D01*
X143236447Y-77216644D01*
X143196204Y-77216429D01*
X143148491Y-77216438D01*
X143094787Y-77216679D01*
X143036569Y-77217160D01*
X142985133Y-77217703D01*
X142926727Y-77218436D01*
X142879267Y-77219248D01*
X142841200Y-77220225D01*
X142810968Y-77221453D01*
X142787017Y-77223016D01*
X142767791Y-77225000D01*
X142751735Y-77227490D01*
X142737292Y-77230570D01*
X142722908Y-77234327D01*
X142631952Y-77265007D01*
X142544641Y-77307050D01*
X142465126Y-77359657D01*
X142392273Y-77423477D01*
X142376768Y-77439306D01*
X142312809Y-77514728D01*
X142260529Y-77595319D01*
X142219333Y-77682287D01*
X142188628Y-77776839D01*
X142167820Y-77880185D01*
X142165501Y-77898267D01*
X142161658Y-77943850D01*
X142159214Y-77996532D01*
X142158214Y-78052180D01*
X141745667Y-78052180D01*
X141749497Y-77992812D01*
X141758344Y-77913824D01*
X141770504Y-77840563D01*
X141785668Y-77776862D01*
X141796081Y-77744989D01*
X141815622Y-77695319D01*
X141839699Y-77641660D01*
X141866353Y-77588095D01*
X141893626Y-77538711D01*
X141919559Y-77497593D01*
X141934018Y-77477809D01*
X141966206Y-77438912D01*
X142003572Y-77398749D01*
X142043892Y-77359355D01*
X142084939Y-77322766D01*
X142124488Y-77291015D01*
X142160314Y-77266139D01*
X142190190Y-77250171D01*
X142205511Y-77240711D01*
X142211871Y-77228462D01*
X142211407Y-77225184D01*
X142208900Y-77222190D01*
X142202894Y-77219861D01*
X142191938Y-77218090D01*
X142174580Y-77216773D01*
X142149369Y-77215804D01*
X142114853Y-77215076D01*
X142069580Y-77214484D01*
X142012100Y-77213924D01*
X141812329Y-77212113D01*
X141810529Y-76984803D01*
X141808729Y-76757492D01*
X142893051Y-76759834D01*
G37*
G36*
X144786703Y-80053307D02*
G01*
X144786703Y-80275275D01*
X144551076Y-80275275D01*
X144315448Y-80275275D01*
X144315448Y-80297707D01*
X144315813Y-80305497D01*
X144321424Y-80320601D01*
X144336687Y-80332685D01*
X144357405Y-80345966D01*
X144389203Y-80368410D01*
X144426140Y-80395999D01*
X144465493Y-80426572D01*
X144504538Y-80457970D01*
X144540549Y-80488035D01*
X144570804Y-80514607D01*
X144592577Y-80535525D01*
X144644152Y-80595164D01*
X144695861Y-80668437D01*
X144739114Y-80745167D01*
X144771599Y-80821659D01*
X144774629Y-80830483D01*
X144800269Y-80924482D01*
X144817073Y-81026221D01*
X144825049Y-81133272D01*
X144824208Y-81243208D01*
X144814558Y-81353600D01*
X144796108Y-81462023D01*
X144768866Y-81566047D01*
X144735953Y-81657638D01*
X144683422Y-81768979D01*
X144619670Y-81873118D01*
X144545087Y-81969763D01*
X144460060Y-82058623D01*
X144364981Y-82139405D01*
X144260236Y-82211820D01*
X144146215Y-82275574D01*
X144023307Y-82330377D01*
X143891901Y-82375937D01*
X143752385Y-82411964D01*
X143605149Y-82438164D01*
X143588334Y-82440381D01*
X143556863Y-82443719D01*
X143522353Y-82446247D01*
X143482682Y-82448050D01*
X143435726Y-82449214D01*
X143379363Y-82449824D01*
X143321921Y-82449943D01*
X143311468Y-82449965D01*
X143257060Y-82449707D01*
X143181977Y-82448358D01*
X143116178Y-82445623D01*
X143057020Y-82441233D01*
X143001860Y-82434923D01*
X142948054Y-82426426D01*
X142892958Y-82415475D01*
X142833931Y-82401805D01*
X142742452Y-82376363D01*
X142618034Y-82331172D01*
X142500548Y-82275783D01*
X142390804Y-82210749D01*
X142289615Y-82136620D01*
X142197789Y-82053949D01*
X142116139Y-81963288D01*
X142045474Y-81865189D01*
X142011082Y-81806333D01*
X141971004Y-81724317D01*
X141935450Y-81636445D01*
X141906117Y-81546994D01*
X141884706Y-81460244D01*
X141875338Y-81407653D01*
X141863620Y-81308059D01*
X141858981Y-81207065D01*
X141860683Y-81132114D01*
X142274014Y-81132114D01*
X142275689Y-81198218D01*
X142280077Y-81260290D01*
X142287124Y-81313640D01*
X142299129Y-81371279D01*
X142327088Y-81462400D01*
X142365085Y-81545533D01*
X142413871Y-81622202D01*
X142474195Y-81693932D01*
X142480391Y-81700376D01*
X142556594Y-81769316D01*
X142642421Y-81829225D01*
X142738078Y-81880197D01*
X142843771Y-81922329D01*
X142959705Y-81955717D01*
X143086085Y-81980458D01*
X143099378Y-81982318D01*
X143144415Y-81986725D01*
X143198672Y-81989973D01*
X143258918Y-81992038D01*
X143321921Y-81992896D01*
X143384448Y-81992523D01*
X143443267Y-81990896D01*
X143495145Y-81987990D01*
X143536851Y-81983782D01*
X143641789Y-81966152D01*
X143758384Y-81938080D01*
X143866164Y-81902479D01*
X143964052Y-81859712D01*
X144050970Y-81810145D01*
X144090374Y-81783127D01*
X144171620Y-81717057D01*
X144240812Y-81644704D01*
X144298154Y-81565764D01*
X144343847Y-81479933D01*
X144378095Y-81386910D01*
X144401101Y-81286391D01*
X144405983Y-81246121D01*
X144409039Y-81194467D01*
X144409970Y-81137409D01*
X144408852Y-81078736D01*
X144405763Y-81022239D01*
X144400777Y-80971708D01*
X144393971Y-80930935D01*
X144377478Y-80868775D01*
X144341969Y-80776732D01*
X144294878Y-80691810D01*
X144236335Y-80614151D01*
X144166471Y-80543900D01*
X144085417Y-80481200D01*
X143993304Y-80426194D01*
X143890262Y-80379027D01*
X143830895Y-80356847D01*
X143749008Y-80331465D01*
X143665478Y-80312026D01*
X143577436Y-80298002D01*
X143482017Y-80288861D01*
X143376351Y-80284075D01*
X143333888Y-80283246D01*
X143253037Y-80283327D01*
X143180615Y-80286081D01*
X143113212Y-80291754D01*
X143047419Y-80300595D01*
X142979825Y-80312850D01*
X142887677Y-80335290D01*
X142785867Y-80369745D01*
X142690980Y-80412519D01*
X142604183Y-80462922D01*
X142526645Y-80520265D01*
X142459532Y-80583857D01*
X142404014Y-80653009D01*
X142393345Y-80669168D01*
X142356330Y-80736390D01*
X142324646Y-80811860D01*
X142299777Y-80891664D01*
X142283205Y-80971886D01*
X142279021Y-81006555D01*
X142275107Y-81066663D01*
X142274014Y-81132114D01*
X141860683Y-81132114D01*
X141861254Y-81106943D01*
X141870272Y-81009965D01*
X141885868Y-80918405D01*
X141907875Y-80834533D01*
X141936127Y-80760622D01*
X141954017Y-80725140D01*
X141985717Y-80671526D01*
X142022368Y-80617400D01*
X142060878Y-80567252D01*
X142098151Y-80525571D01*
X142100377Y-80523351D01*
X142125173Y-80500630D01*
X142158064Y-80472949D01*
X142196077Y-80442587D01*
X142236241Y-80411826D01*
X142275586Y-80382947D01*
X142311139Y-80358230D01*
X142339930Y-80339958D01*
X142344456Y-80337170D01*
X142358212Y-80324174D01*
X142362127Y-80307952D01*
X142362127Y-80288935D01*
X142018930Y-80289070D01*
X142015055Y-80289072D01*
X141945301Y-80289249D01*
X141878629Y-80289677D01*
X141816549Y-80290328D01*
X141760572Y-80291177D01*
X141712210Y-80292195D01*
X141672974Y-80293357D01*
X141644375Y-80294635D01*
X141627924Y-80296003D01*
X141535223Y-80314233D01*
X141449142Y-80342443D01*
X141372086Y-80380609D01*
X141303505Y-80429123D01*
X141242846Y-80488376D01*
X141189560Y-80558761D01*
X141143094Y-80640669D01*
X141130063Y-80667681D01*
X141108815Y-80715807D01*
X141092157Y-80761120D01*
X141078185Y-80809096D01*
X141064995Y-80865211D01*
X141053392Y-80932330D01*
X141045029Y-81016011D01*
X141041596Y-81104700D01*
X141043124Y-81194301D01*
X141049646Y-81280716D01*
X141061193Y-81359848D01*
X141063790Y-81373061D01*
X141086617Y-81462428D01*
X141117923Y-81545915D01*
X141158552Y-81624801D01*
X141209347Y-81700362D01*
X141271153Y-81773876D01*
X141344813Y-81846620D01*
X141431172Y-81919872D01*
X141448795Y-81934441D01*
X141467725Y-81951718D01*
X141479856Y-81964893D01*
X141483133Y-81971908D01*
X141481713Y-81974111D01*
X141473446Y-81986272D01*
X141458797Y-82007525D01*
X141438745Y-82036459D01*
X141414270Y-82071662D01*
X141386350Y-82111723D01*
X141355966Y-82155230D01*
X141232980Y-82331152D01*
X141215314Y-82319896D01*
X141187691Y-82301491D01*
X141120170Y-82250482D01*
X141052668Y-82191742D01*
X140988950Y-82128674D01*
X140932785Y-82064681D01*
X140906985Y-82031256D01*
X140877100Y-81989828D01*
X140846824Y-81945557D01*
X140818400Y-81901809D01*
X140794069Y-81861953D01*
X140776076Y-81829358D01*
X140736456Y-81739648D01*
X140702281Y-81637805D01*
X140674745Y-81527084D01*
X140654286Y-81409255D01*
X140641342Y-81286085D01*
X140636312Y-81184335D01*
X140637381Y-81036334D01*
X140648404Y-80892281D01*
X140669175Y-80753455D01*
X140699486Y-80621136D01*
X140739130Y-80496603D01*
X140787900Y-80381137D01*
X140824423Y-80312347D01*
X140886338Y-80218586D01*
X140957650Y-80133356D01*
X141037422Y-80057422D01*
X141124718Y-79991551D01*
X141218603Y-79936509D01*
X141318140Y-79893061D01*
X141422394Y-79861973D01*
X141429961Y-79860211D01*
X141443450Y-79857075D01*
X141456378Y-79854177D01*
X141469292Y-79851508D01*
X141482739Y-79849057D01*
X141497266Y-79846816D01*
X141513419Y-79844775D01*
X141531746Y-79842924D01*
X141552794Y-79841255D01*
X141577110Y-79839757D01*
X141605240Y-79838422D01*
X141637731Y-79837240D01*
X141675131Y-79836201D01*
X141717987Y-79835297D01*
X141766844Y-79834518D01*
X141822251Y-79833853D01*
X141884755Y-79833295D01*
X141954901Y-79832834D01*
X142033238Y-79832460D01*
X142120311Y-79832163D01*
X142216669Y-79831935D01*
X142322858Y-79831766D01*
X142439424Y-79831647D01*
X142566916Y-79831567D01*
X142705879Y-79831519D01*
X142856861Y-79831492D01*
X143020409Y-79831476D01*
X143197069Y-79831464D01*
X144786703Y-79831339D01*
X144786703Y-80053307D01*
G37*
%LPC*%
D12*
X182810000Y-54800000D03*
D13*
X184080000Y-54800000D03*
X185350000Y-54800000D03*
D14*
X151050000Y-75550000D03*
X148550000Y-75550000D03*
X154250000Y-58560000D03*
D15*
X154250000Y-50940000D03*
D14*
X182950000Y-93300000D03*
X182950000Y-95800000D03*
D16*
X200650000Y-107950000D03*
X201133274Y-106783274D03*
X201133274Y-109116726D03*
X202300000Y-106300000D03*
D17*
X202300000Y-107950000D03*
D16*
X202300000Y-109600000D03*
X203466726Y-106783274D03*
X203466726Y-109116726D03*
X203950000Y-107950000D03*
D18*
X187230000Y-85650000D03*
D19*
X184690000Y-85650000D03*
X182150000Y-85650000D03*
X179610000Y-85650000D03*
X177070000Y-85650000D03*
X174530000Y-85650000D03*
X171990000Y-85650000D03*
X169450000Y-85650000D03*
X166910000Y-85650000D03*
X164370000Y-85650000D03*
D16*
X135666726Y-108066726D03*
X136150000Y-106900000D03*
X136150000Y-109233452D03*
X137316726Y-106416726D03*
D17*
X137316726Y-108066726D03*
D16*
X137316726Y-109716726D03*
X138483452Y-106900000D03*
X138483452Y-109233452D03*
X138966726Y-108066726D03*
D14*
X185500000Y-65660000D03*
D15*
X185500000Y-58040000D03*
D14*
X154380000Y-96800000D03*
D15*
X162000000Y-96800000D03*
D14*
X148500000Y-72300000D03*
X151000000Y-72300000D03*
X202250000Y-72250000D03*
D15*
X194630000Y-72250000D03*
D14*
X160600000Y-93000000D03*
X158100000Y-93000000D03*
D20*
X149100000Y-106550000D03*
D21*
X145290000Y-106550000D03*
D14*
X179300000Y-50750000D03*
X176800000Y-50750000D03*
X192000000Y-93300000D03*
X192000000Y-95800000D03*
X160050000Y-81560000D03*
D15*
X160050000Y-73940000D03*
D22*
X182800000Y-74680000D03*
D23*
X182800000Y-77220000D03*
X182800000Y-79760000D03*
X182800000Y-82300000D03*
D14*
X148550000Y-69350000D03*
X151050000Y-69350000D03*
D24*
X200500000Y-55200000D03*
X190500000Y-55200000D03*
D14*
X186000000Y-93300000D03*
X186000000Y-95800000D03*
X153750000Y-107100000D03*
D15*
X153750000Y-99480000D03*
D14*
X160750000Y-107100000D03*
D15*
X160750000Y-99480000D03*
D25*
X137800000Y-60900000D03*
D26*
X137800000Y-58400000D03*
X137800000Y-55900000D03*
X137800000Y-53400000D03*
X137800000Y-50900000D03*
D14*
X195300000Y-103400000D03*
D15*
X195300000Y-95780000D03*
D14*
X157200000Y-107100000D03*
D15*
X157200000Y-99480000D03*
D27*
X179250000Y-65150000D03*
D28*
X179250000Y-62610000D03*
X179250000Y-60070000D03*
X179250000Y-57530000D03*
X179250000Y-54990000D03*
D14*
X151050000Y-78650000D03*
X148550000Y-78650000D03*
X158750000Y-58660000D03*
D15*
X158750000Y-51040000D03*
D14*
X180190000Y-68600000D03*
D15*
X187810000Y-68600000D03*
D14*
X159950000Y-69550000D03*
X157450000Y-69550000D03*
D29*
X139550000Y-64950000D03*
X139550000Y-87550000D03*
D14*
X167200000Y-97550000D03*
X164700000Y-97550000D03*
D30*
X176650000Y-105700000D03*
D31*
X180650000Y-105700000D03*
X184650000Y-105700000D03*
D14*
X148550000Y-63450000D03*
X151050000Y-63450000D03*
X148600000Y-60550000D03*
X151100000Y-60550000D03*
X156200000Y-81560000D03*
D15*
X156200000Y-73940000D03*
D14*
X173450000Y-90150000D03*
X173450000Y-92650000D03*
X170040000Y-98400000D03*
D15*
X177660000Y-98400000D03*
D14*
X188950000Y-93300000D03*
X188950000Y-95800000D03*
X182600000Y-63150000D03*
X182600000Y-65650000D03*
D16*
X200700000Y-45450000D03*
X201183274Y-44283274D03*
X201183274Y-46616726D03*
X202350000Y-43800000D03*
D17*
X202350000Y-45450000D03*
D16*
X202350000Y-47100000D03*
X203516726Y-44283274D03*
X203516726Y-46616726D03*
X204000000Y-45450000D03*
D18*
X153460000Y-46650000D03*
D19*
X156000000Y-46650000D03*
X158540000Y-46650000D03*
X161080000Y-46650000D03*
X163620000Y-46650000D03*
X166160000Y-46650000D03*
X168700000Y-46650000D03*
X171240000Y-46650000D03*
X173780000Y-46650000D03*
X176320000Y-46650000D03*
D14*
X162950000Y-51040000D03*
D15*
X162950000Y-58660000D03*
D14*
X159950000Y-66850000D03*
X157450000Y-66850000D03*
X148650000Y-57700000D03*
X151150000Y-57700000D03*
X176450000Y-90200000D03*
X176450000Y-92700000D03*
X190550000Y-71960000D03*
D15*
X190550000Y-64340000D03*
D14*
X203350000Y-103420000D03*
D15*
X203350000Y-95800000D03*
D16*
X135600000Y-45350000D03*
X136083274Y-44183274D03*
X136083274Y-46516726D03*
X137250000Y-43700000D03*
D17*
X137250000Y-45350000D03*
D16*
X137250000Y-47000000D03*
X138416726Y-44183274D03*
X138416726Y-46516726D03*
X138900000Y-45350000D03*
D14*
X167060000Y-89750000D03*
D15*
X159440000Y-89750000D03*
D14*
X148550000Y-66400000D03*
X151050000Y-66400000D03*
%LPD*%
M02*
