G04 #@! TF.GenerationSoftware,KiCad,Pcbnew,8.0.8*
G04 #@! TF.CreationDate,2025-04-14T11:12:42+01:00*
G04 #@! TF.ProjectId,Bat-mon_v1-Sensor Shield,4261742d-6d6f-46e5-9f76-312d53656e73,rev?*
G04 #@! TF.SameCoordinates,Original*
G04 #@! TF.FileFunction,Legend,Bot*
G04 #@! TF.FilePolarity,Positive*
%FSLAX46Y46*%
G04 Gerber Fmt 4.6, Leading zero omitted, Abs format (unit mm)*
G04 Created by KiCad (PCBNEW 8.0.8) date 2025-04-14 11:12:42*
%MOMM*%
%LPD*%
G01*
G04 APERTURE LIST*
%ADD10C,0.200000*%
%ADD11C,0.000000*%
%ADD12C,0.700000*%
%ADD13C,4.400000*%
%ADD14R,1.650000X1.650000*%
%ADD15C,1.650000*%
G04 APERTURE END LIST*
D10*
X83023521Y-48103006D02*
X83071140Y-48245863D01*
X83071140Y-48245863D02*
X83118759Y-48293482D01*
X83118759Y-48293482D02*
X83213997Y-48341101D01*
X83213997Y-48341101D02*
X83356854Y-48341101D01*
X83356854Y-48341101D02*
X83452092Y-48293482D01*
X83452092Y-48293482D02*
X83499712Y-48245863D01*
X83499712Y-48245863D02*
X83547331Y-48150625D01*
X83547331Y-48150625D02*
X83547331Y-47769673D01*
X83547331Y-47769673D02*
X82547331Y-47769673D01*
X82547331Y-47769673D02*
X82547331Y-48103006D01*
X82547331Y-48103006D02*
X82594950Y-48198244D01*
X82594950Y-48198244D02*
X82642569Y-48245863D01*
X82642569Y-48245863D02*
X82737807Y-48293482D01*
X82737807Y-48293482D02*
X82833045Y-48293482D01*
X82833045Y-48293482D02*
X82928283Y-48245863D01*
X82928283Y-48245863D02*
X82975902Y-48198244D01*
X82975902Y-48198244D02*
X83023521Y-48103006D01*
X83023521Y-48103006D02*
X83023521Y-47769673D01*
X83261616Y-48722054D02*
X83261616Y-49198244D01*
X83547331Y-48626816D02*
X82547331Y-48960149D01*
X82547331Y-48960149D02*
X83547331Y-49293482D01*
X82547331Y-49483959D02*
X82547331Y-50055387D01*
X83547331Y-49769673D02*
X82547331Y-49769673D01*
X83166378Y-50388721D02*
X83166378Y-51150626D01*
X83547331Y-51626816D02*
X82547331Y-51626816D01*
X82547331Y-51626816D02*
X83261616Y-51960149D01*
X83261616Y-51960149D02*
X82547331Y-52293482D01*
X82547331Y-52293482D02*
X83547331Y-52293482D01*
X82547331Y-52960149D02*
X82547331Y-53150625D01*
X82547331Y-53150625D02*
X82594950Y-53245863D01*
X82594950Y-53245863D02*
X82690188Y-53341101D01*
X82690188Y-53341101D02*
X82880664Y-53388720D01*
X82880664Y-53388720D02*
X83213997Y-53388720D01*
X83213997Y-53388720D02*
X83404473Y-53341101D01*
X83404473Y-53341101D02*
X83499712Y-53245863D01*
X83499712Y-53245863D02*
X83547331Y-53150625D01*
X83547331Y-53150625D02*
X83547331Y-52960149D01*
X83547331Y-52960149D02*
X83499712Y-52864911D01*
X83499712Y-52864911D02*
X83404473Y-52769673D01*
X83404473Y-52769673D02*
X83213997Y-52722054D01*
X83213997Y-52722054D02*
X82880664Y-52722054D01*
X82880664Y-52722054D02*
X82690188Y-52769673D01*
X82690188Y-52769673D02*
X82594950Y-52864911D01*
X82594950Y-52864911D02*
X82547331Y-52960149D01*
X83547331Y-53817292D02*
X82547331Y-53817292D01*
X82547331Y-53817292D02*
X83547331Y-54388720D01*
X83547331Y-54388720D02*
X82547331Y-54388720D01*
X82880664Y-55531578D02*
X83547331Y-55769673D01*
X83547331Y-55769673D02*
X82880664Y-56007768D01*
X83547331Y-56912530D02*
X83547331Y-56341102D01*
X83547331Y-56626816D02*
X82547331Y-56626816D01*
X82547331Y-56626816D02*
X82690188Y-56531578D01*
X82690188Y-56531578D02*
X82785426Y-56436340D01*
X82785426Y-56436340D02*
X82833045Y-56341102D01*
X85157275Y-47769673D02*
X84157275Y-47769673D01*
X84157275Y-47769673D02*
X84157275Y-48007768D01*
X84157275Y-48007768D02*
X84204894Y-48150625D01*
X84204894Y-48150625D02*
X84300132Y-48245863D01*
X84300132Y-48245863D02*
X84395370Y-48293482D01*
X84395370Y-48293482D02*
X84585846Y-48341101D01*
X84585846Y-48341101D02*
X84728703Y-48341101D01*
X84728703Y-48341101D02*
X84919179Y-48293482D01*
X84919179Y-48293482D02*
X85014417Y-48245863D01*
X85014417Y-48245863D02*
X85109656Y-48150625D01*
X85109656Y-48150625D02*
X85157275Y-48007768D01*
X85157275Y-48007768D02*
X85157275Y-47769673D01*
X85109656Y-49150625D02*
X85157275Y-49055387D01*
X85157275Y-49055387D02*
X85157275Y-48864911D01*
X85157275Y-48864911D02*
X85109656Y-48769673D01*
X85109656Y-48769673D02*
X85014417Y-48722054D01*
X85014417Y-48722054D02*
X84633465Y-48722054D01*
X84633465Y-48722054D02*
X84538227Y-48769673D01*
X84538227Y-48769673D02*
X84490608Y-48864911D01*
X84490608Y-48864911D02*
X84490608Y-49055387D01*
X84490608Y-49055387D02*
X84538227Y-49150625D01*
X84538227Y-49150625D02*
X84633465Y-49198244D01*
X84633465Y-49198244D02*
X84728703Y-49198244D01*
X84728703Y-49198244D02*
X84823941Y-48722054D01*
X85109656Y-49579197D02*
X85157275Y-49674435D01*
X85157275Y-49674435D02*
X85157275Y-49864911D01*
X85157275Y-49864911D02*
X85109656Y-49960149D01*
X85109656Y-49960149D02*
X85014417Y-50007768D01*
X85014417Y-50007768D02*
X84966798Y-50007768D01*
X84966798Y-50007768D02*
X84871560Y-49960149D01*
X84871560Y-49960149D02*
X84823941Y-49864911D01*
X84823941Y-49864911D02*
X84823941Y-49722054D01*
X84823941Y-49722054D02*
X84776322Y-49626816D01*
X84776322Y-49626816D02*
X84681084Y-49579197D01*
X84681084Y-49579197D02*
X84633465Y-49579197D01*
X84633465Y-49579197D02*
X84538227Y-49626816D01*
X84538227Y-49626816D02*
X84490608Y-49722054D01*
X84490608Y-49722054D02*
X84490608Y-49864911D01*
X84490608Y-49864911D02*
X84538227Y-49960149D01*
X85157275Y-50436340D02*
X84490608Y-50436340D01*
X84157275Y-50436340D02*
X84204894Y-50388721D01*
X84204894Y-50388721D02*
X84252513Y-50436340D01*
X84252513Y-50436340D02*
X84204894Y-50483959D01*
X84204894Y-50483959D02*
X84157275Y-50436340D01*
X84157275Y-50436340D02*
X84252513Y-50436340D01*
X84490608Y-51341101D02*
X85300132Y-51341101D01*
X85300132Y-51341101D02*
X85395370Y-51293482D01*
X85395370Y-51293482D02*
X85442989Y-51245863D01*
X85442989Y-51245863D02*
X85490608Y-51150625D01*
X85490608Y-51150625D02*
X85490608Y-51007768D01*
X85490608Y-51007768D02*
X85442989Y-50912530D01*
X85109656Y-51341101D02*
X85157275Y-51245863D01*
X85157275Y-51245863D02*
X85157275Y-51055387D01*
X85157275Y-51055387D02*
X85109656Y-50960149D01*
X85109656Y-50960149D02*
X85062036Y-50912530D01*
X85062036Y-50912530D02*
X84966798Y-50864911D01*
X84966798Y-50864911D02*
X84681084Y-50864911D01*
X84681084Y-50864911D02*
X84585846Y-50912530D01*
X84585846Y-50912530D02*
X84538227Y-50960149D01*
X84538227Y-50960149D02*
X84490608Y-51055387D01*
X84490608Y-51055387D02*
X84490608Y-51245863D01*
X84490608Y-51245863D02*
X84538227Y-51341101D01*
X84490608Y-51817292D02*
X85157275Y-51817292D01*
X84585846Y-51817292D02*
X84538227Y-51864911D01*
X84538227Y-51864911D02*
X84490608Y-51960149D01*
X84490608Y-51960149D02*
X84490608Y-52103006D01*
X84490608Y-52103006D02*
X84538227Y-52198244D01*
X84538227Y-52198244D02*
X84633465Y-52245863D01*
X84633465Y-52245863D02*
X85157275Y-52245863D01*
X85109656Y-53103006D02*
X85157275Y-53007768D01*
X85157275Y-53007768D02*
X85157275Y-52817292D01*
X85157275Y-52817292D02*
X85109656Y-52722054D01*
X85109656Y-52722054D02*
X85014417Y-52674435D01*
X85014417Y-52674435D02*
X84633465Y-52674435D01*
X84633465Y-52674435D02*
X84538227Y-52722054D01*
X84538227Y-52722054D02*
X84490608Y-52817292D01*
X84490608Y-52817292D02*
X84490608Y-53007768D01*
X84490608Y-53007768D02*
X84538227Y-53103006D01*
X84538227Y-53103006D02*
X84633465Y-53150625D01*
X84633465Y-53150625D02*
X84728703Y-53150625D01*
X84728703Y-53150625D02*
X84823941Y-52674435D01*
X85157275Y-54007768D02*
X84157275Y-54007768D01*
X85109656Y-54007768D02*
X85157275Y-53912530D01*
X85157275Y-53912530D02*
X85157275Y-53722054D01*
X85157275Y-53722054D02*
X85109656Y-53626816D01*
X85109656Y-53626816D02*
X85062036Y-53579197D01*
X85062036Y-53579197D02*
X84966798Y-53531578D01*
X84966798Y-53531578D02*
X84681084Y-53531578D01*
X84681084Y-53531578D02*
X84585846Y-53579197D01*
X84585846Y-53579197D02*
X84538227Y-53626816D01*
X84538227Y-53626816D02*
X84490608Y-53722054D01*
X84490608Y-53722054D02*
X84490608Y-53912530D01*
X84490608Y-53912530D02*
X84538227Y-54007768D01*
X84681084Y-55864911D02*
X84633465Y-55817292D01*
X84633465Y-55817292D02*
X84585846Y-55722054D01*
X84585846Y-55722054D02*
X84585846Y-55626816D01*
X84585846Y-55626816D02*
X84633465Y-55531578D01*
X84633465Y-55531578D02*
X84681084Y-55483959D01*
X84681084Y-55483959D02*
X84776322Y-55436340D01*
X84776322Y-55436340D02*
X84871560Y-55436340D01*
X84871560Y-55436340D02*
X84966798Y-55483959D01*
X84966798Y-55483959D02*
X85014417Y-55531578D01*
X85014417Y-55531578D02*
X85062036Y-55626816D01*
X85062036Y-55626816D02*
X85062036Y-55722054D01*
X85062036Y-55722054D02*
X85014417Y-55817292D01*
X85014417Y-55817292D02*
X84966798Y-55864911D01*
X84585846Y-55864911D02*
X84966798Y-55864911D01*
X84966798Y-55864911D02*
X85014417Y-55912530D01*
X85014417Y-55912530D02*
X85014417Y-55960149D01*
X85014417Y-55960149D02*
X84966798Y-56055388D01*
X84966798Y-56055388D02*
X84871560Y-56103007D01*
X84871560Y-56103007D02*
X84633465Y-56103007D01*
X84633465Y-56103007D02*
X84490608Y-56007769D01*
X84490608Y-56007769D02*
X84395370Y-55864911D01*
X84395370Y-55864911D02*
X84347751Y-55674435D01*
X84347751Y-55674435D02*
X84395370Y-55483959D01*
X84395370Y-55483959D02*
X84490608Y-55341102D01*
X84490608Y-55341102D02*
X84633465Y-55245864D01*
X84633465Y-55245864D02*
X84823941Y-55198245D01*
X84823941Y-55198245D02*
X85014417Y-55245864D01*
X85014417Y-55245864D02*
X85157275Y-55341102D01*
X85157275Y-55341102D02*
X85252513Y-55483959D01*
X85252513Y-55483959D02*
X85300132Y-55674435D01*
X85300132Y-55674435D02*
X85252513Y-55864911D01*
X85252513Y-55864911D02*
X85157275Y-56007769D01*
X85767219Y-47960149D02*
X85767219Y-48055387D01*
X85767219Y-48055387D02*
X85814838Y-48150625D01*
X85814838Y-48150625D02*
X85862457Y-48198244D01*
X85862457Y-48198244D02*
X85957695Y-48245863D01*
X85957695Y-48245863D02*
X86148171Y-48293482D01*
X86148171Y-48293482D02*
X86386266Y-48293482D01*
X86386266Y-48293482D02*
X86576742Y-48245863D01*
X86576742Y-48245863D02*
X86671980Y-48198244D01*
X86671980Y-48198244D02*
X86719600Y-48150625D01*
X86719600Y-48150625D02*
X86767219Y-48055387D01*
X86767219Y-48055387D02*
X86767219Y-47960149D01*
X86767219Y-47960149D02*
X86719600Y-47864911D01*
X86719600Y-47864911D02*
X86671980Y-47817292D01*
X86671980Y-47817292D02*
X86576742Y-47769673D01*
X86576742Y-47769673D02*
X86386266Y-47722054D01*
X86386266Y-47722054D02*
X86148171Y-47722054D01*
X86148171Y-47722054D02*
X85957695Y-47769673D01*
X85957695Y-47769673D02*
X85862457Y-47817292D01*
X85862457Y-47817292D02*
X85814838Y-47864911D01*
X85814838Y-47864911D02*
X85767219Y-47960149D01*
X85767219Y-48626816D02*
X85767219Y-49245863D01*
X85767219Y-49245863D02*
X86148171Y-48912530D01*
X86148171Y-48912530D02*
X86148171Y-49055387D01*
X86148171Y-49055387D02*
X86195790Y-49150625D01*
X86195790Y-49150625D02*
X86243409Y-49198244D01*
X86243409Y-49198244D02*
X86338647Y-49245863D01*
X86338647Y-49245863D02*
X86576742Y-49245863D01*
X86576742Y-49245863D02*
X86671980Y-49198244D01*
X86671980Y-49198244D02*
X86719600Y-49150625D01*
X86719600Y-49150625D02*
X86767219Y-49055387D01*
X86767219Y-49055387D02*
X86767219Y-48769673D01*
X86767219Y-48769673D02*
X86719600Y-48674435D01*
X86719600Y-48674435D02*
X86671980Y-48626816D01*
X85719600Y-50388720D02*
X87005314Y-49531578D01*
X85862457Y-50674435D02*
X85814838Y-50722054D01*
X85814838Y-50722054D02*
X85767219Y-50817292D01*
X85767219Y-50817292D02*
X85767219Y-51055387D01*
X85767219Y-51055387D02*
X85814838Y-51150625D01*
X85814838Y-51150625D02*
X85862457Y-51198244D01*
X85862457Y-51198244D02*
X85957695Y-51245863D01*
X85957695Y-51245863D02*
X86052933Y-51245863D01*
X86052933Y-51245863D02*
X86195790Y-51198244D01*
X86195790Y-51198244D02*
X86767219Y-50626816D01*
X86767219Y-50626816D02*
X86767219Y-51245863D01*
X85767219Y-51864911D02*
X85767219Y-51960149D01*
X85767219Y-51960149D02*
X85814838Y-52055387D01*
X85814838Y-52055387D02*
X85862457Y-52103006D01*
X85862457Y-52103006D02*
X85957695Y-52150625D01*
X85957695Y-52150625D02*
X86148171Y-52198244D01*
X86148171Y-52198244D02*
X86386266Y-52198244D01*
X86386266Y-52198244D02*
X86576742Y-52150625D01*
X86576742Y-52150625D02*
X86671980Y-52103006D01*
X86671980Y-52103006D02*
X86719600Y-52055387D01*
X86719600Y-52055387D02*
X86767219Y-51960149D01*
X86767219Y-51960149D02*
X86767219Y-51864911D01*
X86767219Y-51864911D02*
X86719600Y-51769673D01*
X86719600Y-51769673D02*
X86671980Y-51722054D01*
X86671980Y-51722054D02*
X86576742Y-51674435D01*
X86576742Y-51674435D02*
X86386266Y-51626816D01*
X86386266Y-51626816D02*
X86148171Y-51626816D01*
X86148171Y-51626816D02*
X85957695Y-51674435D01*
X85957695Y-51674435D02*
X85862457Y-51722054D01*
X85862457Y-51722054D02*
X85814838Y-51769673D01*
X85814838Y-51769673D02*
X85767219Y-51864911D01*
X85862457Y-52579197D02*
X85814838Y-52626816D01*
X85814838Y-52626816D02*
X85767219Y-52722054D01*
X85767219Y-52722054D02*
X85767219Y-52960149D01*
X85767219Y-52960149D02*
X85814838Y-53055387D01*
X85814838Y-53055387D02*
X85862457Y-53103006D01*
X85862457Y-53103006D02*
X85957695Y-53150625D01*
X85957695Y-53150625D02*
X86052933Y-53150625D01*
X86052933Y-53150625D02*
X86195790Y-53103006D01*
X86195790Y-53103006D02*
X86767219Y-52531578D01*
X86767219Y-52531578D02*
X86767219Y-53150625D01*
X85767219Y-54055387D02*
X85767219Y-53579197D01*
X85767219Y-53579197D02*
X86243409Y-53531578D01*
X86243409Y-53531578D02*
X86195790Y-53579197D01*
X86195790Y-53579197D02*
X86148171Y-53674435D01*
X86148171Y-53674435D02*
X86148171Y-53912530D01*
X86148171Y-53912530D02*
X86195790Y-54007768D01*
X86195790Y-54007768D02*
X86243409Y-54055387D01*
X86243409Y-54055387D02*
X86338647Y-54103006D01*
X86338647Y-54103006D02*
X86576742Y-54103006D01*
X86576742Y-54103006D02*
X86671980Y-54055387D01*
X86671980Y-54055387D02*
X86719600Y-54007768D01*
X86719600Y-54007768D02*
X86767219Y-53912530D01*
X86767219Y-53912530D02*
X86767219Y-53674435D01*
X86767219Y-53674435D02*
X86719600Y-53579197D01*
X86719600Y-53579197D02*
X86671980Y-53531578D01*
D11*
G36*
X84653105Y-64512293D02*
G01*
X84721759Y-64512326D01*
X84788256Y-64512379D01*
X84852282Y-64512450D01*
X84913527Y-64512539D01*
X84971681Y-64512643D01*
X85026430Y-64512764D01*
X85077464Y-64512898D01*
X85124472Y-64513047D01*
X85167142Y-64513207D01*
X85205162Y-64513380D01*
X85238222Y-64513562D01*
X85266010Y-64513755D01*
X85288215Y-64513956D01*
X85304525Y-64514165D01*
X85314629Y-64514380D01*
X85318215Y-64514601D01*
X85318578Y-64516461D01*
X85319045Y-64524412D01*
X85319410Y-64537830D01*
X85319661Y-64555899D01*
X85319790Y-64577801D01*
X85319785Y-64602720D01*
X85319637Y-64629839D01*
X85318739Y-64742754D01*
X84575245Y-64743616D01*
X83831751Y-64744477D01*
X83831751Y-64628378D01*
X83831751Y-64512280D01*
X84573822Y-64512280D01*
X84582604Y-64512280D01*
X84653105Y-64512293D01*
G37*
G36*
X83444737Y-64468517D02*
G01*
X83472202Y-64474406D01*
X83498275Y-64485264D01*
X83522228Y-64500770D01*
X83543333Y-64520604D01*
X83560861Y-64544444D01*
X83574083Y-64571969D01*
X83582270Y-64602859D01*
X83584480Y-64618290D01*
X83585194Y-64632524D01*
X83583975Y-64646727D01*
X83580743Y-64664163D01*
X83579521Y-64669603D01*
X83570232Y-64698019D01*
X83556346Y-64722833D01*
X83536783Y-64746054D01*
X83515918Y-64764611D01*
X83492471Y-64779062D01*
X83467234Y-64787871D01*
X83438912Y-64791638D01*
X83431289Y-64791933D01*
X83414711Y-64791723D01*
X83400513Y-64789827D01*
X83385555Y-64785908D01*
X83379092Y-64783851D01*
X83364329Y-64778217D01*
X83351955Y-64771454D01*
X83339724Y-64762183D01*
X83325388Y-64749027D01*
X83313238Y-64736343D01*
X83295145Y-64711527D01*
X83283146Y-64684850D01*
X83276878Y-64655386D01*
X83275980Y-64622208D01*
X83277443Y-64605260D01*
X83284620Y-64573013D01*
X83297520Y-64544371D01*
X83316309Y-64519021D01*
X83341147Y-64496650D01*
X83361282Y-64483875D01*
X83388549Y-64472930D01*
X83416610Y-64467918D01*
X83444737Y-64468517D01*
G37*
G36*
X85130446Y-58935895D02*
G01*
X85152361Y-58937842D01*
X85170211Y-58941084D01*
X85172261Y-58941625D01*
X85207492Y-58954531D01*
X85240158Y-58973212D01*
X85269567Y-58996914D01*
X85295029Y-59024884D01*
X85315852Y-59056371D01*
X85331345Y-59090622D01*
X85340817Y-59126883D01*
X85343624Y-59152870D01*
X85342187Y-59191658D01*
X85334182Y-59230179D01*
X85319718Y-59267685D01*
X85314043Y-59278916D01*
X85306992Y-59290734D01*
X85298661Y-59301927D01*
X85287760Y-59314197D01*
X85272996Y-59329244D01*
X85267502Y-59334595D01*
X85238965Y-59358848D01*
X85210234Y-59376908D01*
X85180238Y-59389236D01*
X85147906Y-59396294D01*
X85112165Y-59398545D01*
X85105056Y-59398466D01*
X85070046Y-59395337D01*
X85038241Y-59387312D01*
X85008568Y-59373929D01*
X84979956Y-59354727D01*
X84951335Y-59329244D01*
X84939115Y-59316868D01*
X84927542Y-59304167D01*
X84918793Y-59292872D01*
X84911574Y-59281279D01*
X84904591Y-59267685D01*
X84893565Y-59241021D01*
X84883755Y-59203034D01*
X84880520Y-59164996D01*
X84883756Y-59127445D01*
X84893353Y-59090918D01*
X84909207Y-59055954D01*
X84931209Y-59023090D01*
X84959253Y-58992864D01*
X84970624Y-58983129D01*
X84998017Y-58964400D01*
X85027791Y-58949432D01*
X85057534Y-58939534D01*
X85064504Y-58938148D01*
X85084098Y-58936015D01*
X85106885Y-58935275D01*
X85130446Y-58935895D01*
G37*
G36*
X85319638Y-65274553D02*
G01*
X85318739Y-65388083D01*
X84832181Y-65389928D01*
X84800950Y-65390047D01*
X84736652Y-65390294D01*
X84678671Y-65390526D01*
X84626655Y-65390747D01*
X84580253Y-65390966D01*
X84539113Y-65391187D01*
X84502881Y-65391418D01*
X84471207Y-65391663D01*
X84443738Y-65391930D01*
X84420122Y-65392225D01*
X84400007Y-65392554D01*
X84383041Y-65392922D01*
X84368871Y-65393338D01*
X84357146Y-65393805D01*
X84347514Y-65394331D01*
X84339622Y-65394923D01*
X84333119Y-65395585D01*
X84327652Y-65396325D01*
X84322869Y-65397148D01*
X84318418Y-65398061D01*
X84313947Y-65399070D01*
X84287553Y-65405681D01*
X84247405Y-65418398D01*
X84212080Y-65433537D01*
X84180417Y-65451711D01*
X84151251Y-65473535D01*
X84123419Y-65499622D01*
X84096986Y-65529284D01*
X84073251Y-65562347D01*
X84054317Y-65597255D01*
X84039178Y-65635630D01*
X84033680Y-65652691D01*
X84029023Y-65669268D01*
X84025682Y-65684877D01*
X84023446Y-65701075D01*
X84022107Y-65719422D01*
X84021455Y-65741475D01*
X84021281Y-65768793D01*
X84021295Y-65780605D01*
X84021478Y-65802093D01*
X84021965Y-65818806D01*
X84022871Y-65832155D01*
X84024313Y-65843549D01*
X84026405Y-65854395D01*
X84029263Y-65866104D01*
X84033964Y-65882430D01*
X84048890Y-65921291D01*
X84068057Y-65957459D01*
X84090726Y-65989657D01*
X84116162Y-66016611D01*
X84135543Y-66032681D01*
X84169568Y-66055706D01*
X84205562Y-66074431D01*
X84241552Y-66087738D01*
X84246441Y-66089170D01*
X84253707Y-66091335D01*
X84260379Y-66093291D01*
X84266811Y-66095051D01*
X84273356Y-66096625D01*
X84280366Y-66098027D01*
X84288197Y-66099267D01*
X84297200Y-66100357D01*
X84307731Y-66101308D01*
X84320141Y-66102134D01*
X84334785Y-66102844D01*
X84352017Y-66103452D01*
X84372188Y-66103968D01*
X84395654Y-66104405D01*
X84422768Y-66104774D01*
X84453882Y-66105086D01*
X84489351Y-66105354D01*
X84529528Y-66105590D01*
X84574766Y-66105804D01*
X84625419Y-66106009D01*
X84681840Y-66106216D01*
X84744383Y-66106438D01*
X84813402Y-66106685D01*
X85318739Y-66108529D01*
X85318739Y-66222913D01*
X85318739Y-66337297D01*
X84815109Y-66337297D01*
X84757916Y-66337296D01*
X84692518Y-66337289D01*
X84633291Y-66337264D01*
X84579871Y-66337213D01*
X84531891Y-66337124D01*
X84488989Y-66336989D01*
X84450797Y-66336796D01*
X84416953Y-66336535D01*
X84387090Y-66336198D01*
X84360844Y-66335772D01*
X84337850Y-66335249D01*
X84317744Y-66334619D01*
X84300159Y-66333871D01*
X84284732Y-66332994D01*
X84271097Y-66331980D01*
X84258890Y-66330819D01*
X84247745Y-66329498D01*
X84237298Y-66328010D01*
X84227184Y-66326344D01*
X84217038Y-66324489D01*
X84206494Y-66322436D01*
X84195189Y-66320175D01*
X84192157Y-66319559D01*
X84135824Y-66305261D01*
X84084343Y-66286419D01*
X84037306Y-66262831D01*
X83994307Y-66234294D01*
X83954939Y-66200605D01*
X83952043Y-66197786D01*
X83916131Y-66157772D01*
X83885312Y-66113471D01*
X83859715Y-66065266D01*
X83839464Y-66013537D01*
X83824689Y-65958668D01*
X83815517Y-65901040D01*
X83812074Y-65841035D01*
X83814488Y-65779036D01*
X83818371Y-65743228D01*
X83827295Y-65692506D01*
X83840105Y-65646381D01*
X83857159Y-65604015D01*
X83878814Y-65564570D01*
X83905430Y-65527208D01*
X83937363Y-65491090D01*
X83949966Y-65478463D01*
X83978153Y-65453198D01*
X84006667Y-65432119D01*
X84037471Y-65413709D01*
X84038346Y-65413236D01*
X84051206Y-65405938D01*
X84059017Y-65400462D01*
X84062889Y-65395864D01*
X84063933Y-65391201D01*
X84063933Y-65382961D01*
X83947842Y-65382961D01*
X83831751Y-65382961D01*
X83831751Y-65271992D01*
X83831751Y-65161023D01*
X84576144Y-65161023D01*
X85320538Y-65161023D01*
X85319638Y-65274553D01*
G37*
G36*
X84327698Y-57202817D02*
G01*
X84570393Y-57203027D01*
X85318739Y-57203676D01*
X85319619Y-57405982D01*
X85320500Y-57608287D01*
X85200968Y-57608287D01*
X85081435Y-57608287D01*
X85081490Y-57617677D01*
X85081628Y-57620021D01*
X85083222Y-57624592D01*
X85087519Y-57629123D01*
X85095659Y-57634636D01*
X85108782Y-57642152D01*
X85117531Y-57647190D01*
X85140975Y-57662173D01*
X85165561Y-57679654D01*
X85189477Y-57698246D01*
X85210908Y-57716565D01*
X85228039Y-57733226D01*
X85243810Y-57751077D01*
X85274824Y-57793557D01*
X85300089Y-57839660D01*
X85319552Y-57889263D01*
X85333161Y-57942246D01*
X85340865Y-57998485D01*
X85342643Y-58031209D01*
X85341155Y-58092896D01*
X85333452Y-58153711D01*
X85319691Y-58212893D01*
X85300026Y-58269680D01*
X85274614Y-58323309D01*
X85256499Y-58353784D01*
X85222668Y-58400203D01*
X85183201Y-58443549D01*
X85138518Y-58483525D01*
X85089038Y-58519836D01*
X85035181Y-58552182D01*
X84977367Y-58580269D01*
X84916015Y-58603799D01*
X84851547Y-58622475D01*
X84830098Y-58627431D01*
X84764380Y-58639332D01*
X84694851Y-58647464D01*
X84622927Y-58651804D01*
X84550024Y-58652328D01*
X84477560Y-58649014D01*
X84406950Y-58641839D01*
X84339611Y-58630779D01*
X84294904Y-58620647D01*
X84228763Y-58600837D01*
X84166592Y-58576187D01*
X84108622Y-58546885D01*
X84055086Y-58513118D01*
X84006215Y-58475074D01*
X83962241Y-58432940D01*
X83923397Y-58386902D01*
X83889914Y-58337150D01*
X83862024Y-58283869D01*
X83839960Y-58227247D01*
X83838680Y-58223281D01*
X83825568Y-58173419D01*
X83816996Y-58121416D01*
X83812958Y-58068484D01*
X83813448Y-58015839D01*
X83818457Y-57964691D01*
X83827439Y-57919001D01*
X84144191Y-57919001D01*
X84144254Y-57932270D01*
X84144951Y-57957154D01*
X84146705Y-57977702D01*
X84149864Y-57995611D01*
X84154778Y-58012575D01*
X84161795Y-58030292D01*
X84171266Y-58050457D01*
X84186285Y-58076771D01*
X84210994Y-58108223D01*
X84240933Y-58135285D01*
X84260719Y-58149487D01*
X84302983Y-58174388D01*
X84348927Y-58194553D01*
X84398881Y-58210076D01*
X84453175Y-58221048D01*
X84512137Y-58227564D01*
X84576098Y-58229715D01*
X84579526Y-58229710D01*
X84628186Y-58228440D01*
X84672330Y-58224781D01*
X84713794Y-58218521D01*
X84754417Y-58209455D01*
X84788486Y-58199520D01*
X84835869Y-58181266D01*
X84877991Y-58159273D01*
X84914707Y-58133664D01*
X84945870Y-58104561D01*
X84971336Y-58072090D01*
X84990958Y-58036373D01*
X85004591Y-57997533D01*
X85006729Y-57987413D01*
X85009343Y-57967499D01*
X85011080Y-57944160D01*
X85011889Y-57919427D01*
X85011716Y-57895332D01*
X85010509Y-57873907D01*
X85008216Y-57857183D01*
X84998416Y-57822157D01*
X84981459Y-57784360D01*
X84958685Y-57749768D01*
X84930285Y-57718535D01*
X84896452Y-57690815D01*
X84857378Y-57666761D01*
X84813253Y-57646528D01*
X84764271Y-57630271D01*
X84710622Y-57618142D01*
X84693696Y-57615609D01*
X84666779Y-57612819D01*
X84636104Y-57610679D01*
X84603399Y-57609242D01*
X84570393Y-57608557D01*
X84538815Y-57608676D01*
X84510394Y-57609650D01*
X84486860Y-57611530D01*
X84433236Y-57619731D01*
X84380659Y-57632384D01*
X84332792Y-57648979D01*
X84289854Y-57669396D01*
X84252066Y-57693511D01*
X84219646Y-57721203D01*
X84192814Y-57752348D01*
X84171791Y-57786826D01*
X84166740Y-57797134D01*
X84158382Y-57815891D01*
X84152334Y-57833021D01*
X84148243Y-57850209D01*
X84145757Y-57869145D01*
X84144524Y-57891513D01*
X84144191Y-57919001D01*
X83827439Y-57919001D01*
X83827979Y-57916254D01*
X83842006Y-57871742D01*
X83846039Y-57861809D01*
X83864059Y-57825056D01*
X83886380Y-57788647D01*
X83911580Y-57754744D01*
X83938237Y-57725507D01*
X83955206Y-57710227D01*
X83977802Y-57692093D01*
X84002606Y-57673939D01*
X84027544Y-57657276D01*
X84050545Y-57643615D01*
X84052113Y-57642754D01*
X84068039Y-57633324D01*
X84077665Y-57626087D01*
X84080923Y-57621091D01*
X84080923Y-57621007D01*
X84080615Y-57620077D01*
X84079488Y-57619250D01*
X84077166Y-57618520D01*
X84073272Y-57617881D01*
X84067433Y-57617328D01*
X84059271Y-57616853D01*
X84048412Y-57616451D01*
X84034480Y-57616116D01*
X84017099Y-57615842D01*
X83995894Y-57615622D01*
X83970489Y-57615452D01*
X83940509Y-57615324D01*
X83905578Y-57615233D01*
X83865320Y-57615173D01*
X83819360Y-57615137D01*
X83767322Y-57615120D01*
X83708831Y-57615116D01*
X83336658Y-57615116D01*
X83336658Y-57408537D01*
X83336658Y-57201958D01*
X84327698Y-57202817D01*
G37*
G36*
X84900098Y-59711679D02*
G01*
X84936559Y-59712855D01*
X84991053Y-59719369D01*
X85041926Y-59731519D01*
X85089492Y-59749430D01*
X85134066Y-59773228D01*
X85175962Y-59803038D01*
X85215492Y-59838986D01*
X85233258Y-59858366D01*
X85263638Y-59898659D01*
X85290152Y-59943692D01*
X85312464Y-59992677D01*
X85330236Y-60044825D01*
X85343130Y-60099348D01*
X85350810Y-60155458D01*
X85353406Y-60202089D01*
X85352611Y-60258306D01*
X85347580Y-60312619D01*
X85338435Y-60363785D01*
X85325302Y-60410563D01*
X85325022Y-60411379D01*
X85315327Y-60436065D01*
X85302694Y-60463281D01*
X85288314Y-60490751D01*
X85273377Y-60516196D01*
X85259073Y-60537338D01*
X85258285Y-60538388D01*
X85242701Y-60557391D01*
X85224147Y-60577344D01*
X85203811Y-60597185D01*
X85182879Y-60615853D01*
X85162539Y-60632286D01*
X85143978Y-60645423D01*
X85128384Y-60654201D01*
X85121893Y-60658847D01*
X85118994Y-60664757D01*
X85119246Y-60666408D01*
X85120547Y-60667861D01*
X85123619Y-60668974D01*
X85129186Y-60669792D01*
X85137970Y-60670361D01*
X85150692Y-60670724D01*
X85168077Y-60670929D01*
X85190845Y-60671018D01*
X85219720Y-60671038D01*
X85320446Y-60671038D01*
X85320446Y-60785532D01*
X85320446Y-60900026D01*
X84781818Y-60898794D01*
X84751702Y-60898724D01*
X84682750Y-60898557D01*
X84620162Y-60898391D01*
X84563611Y-60898222D01*
X84512765Y-60898046D01*
X84467296Y-60897858D01*
X84426874Y-60897656D01*
X84391170Y-60897435D01*
X84359855Y-60897191D01*
X84332599Y-60896920D01*
X84309073Y-60896618D01*
X84288948Y-60896280D01*
X84271893Y-60895904D01*
X84257581Y-60895485D01*
X84245680Y-60895018D01*
X84235863Y-60894501D01*
X84227800Y-60893928D01*
X84221161Y-60893296D01*
X84215617Y-60892601D01*
X84210838Y-60891839D01*
X84181895Y-60886057D01*
X84148408Y-60877776D01*
X84117556Y-60868456D01*
X84091436Y-60858680D01*
X84079268Y-60853207D01*
X84047360Y-60836358D01*
X84015577Y-60816316D01*
X83985555Y-60794248D01*
X83958929Y-60771322D01*
X83937335Y-60748704D01*
X83905563Y-60705879D01*
X83885945Y-60671605D01*
X84571904Y-60671605D01*
X84702896Y-60670204D01*
X84703135Y-60670201D01*
X84736781Y-60669822D01*
X84764392Y-60669443D01*
X84786756Y-60669021D01*
X84804661Y-60668508D01*
X84818894Y-60667861D01*
X84830245Y-60667033D01*
X84839501Y-60665979D01*
X84847451Y-60664654D01*
X84854883Y-60663012D01*
X84862584Y-60661008D01*
X84891146Y-60652201D01*
X84937909Y-60632586D01*
X84980356Y-60607678D01*
X85018492Y-60577475D01*
X85052318Y-60541975D01*
X85081838Y-60501176D01*
X85107053Y-60455075D01*
X85115542Y-60435930D01*
X85126294Y-60406107D01*
X85134593Y-60374301D01*
X85141132Y-60338130D01*
X85141160Y-60337939D01*
X85143236Y-60319198D01*
X85144715Y-60295962D01*
X85145580Y-60270114D01*
X85145815Y-60243534D01*
X85145402Y-60218103D01*
X85144324Y-60195703D01*
X85142565Y-60178214D01*
X85133790Y-60134390D01*
X85120756Y-60093429D01*
X85103850Y-60056376D01*
X85083400Y-60023838D01*
X85059728Y-59996418D01*
X85033161Y-59974719D01*
X85032586Y-59974337D01*
X85004109Y-59959277D01*
X84971655Y-59948632D01*
X84936544Y-59942543D01*
X84900098Y-59941149D01*
X84863637Y-59944592D01*
X84828483Y-59953010D01*
X84823400Y-59954762D01*
X84796318Y-59968212D01*
X84770818Y-59987818D01*
X84747306Y-60013084D01*
X84726189Y-60043515D01*
X84707874Y-60078619D01*
X84692768Y-60117899D01*
X84692012Y-60120234D01*
X84684773Y-60143509D01*
X84678529Y-60165647D01*
X84673058Y-60187782D01*
X84668137Y-60211049D01*
X84663543Y-60236582D01*
X84659053Y-60265517D01*
X84654443Y-60298988D01*
X84649492Y-60338130D01*
X84641945Y-60396998D01*
X84634315Y-60450887D01*
X84626759Y-60498361D01*
X84619232Y-60539631D01*
X84611688Y-60574905D01*
X84604083Y-60604392D01*
X84596373Y-60628301D01*
X84588512Y-60646842D01*
X84580455Y-60660224D01*
X84571904Y-60671605D01*
X83885945Y-60671605D01*
X83877701Y-60657202D01*
X83854799Y-60603997D01*
X83836896Y-60546387D01*
X83824029Y-60484498D01*
X83816238Y-60418452D01*
X83813560Y-60348373D01*
X83814112Y-60314696D01*
X83819206Y-60245512D01*
X83829524Y-60179295D01*
X83844937Y-60116348D01*
X83865316Y-60056975D01*
X83890530Y-60001479D01*
X83920451Y-59950163D01*
X83954949Y-59903330D01*
X83993895Y-59861284D01*
X84037159Y-59824328D01*
X84049833Y-59815233D01*
X84066229Y-59804423D01*
X84083933Y-59793517D01*
X84101941Y-59783063D01*
X84119248Y-59773607D01*
X84134852Y-59765695D01*
X84147747Y-59759874D01*
X84156931Y-59756691D01*
X84161399Y-59756692D01*
X84162120Y-59758246D01*
X84164942Y-59765472D01*
X84169584Y-59777872D01*
X84175765Y-59794679D01*
X84183202Y-59815125D01*
X84191614Y-59838440D01*
X84200719Y-59863858D01*
X84208823Y-59886617D01*
X84217502Y-59911233D01*
X84224171Y-59930587D01*
X84229023Y-59945333D01*
X84232249Y-59956124D01*
X84234041Y-59963611D01*
X84234591Y-59968449D01*
X84234091Y-59971289D01*
X84232733Y-59972785D01*
X84203508Y-59991507D01*
X84158905Y-60025169D01*
X84120225Y-60061509D01*
X84087128Y-60100827D01*
X84065033Y-60134447D01*
X84046856Y-60171310D01*
X84033050Y-60211238D01*
X84023425Y-60254914D01*
X84017789Y-60303020D01*
X84015953Y-60356240D01*
X84015995Y-60363898D01*
X84018660Y-60414755D01*
X84025550Y-60460427D01*
X84036765Y-60501148D01*
X84052402Y-60537152D01*
X84072559Y-60568674D01*
X84097337Y-60595946D01*
X84126832Y-60619204D01*
X84154106Y-60635568D01*
X84187700Y-60650593D01*
X84223475Y-60660972D01*
X84262628Y-60667038D01*
X84306358Y-60669124D01*
X84319295Y-60669145D01*
X84334848Y-60668915D01*
X84346071Y-60668198D01*
X84354486Y-60666801D01*
X84361614Y-60664531D01*
X84368978Y-60661195D01*
X84379765Y-60654688D01*
X84393309Y-60641527D01*
X84404391Y-60623426D01*
X84413659Y-60599492D01*
X84414502Y-60596808D01*
X84417442Y-60587072D01*
X84420027Y-60577579D01*
X84422383Y-60567548D01*
X84424633Y-60556197D01*
X84426904Y-60542747D01*
X84429320Y-60526415D01*
X84432007Y-60506422D01*
X84435090Y-60481986D01*
X84438692Y-60452326D01*
X84442941Y-60416662D01*
X84444115Y-60406799D01*
X84452197Y-60341313D01*
X84460085Y-60282046D01*
X84467895Y-60228471D01*
X84475743Y-60180061D01*
X84483747Y-60136289D01*
X84492024Y-60096629D01*
X84500689Y-60060553D01*
X84509859Y-60027534D01*
X84519652Y-59997045D01*
X84530183Y-59968561D01*
X84541570Y-59941552D01*
X84553930Y-59915493D01*
X84555023Y-59913316D01*
X84571134Y-59883432D01*
X84587294Y-59858113D01*
X84604887Y-59835379D01*
X84625297Y-59813247D01*
X84636907Y-59802019D01*
X84671772Y-59773726D01*
X84709472Y-59750932D01*
X84750427Y-59733479D01*
X84795061Y-59721208D01*
X84843796Y-59713961D01*
X84897056Y-59711581D01*
X84900098Y-59711679D01*
G37*
G36*
X84906312Y-62909478D02*
G01*
X84922707Y-62909751D01*
X84949098Y-62910957D01*
X84972301Y-62912891D01*
X84990522Y-62915535D01*
X85035847Y-62926645D01*
X85085038Y-62944438D01*
X85130295Y-62967573D01*
X85172046Y-62996275D01*
X85210721Y-63030769D01*
X85218792Y-63039101D01*
X85253594Y-63080941D01*
X85283454Y-63127313D01*
X85308253Y-63177948D01*
X85327877Y-63232576D01*
X85342206Y-63290930D01*
X85351124Y-63352742D01*
X85351911Y-63361875D01*
X85353398Y-63398458D01*
X85352759Y-63437925D01*
X85350150Y-63478361D01*
X85345727Y-63517850D01*
X85339648Y-63554475D01*
X85332067Y-63586322D01*
X85326861Y-63602256D01*
X85317092Y-63627088D01*
X85305055Y-63653914D01*
X85291730Y-63680693D01*
X85278095Y-63705381D01*
X85265131Y-63725938D01*
X85257902Y-63735828D01*
X85241810Y-63755274D01*
X85223130Y-63775353D01*
X85202972Y-63795047D01*
X85182452Y-63813339D01*
X85162680Y-63829212D01*
X85144769Y-63841649D01*
X85129833Y-63849632D01*
X85122174Y-63854361D01*
X85118994Y-63860485D01*
X85119226Y-63862124D01*
X85120480Y-63863620D01*
X85123482Y-63864785D01*
X85128960Y-63865670D01*
X85137637Y-63866329D01*
X85150241Y-63866813D01*
X85167497Y-63867177D01*
X85190130Y-63867473D01*
X85218866Y-63867753D01*
X85318739Y-63868658D01*
X85319638Y-63982298D01*
X85320538Y-64095938D01*
X84778450Y-64094768D01*
X84735126Y-64094674D01*
X84667857Y-64094525D01*
X84606882Y-64094382D01*
X84551866Y-64094240D01*
X84502474Y-64094095D01*
X84458371Y-64093940D01*
X84419222Y-64093773D01*
X84384693Y-64093587D01*
X84354448Y-64093378D01*
X84328152Y-64093140D01*
X84305472Y-64092870D01*
X84286071Y-64092562D01*
X84269614Y-64092211D01*
X84255768Y-64091812D01*
X84244196Y-64091361D01*
X84234565Y-64090852D01*
X84226538Y-64090282D01*
X84219782Y-64089644D01*
X84213961Y-64088934D01*
X84208741Y-64088147D01*
X84203786Y-64087278D01*
X84198762Y-64086322D01*
X84166747Y-64079422D01*
X84125917Y-64067931D01*
X84088717Y-64053780D01*
X84053365Y-64036262D01*
X84018078Y-64014670D01*
X84013678Y-64011699D01*
X83972625Y-63979511D01*
X83936110Y-63942251D01*
X83904114Y-63899895D01*
X83884111Y-63865356D01*
X84576098Y-63865356D01*
X84576216Y-63865444D01*
X84580697Y-63865861D01*
X84591130Y-63866178D01*
X84606775Y-63866393D01*
X84626894Y-63866500D01*
X84650747Y-63866496D01*
X84677596Y-63866376D01*
X84706701Y-63866135D01*
X84732415Y-63865864D01*
X84761614Y-63865498D01*
X84785341Y-63865091D01*
X84804372Y-63864603D01*
X84819486Y-63863989D01*
X84831460Y-63863207D01*
X84841071Y-63862216D01*
X84849099Y-63860971D01*
X84856319Y-63859431D01*
X84863510Y-63857553D01*
X84908982Y-63842215D01*
X84952632Y-63821196D01*
X84992384Y-63794896D01*
X85028805Y-63762990D01*
X85036557Y-63755077D01*
X85068532Y-63717371D01*
X85094668Y-63677081D01*
X85115264Y-63633603D01*
X85130614Y-63586333D01*
X85141017Y-63534667D01*
X85142176Y-63525627D01*
X85144097Y-63502839D01*
X85145319Y-63476502D01*
X85145819Y-63448681D01*
X85145574Y-63421443D01*
X85144561Y-63396854D01*
X85142758Y-63376979D01*
X85139432Y-63356491D01*
X85130307Y-63319442D01*
X85117700Y-63283758D01*
X85102197Y-63250781D01*
X85084383Y-63221853D01*
X85064845Y-63198316D01*
X85055980Y-63189836D01*
X85028695Y-63169053D01*
X84998454Y-63153659D01*
X84964500Y-63143324D01*
X84926078Y-63137717D01*
X84906312Y-63136865D01*
X84868762Y-63139725D01*
X84833676Y-63148437D01*
X84801605Y-63162783D01*
X84773100Y-63182547D01*
X84748712Y-63207511D01*
X84738647Y-63220762D01*
X84722561Y-63245824D01*
X84708226Y-63273802D01*
X84695473Y-63305254D01*
X84684134Y-63340734D01*
X84674040Y-63380798D01*
X84665023Y-63426000D01*
X84656913Y-63476897D01*
X84649542Y-63534043D01*
X84649493Y-63534462D01*
X84642714Y-63589021D01*
X84635607Y-63639660D01*
X84628247Y-63686018D01*
X84620710Y-63727730D01*
X84613071Y-63764435D01*
X84605406Y-63795768D01*
X84597791Y-63821367D01*
X84590301Y-63840869D01*
X84583011Y-63853911D01*
X84582424Y-63854712D01*
X84577938Y-63861449D01*
X84576098Y-63865356D01*
X83884111Y-63865356D01*
X83876619Y-63852420D01*
X83853608Y-63799802D01*
X83849712Y-63788720D01*
X83841355Y-63760006D01*
X83833530Y-63726585D01*
X83826503Y-63689916D01*
X83820538Y-63651460D01*
X83815899Y-63612673D01*
X83812851Y-63575017D01*
X83812036Y-63543615D01*
X83813769Y-63497870D01*
X83818471Y-63449330D01*
X83825868Y-63399763D01*
X83835684Y-63350938D01*
X83847644Y-63304626D01*
X83861472Y-63262596D01*
X83878498Y-63221686D01*
X83906882Y-63167952D01*
X83940392Y-63118611D01*
X83978876Y-63073835D01*
X84022178Y-63033797D01*
X84070146Y-62998671D01*
X84122626Y-62968629D01*
X84133959Y-62963028D01*
X84146075Y-62957259D01*
X84154867Y-62953332D01*
X84158957Y-62951882D01*
X84159067Y-62951943D01*
X84161058Y-62955835D01*
X84164927Y-62965134D01*
X84170342Y-62978935D01*
X84176973Y-62996328D01*
X84184492Y-63016407D01*
X84192567Y-63038265D01*
X84200870Y-63060994D01*
X84209069Y-63083686D01*
X84216836Y-63105434D01*
X84223839Y-63125331D01*
X84229750Y-63142469D01*
X84234239Y-63155941D01*
X84236974Y-63164839D01*
X84237628Y-63168256D01*
X84237613Y-63168267D01*
X84234105Y-63170331D01*
X84226306Y-63174733D01*
X84215875Y-63180536D01*
X84199769Y-63190147D01*
X84164802Y-63215857D01*
X84129703Y-63248297D01*
X84117554Y-63261062D01*
X84088785Y-63295505D01*
X84065277Y-63330947D01*
X84046724Y-63368207D01*
X84032820Y-63408103D01*
X84023257Y-63451453D01*
X84017730Y-63499077D01*
X84015930Y-63551793D01*
X84016052Y-63565459D01*
X84019106Y-63615632D01*
X84026350Y-63660646D01*
X84037900Y-63700773D01*
X84053874Y-63736289D01*
X84074388Y-63767467D01*
X84099559Y-63794581D01*
X84129505Y-63817906D01*
X84154758Y-63832904D01*
X84187645Y-63847318D01*
X84223168Y-63857301D01*
X84262386Y-63863136D01*
X84306358Y-63865105D01*
X84323621Y-63865091D01*
X84338732Y-63864805D01*
X84349565Y-63864075D01*
X84357500Y-63862737D01*
X84363912Y-63860631D01*
X84370181Y-63857593D01*
X84371805Y-63856699D01*
X84384001Y-63847987D01*
X84394619Y-63836272D01*
X84403854Y-63821007D01*
X84411900Y-63801646D01*
X84418951Y-63777644D01*
X84425200Y-63748454D01*
X84430844Y-63713531D01*
X84436074Y-63672328D01*
X84441381Y-63626592D01*
X84449306Y-63561249D01*
X84456985Y-63501942D01*
X84464520Y-63448195D01*
X84472008Y-63399534D01*
X84479550Y-63355486D01*
X84487247Y-63315575D01*
X84495196Y-63279327D01*
X84503499Y-63246269D01*
X84512254Y-63215925D01*
X84521562Y-63187821D01*
X84531522Y-63161484D01*
X84542234Y-63136437D01*
X84553798Y-63112208D01*
X84568261Y-63085077D01*
X84584468Y-63059230D01*
X84602301Y-63035802D01*
X84623331Y-63012540D01*
X84649215Y-62988118D01*
X84684742Y-62961627D01*
X84723116Y-62940716D01*
X84765159Y-62924954D01*
X84811695Y-62913912D01*
X84821130Y-62912522D01*
X84842339Y-62910657D01*
X84867534Y-62909584D01*
X84894921Y-62909288D01*
X84906312Y-62909478D01*
G37*
G36*
X84596470Y-61250214D02*
G01*
X84634006Y-61250888D01*
X84666901Y-61252255D01*
X84696476Y-61254450D01*
X84724053Y-61257604D01*
X84750952Y-61261852D01*
X84778496Y-61267327D01*
X84808006Y-61274161D01*
X84853739Y-61286880D01*
X84915940Y-61309473D01*
X84974675Y-61337164D01*
X85029540Y-61369677D01*
X85080128Y-61406736D01*
X85126034Y-61448066D01*
X85166854Y-61493390D01*
X85202182Y-61542433D01*
X85219375Y-61571857D01*
X85239411Y-61612859D01*
X85257186Y-61656790D01*
X85271851Y-61701509D01*
X85282555Y-61744878D01*
X85287238Y-61771170D01*
X85293096Y-61820961D01*
X85295416Y-61871451D01*
X85294279Y-61921505D01*
X85289771Y-61969987D01*
X85281974Y-62015762D01*
X85270972Y-62057692D01*
X85256848Y-62094642D01*
X85247904Y-62112381D01*
X85232056Y-62139185D01*
X85213733Y-62166244D01*
X85194481Y-62191314D01*
X85175847Y-62212152D01*
X85174734Y-62213262D01*
X85162337Y-62224621D01*
X85145894Y-62238460D01*
X85126890Y-62253639D01*
X85106811Y-62269017D01*
X85087141Y-62283455D01*
X85069367Y-62295811D01*
X85054973Y-62304946D01*
X85052711Y-62306340D01*
X85045834Y-62312837D01*
X85043876Y-62320947D01*
X85043876Y-62330454D01*
X85215452Y-62330387D01*
X85217389Y-62330386D01*
X85252261Y-62330297D01*
X85285593Y-62330083D01*
X85316629Y-62329758D01*
X85344613Y-62329333D01*
X85368791Y-62328824D01*
X85388406Y-62328244D01*
X85402704Y-62327605D01*
X85410928Y-62326921D01*
X85457273Y-62317807D01*
X85500307Y-62303704D01*
X85538830Y-62284623D01*
X85573116Y-62260370D01*
X85603441Y-62230747D01*
X85630081Y-62195559D01*
X85653311Y-62154611D01*
X85659826Y-62141106D01*
X85670448Y-62117047D01*
X85678776Y-62094393D01*
X85685761Y-62070408D01*
X85692355Y-62042355D01*
X85698156Y-62008800D01*
X85702337Y-61966965D01*
X85704053Y-61922627D01*
X85703289Y-61877832D01*
X85700028Y-61834630D01*
X85694256Y-61795069D01*
X85692957Y-61788464D01*
X85681545Y-61743787D01*
X85665894Y-61702049D01*
X85645583Y-61662611D01*
X85620189Y-61624836D01*
X85589290Y-61588084D01*
X85552465Y-61551716D01*
X85509291Y-61515095D01*
X85500481Y-61507812D01*
X85491017Y-61499174D01*
X85484953Y-61492588D01*
X85483314Y-61489081D01*
X85484024Y-61487979D01*
X85488157Y-61481900D01*
X85495481Y-61471274D01*
X85505505Y-61456809D01*
X85517741Y-61439210D01*
X85531699Y-61419183D01*
X85546889Y-61397432D01*
X85608374Y-61309483D01*
X85617206Y-61315110D01*
X85631015Y-61324311D01*
X85664771Y-61349813D01*
X85698518Y-61379179D01*
X85730372Y-61410708D01*
X85758451Y-61442701D01*
X85771350Y-61459411D01*
X85786290Y-61480122D01*
X85801426Y-61502255D01*
X85815636Y-61524126D01*
X85827800Y-61544051D01*
X85836795Y-61560346D01*
X85856602Y-61605195D01*
X85873688Y-61656110D01*
X85887454Y-61711463D01*
X85897682Y-61770369D01*
X85904153Y-61831946D01*
X85906668Y-61882814D01*
X85906134Y-61956805D01*
X85900623Y-62028822D01*
X85890239Y-62098225D01*
X85875085Y-62164376D01*
X85855266Y-62226634D01*
X85830884Y-62284359D01*
X85812625Y-62318749D01*
X85781672Y-62365624D01*
X85746021Y-62408233D01*
X85706140Y-62446195D01*
X85662498Y-62479126D01*
X85615561Y-62506643D01*
X85565799Y-62528365D01*
X85513680Y-62543907D01*
X85509896Y-62544788D01*
X85503153Y-62546355D01*
X85496690Y-62547804D01*
X85490234Y-62549138D01*
X85483511Y-62550364D01*
X85476249Y-62551484D01*
X85468173Y-62552504D01*
X85459011Y-62553430D01*
X85448488Y-62554264D01*
X85436332Y-62555013D01*
X85422269Y-62555680D01*
X85406026Y-62556271D01*
X85387328Y-62556791D01*
X85365903Y-62557243D01*
X85341478Y-62557632D01*
X85313778Y-62557964D01*
X85282530Y-62558243D01*
X85247462Y-62558474D01*
X85208299Y-62558661D01*
X85164768Y-62558809D01*
X85116595Y-62558923D01*
X85063508Y-62559008D01*
X85005233Y-62559068D01*
X84941496Y-62559107D01*
X84872023Y-62559132D01*
X84796543Y-62559145D01*
X84714780Y-62559153D01*
X84626461Y-62559159D01*
X83831751Y-62559222D01*
X83831751Y-62448252D01*
X83831751Y-62337283D01*
X83949549Y-62337283D01*
X84067347Y-62337283D01*
X84067347Y-62326069D01*
X84067165Y-62322174D01*
X84064360Y-62314623D01*
X84056729Y-62308582D01*
X84046372Y-62301942D01*
X84030475Y-62290722D01*
X84012008Y-62276930D01*
X83992335Y-62261645D01*
X83972815Y-62245948D01*
X83954812Y-62230918D01*
X83939686Y-62217634D01*
X83928801Y-62207176D01*
X83903017Y-62177360D01*
X83877166Y-62140728D01*
X83855542Y-62102369D01*
X83839303Y-62064128D01*
X83837787Y-62059716D01*
X83824969Y-62012723D01*
X83816569Y-61961861D01*
X83812581Y-61908342D01*
X83812597Y-61906274D01*
X84020093Y-61906274D01*
X84020651Y-61935607D01*
X84022196Y-61963852D01*
X84024688Y-61989113D01*
X84028091Y-62009497D01*
X84036336Y-62040573D01*
X84054088Y-62086588D01*
X84077631Y-62129044D01*
X84106898Y-62167868D01*
X84141826Y-62202989D01*
X84182347Y-62234335D01*
X84228398Y-62261834D01*
X84279911Y-62285414D01*
X84309591Y-62296503D01*
X84350529Y-62309192D01*
X84392289Y-62318910D01*
X84436303Y-62325921D01*
X84484007Y-62330491D01*
X84536832Y-62332884D01*
X84558061Y-62333298D01*
X84598481Y-62333258D01*
X84634687Y-62331881D01*
X84668384Y-62329045D01*
X84701277Y-62324625D01*
X84735069Y-62318498D01*
X84781137Y-62307280D01*
X84832035Y-62290055D01*
X84879472Y-62268671D01*
X84922864Y-62243472D01*
X84961629Y-62214805D01*
X84995180Y-62183013D01*
X85022936Y-62148442D01*
X85028269Y-62140363D01*
X85046774Y-62106757D01*
X85062614Y-62069027D01*
X85075047Y-62029130D01*
X85083332Y-61989025D01*
X85085424Y-61971693D01*
X85087380Y-61941642D01*
X85087927Y-61908921D01*
X85087090Y-61875874D01*
X85084896Y-61844842D01*
X85081373Y-61818171D01*
X85075371Y-61789355D01*
X85061394Y-61743800D01*
X85042398Y-61702240D01*
X85018008Y-61663910D01*
X84987850Y-61628050D01*
X84984752Y-61624828D01*
X84946656Y-61590363D01*
X84903748Y-61560413D01*
X84855926Y-61534930D01*
X84803087Y-61513867D01*
X84745128Y-61497175D01*
X84681946Y-61484806D01*
X84675300Y-61483876D01*
X84652785Y-61481673D01*
X84625660Y-61480049D01*
X84595541Y-61479017D01*
X84564044Y-61478588D01*
X84532785Y-61478774D01*
X84503379Y-61479588D01*
X84477443Y-61481041D01*
X84456593Y-61483144D01*
X84404131Y-61491958D01*
X84345842Y-61505993D01*
X84291959Y-61523791D01*
X84243021Y-61545171D01*
X84199568Y-61569952D01*
X84179869Y-61583459D01*
X84139252Y-61616489D01*
X84104660Y-61652661D01*
X84075993Y-61692126D01*
X84053149Y-61735035D01*
X84036028Y-61781540D01*
X84024526Y-61831793D01*
X84022086Y-61851926D01*
X84020558Y-61877749D01*
X84020093Y-61906274D01*
X83812597Y-61906274D01*
X83813001Y-61853382D01*
X83817826Y-61798193D01*
X83827050Y-61743989D01*
X83840669Y-61691984D01*
X83857123Y-61646195D01*
X83883385Y-61590531D01*
X83915257Y-61538469D01*
X83952543Y-61490153D01*
X83995051Y-61445729D01*
X84042584Y-61405343D01*
X84094950Y-61369141D01*
X84151952Y-61337268D01*
X84213398Y-61309870D01*
X84279092Y-61287093D01*
X84348841Y-61269083D01*
X84422449Y-61255984D01*
X84430855Y-61254876D01*
X84446589Y-61253207D01*
X84463841Y-61251943D01*
X84483674Y-61251042D01*
X84507149Y-61250460D01*
X84535327Y-61250155D01*
X84564044Y-61250096D01*
X84569270Y-61250085D01*
X84596470Y-61250214D01*
G37*
%LPC*%
D12*
X74450000Y-68000000D03*
X74933274Y-66833274D03*
X74933274Y-69166726D03*
X76100000Y-66350000D03*
D13*
X76100000Y-68000000D03*
D12*
X76100000Y-69650000D03*
X77266726Y-66833274D03*
X77266726Y-69166726D03*
X77750000Y-68000000D03*
X91500000Y-68000000D03*
X91983274Y-66833274D03*
X91983274Y-69166726D03*
X93150000Y-66350000D03*
D13*
X93150000Y-68000000D03*
D12*
X93150000Y-69650000D03*
X94316726Y-66833274D03*
X94316726Y-69166726D03*
X94800000Y-68000000D03*
X74450000Y-45533274D03*
X74933274Y-44366548D03*
X74933274Y-46700000D03*
X76100000Y-43883274D03*
D13*
X76100000Y-45533274D03*
D12*
X76100000Y-47183274D03*
X77266726Y-44366548D03*
X77266726Y-46700000D03*
X77750000Y-45533274D03*
D14*
X92325000Y-62600000D03*
D15*
X92325000Y-60100000D03*
X92325000Y-57600000D03*
X92325000Y-55100000D03*
X92325000Y-52600000D03*
D12*
X91483274Y-45500000D03*
X91966548Y-44333274D03*
X91966548Y-46666726D03*
X93133274Y-43850000D03*
D13*
X93133274Y-45500000D03*
D12*
X93133274Y-47150000D03*
X94300000Y-44333274D03*
X94300000Y-46666726D03*
X94783274Y-45500000D03*
%LPD*%
M02*
