G04 #@! TF.GenerationSoftware,KiCad,Pcbnew,8.0.8*
G04 #@! TF.CreationDate,2025-04-14T11:12:42+01:00*
G04 #@! TF.ProjectId,Bat-mon_v1-Sensor Shield,4261742d-6d6f-46e5-9f76-312d53656e73,rev?*
G04 #@! TF.SameCoordinates,Original*
G04 #@! TF.FileFunction,Soldermask,Top*
G04 #@! TF.FilePolarity,Negative*
%FSLAX46Y46*%
G04 Gerber Fmt 4.6, Leading zero omitted, Abs format (unit mm)*
G04 Created by KiCad (PCBNEW 8.0.8) date 2025-04-14 11:12:42*
%MOMM*%
%LPD*%
G01*
G04 APERTURE LIST*
G04 Aperture macros list*
%AMRoundRect*
0 Rectangle with rounded corners*
0 $1 Rounding radius*
0 $2 $3 $4 $5 $6 $7 $8 $9 X,Y pos of 4 corners*
0 Add a 4 corners polygon primitive as box body*
4,1,4,$2,$3,$4,$5,$6,$7,$8,$9,$2,$3,0*
0 Add four circle primitives for the rounded corners*
1,1,$1+$1,$2,$3*
1,1,$1+$1,$4,$5*
1,1,$1+$1,$6,$7*
1,1,$1+$1,$8,$9*
0 Add four rect primitives between the rounded corners*
20,1,$1+$1,$2,$3,$4,$5,0*
20,1,$1+$1,$4,$5,$6,$7,0*
20,1,$1+$1,$6,$7,$8,$9,0*
20,1,$1+$1,$8,$9,$2,$3,0*%
G04 Aperture macros list end*
%ADD10C,0.700000*%
%ADD11C,4.400000*%
%ADD12RoundRect,0.100000X-0.100000X0.200000X-0.100000X-0.200000X0.100000X-0.200000X0.100000X0.200000X0*%
%ADD13R,2.400000X1.500000*%
%ADD14R,1.650000X1.650000*%
%ADD15C,1.650000*%
G04 APERTURE END LIST*
D10*
X74450000Y-68000000D03*
X74933274Y-66833274D03*
X74933274Y-69166726D03*
X76100000Y-66350000D03*
D11*
X76100000Y-68000000D03*
D10*
X76100000Y-69650000D03*
X77266726Y-66833274D03*
X77266726Y-69166726D03*
X77750000Y-68000000D03*
X91500000Y-68000000D03*
X91983274Y-66833274D03*
X91983274Y-69166726D03*
X93150000Y-66350000D03*
D11*
X93150000Y-68000000D03*
D10*
X93150000Y-69650000D03*
X94316726Y-66833274D03*
X94316726Y-69166726D03*
X94800000Y-68000000D03*
D12*
X82550000Y-55650000D03*
X81600000Y-55650000D03*
X80650000Y-55650000D03*
X80650000Y-58450000D03*
X81600000Y-58450000D03*
X82550000Y-58450000D03*
D13*
X81600000Y-57050000D03*
D10*
X74450000Y-45533274D03*
X74933274Y-44366548D03*
X74933274Y-46700000D03*
X76100000Y-43883274D03*
D11*
X76100000Y-45533274D03*
D10*
X76100000Y-47183274D03*
X77266726Y-44366548D03*
X77266726Y-46700000D03*
X77750000Y-45533274D03*
D14*
X92325000Y-62600000D03*
D15*
X92325000Y-60100000D03*
X92325000Y-57600000D03*
X92325000Y-55100000D03*
X92325000Y-52600000D03*
D10*
X91483274Y-45500000D03*
X91966548Y-44333274D03*
X91966548Y-46666726D03*
X93133274Y-43850000D03*
D11*
X93133274Y-45500000D03*
D10*
X93133274Y-47150000D03*
X94300000Y-44333274D03*
X94300000Y-46666726D03*
X94783274Y-45500000D03*
M02*
