%TF.GenerationSoftware,KiCad,Pcbnew,8.0.8*%
%TF.CreationDate,2025-04-14T11:13:20+01:00*%
%TF.ProjectId,Bat-mon_v1-Sensor Shield,4261742d-6d6f-46e5-9f76-312d53656e73,rev?*%
%TF.SameCoordinates,Original*%
%TF.FileFunction,Drillmap*%
%TF.FilePolarity,Positive*%
%FSLAX45Y45*%
G04 Gerber Fmt 4.5, Leading zero omitted, Abs format (unit mm)*
G04 Created by KiCad (PCBNEW 8.0.8) date 2025-04-14 11:13:20*
%MOMM*%
%LPD*%
G01*
G04 APERTURE LIST*
%ADD10C,0.050000*%
%ADD11C,0.200000*%
%ADD12C,0.100000*%
%ADD13C,0.110000*%
%ADD14C,0.220000*%
G04 APERTURE END LIST*
D10*
X9633224Y-6873224D02*
X9635000Y-4500000D01*
X9633224Y-6873224D02*
G75*
G02*
X9383224Y-7123224I-250004J4D01*
G01*
X7575000Y-4245000D02*
X9375041Y-4246366D01*
X7592133Y-7120000D02*
G75*
G02*
X7292130Y-6820000I-3J300000D01*
G01*
X7292133Y-6820000D02*
X7291381Y-4527868D01*
X7291381Y-4527868D02*
G75*
G02*
X7575000Y-4245005I285729J-2872D01*
G01*
X7592133Y-7120000D02*
X9383224Y-7123224D01*
X9375041Y-4246366D02*
G75*
G02*
X9635004Y-4500000I7549J-252304D01*
G01*
D11*
D12*
X8050000Y-5460000D02*
X8080000Y-5490000D01*
X8080000Y-5460000D02*
X8050000Y-5490000D01*
X8145000Y-5460000D02*
X8175000Y-5490000D01*
X8175000Y-5460000D02*
X8145000Y-5490000D01*
X7465000Y-4553327D02*
G75*
G02*
X7425000Y-4553327I-20000J0D01*
G01*
X7425000Y-4553327D02*
G75*
G02*
X7465000Y-4553327I20000J0D01*
G01*
X7465000Y-6800000D02*
G75*
G02*
X7425000Y-6800000I-20000J0D01*
G01*
X7425000Y-6800000D02*
G75*
G02*
X7465000Y-6800000I20000J0D01*
G01*
X7513327Y-4436655D02*
G75*
G02*
X7473327Y-4436655I-20000J0D01*
G01*
X7473327Y-4436655D02*
G75*
G02*
X7513327Y-4436655I20000J0D01*
G01*
X7513327Y-4670000D02*
G75*
G02*
X7473327Y-4670000I-20000J0D01*
G01*
X7473327Y-4670000D02*
G75*
G02*
X7513327Y-4670000I20000J0D01*
G01*
X7513327Y-6683327D02*
G75*
G02*
X7473327Y-6683327I-20000J0D01*
G01*
X7473327Y-6683327D02*
G75*
G02*
X7513327Y-6683327I20000J0D01*
G01*
X7513327Y-6916673D02*
G75*
G02*
X7473327Y-6916673I-20000J0D01*
G01*
X7473327Y-6916673D02*
G75*
G02*
X7513327Y-6916673I20000J0D01*
G01*
X7630000Y-4388327D02*
G75*
G02*
X7590000Y-4388327I-20000J0D01*
G01*
X7590000Y-4388327D02*
G75*
G02*
X7630000Y-4388327I20000J0D01*
G01*
X7630000Y-4718327D02*
G75*
G02*
X7590000Y-4718327I-20000J0D01*
G01*
X7590000Y-4718327D02*
G75*
G02*
X7630000Y-4718327I20000J0D01*
G01*
X7630000Y-6635000D02*
G75*
G02*
X7590000Y-6635000I-20000J0D01*
G01*
X7590000Y-6635000D02*
G75*
G02*
X7630000Y-6635000I20000J0D01*
G01*
X7630000Y-6965000D02*
G75*
G02*
X7590000Y-6965000I-20000J0D01*
G01*
X7590000Y-6965000D02*
G75*
G02*
X7630000Y-6965000I20000J0D01*
G01*
X7746673Y-4436655D02*
G75*
G02*
X7706673Y-4436655I-20000J0D01*
G01*
X7706673Y-4436655D02*
G75*
G02*
X7746673Y-4436655I20000J0D01*
G01*
X7746673Y-4670000D02*
G75*
G02*
X7706673Y-4670000I-20000J0D01*
G01*
X7706673Y-4670000D02*
G75*
G02*
X7746673Y-4670000I20000J0D01*
G01*
X7746673Y-6683327D02*
G75*
G02*
X7706673Y-6683327I-20000J0D01*
G01*
X7706673Y-6683327D02*
G75*
G02*
X7746673Y-6683327I20000J0D01*
G01*
X7746673Y-6916673D02*
G75*
G02*
X7706673Y-6916673I-20000J0D01*
G01*
X7706673Y-6916673D02*
G75*
G02*
X7746673Y-6916673I20000J0D01*
G01*
X7795000Y-4553327D02*
G75*
G02*
X7755000Y-4553327I-20000J0D01*
G01*
X7755000Y-4553327D02*
G75*
G02*
X7795000Y-4553327I20000J0D01*
G01*
X7795000Y-6800000D02*
G75*
G02*
X7755000Y-6800000I-20000J0D01*
G01*
X7755000Y-6800000D02*
G75*
G02*
X7795000Y-6800000I20000J0D01*
G01*
X9168327Y-4550000D02*
G75*
G02*
X9128327Y-4550000I-20000J0D01*
G01*
X9128327Y-4550000D02*
G75*
G02*
X9168327Y-4550000I20000J0D01*
G01*
X9170000Y-6800000D02*
G75*
G02*
X9130000Y-6800000I-20000J0D01*
G01*
X9130000Y-6800000D02*
G75*
G02*
X9170000Y-6800000I20000J0D01*
G01*
X9216655Y-4433327D02*
G75*
G02*
X9176655Y-4433327I-20000J0D01*
G01*
X9176655Y-4433327D02*
G75*
G02*
X9216655Y-4433327I20000J0D01*
G01*
X9216655Y-4666673D02*
G75*
G02*
X9176655Y-4666673I-20000J0D01*
G01*
X9176655Y-4666673D02*
G75*
G02*
X9216655Y-4666673I20000J0D01*
G01*
X9218327Y-6683327D02*
G75*
G02*
X9178327Y-6683327I-20000J0D01*
G01*
X9178327Y-6683327D02*
G75*
G02*
X9218327Y-6683327I20000J0D01*
G01*
X9218327Y-6916673D02*
G75*
G02*
X9178327Y-6916673I-20000J0D01*
G01*
X9178327Y-6916673D02*
G75*
G02*
X9218327Y-6916673I20000J0D01*
G01*
X9333327Y-4385000D02*
G75*
G02*
X9293327Y-4385000I-20000J0D01*
G01*
X9293327Y-4385000D02*
G75*
G02*
X9333327Y-4385000I20000J0D01*
G01*
X9333327Y-4715000D02*
G75*
G02*
X9293327Y-4715000I-20000J0D01*
G01*
X9293327Y-4715000D02*
G75*
G02*
X9333327Y-4715000I20000J0D01*
G01*
X9335000Y-6635000D02*
G75*
G02*
X9295000Y-6635000I-20000J0D01*
G01*
X9295000Y-6635000D02*
G75*
G02*
X9335000Y-6635000I20000J0D01*
G01*
X9335000Y-6965000D02*
G75*
G02*
X9295000Y-6965000I-20000J0D01*
G01*
X9295000Y-6965000D02*
G75*
G02*
X9335000Y-6965000I20000J0D01*
G01*
X9450000Y-4433327D02*
G75*
G02*
X9410000Y-4433327I-20000J0D01*
G01*
X9410000Y-4433327D02*
G75*
G02*
X9450000Y-4433327I20000J0D01*
G01*
X9450000Y-4666673D02*
G75*
G02*
X9410000Y-4666673I-20000J0D01*
G01*
X9410000Y-4666673D02*
G75*
G02*
X9450000Y-4666673I20000J0D01*
G01*
X9451673Y-6683327D02*
G75*
G02*
X9411673Y-6683327I-20000J0D01*
G01*
X9411673Y-6683327D02*
G75*
G02*
X9451673Y-6683327I20000J0D01*
G01*
X9451673Y-6916673D02*
G75*
G02*
X9411673Y-6916673I-20000J0D01*
G01*
X9411673Y-6916673D02*
G75*
G02*
X9451673Y-6916673I20000J0D01*
G01*
X9498327Y-4550000D02*
G75*
G02*
X9458327Y-4550000I-20000J0D01*
G01*
X9458327Y-4550000D02*
G75*
G02*
X9498327Y-4550000I20000J0D01*
G01*
X9500000Y-6800000D02*
G75*
G02*
X9460000Y-6800000I-20000J0D01*
G01*
X9460000Y-6800000D02*
G75*
G02*
X9500000Y-6800000I20000J0D01*
G01*
D13*
X9232500Y-5205000D02*
X9232500Y-5315000D01*
X9177500Y-5260000D02*
X9287500Y-5260000D01*
X9232500Y-5455000D02*
X9232500Y-5565000D01*
X9177500Y-5510000D02*
X9287500Y-5510000D01*
X9232500Y-5705000D02*
X9232500Y-5815000D01*
X9177500Y-5760000D02*
X9287500Y-5760000D01*
X9232500Y-5955000D02*
X9232500Y-6065000D01*
X9177500Y-6010000D02*
X9287500Y-6010000D01*
X9232500Y-6205000D02*
X9232500Y-6315000D01*
X9177500Y-6260000D02*
X9287500Y-6260000D01*
D14*
X7687782Y-4631110D02*
X7687782Y-4475545D01*
X7532217Y-4475545D01*
X7532217Y-4631110D01*
X7687782Y-4631110D01*
X7687782Y-6877782D02*
X7687782Y-6722217D01*
X7532217Y-6722217D01*
X7532217Y-6877782D01*
X7687782Y-6877782D01*
X9391110Y-4627783D02*
X9391110Y-4472218D01*
X9235545Y-4472218D01*
X9235545Y-4627783D01*
X9391110Y-4627783D01*
X9392783Y-6877782D02*
X9392783Y-6722217D01*
X9237218Y-6722217D01*
X9237218Y-6877782D01*
X9392783Y-6877782D01*
D11*
X7549658Y-7437208D02*
X7549658Y-7237208D01*
X7549658Y-7237208D02*
X7597277Y-7237208D01*
X7597277Y-7237208D02*
X7625849Y-7246732D01*
X7625849Y-7246732D02*
X7644896Y-7265779D01*
X7644896Y-7265779D02*
X7654420Y-7284827D01*
X7654420Y-7284827D02*
X7663944Y-7322922D01*
X7663944Y-7322922D02*
X7663944Y-7351494D01*
X7663944Y-7351494D02*
X7654420Y-7389589D01*
X7654420Y-7389589D02*
X7644896Y-7408637D01*
X7644896Y-7408637D02*
X7625849Y-7427684D01*
X7625849Y-7427684D02*
X7597277Y-7437208D01*
X7597277Y-7437208D02*
X7549658Y-7437208D01*
X7749658Y-7437208D02*
X7749658Y-7303875D01*
X7749658Y-7341970D02*
X7759182Y-7322922D01*
X7759182Y-7322922D02*
X7768706Y-7313398D01*
X7768706Y-7313398D02*
X7787753Y-7303875D01*
X7787753Y-7303875D02*
X7806801Y-7303875D01*
X7873468Y-7437208D02*
X7873468Y-7303875D01*
X7873468Y-7237208D02*
X7863944Y-7246732D01*
X7863944Y-7246732D02*
X7873468Y-7256256D01*
X7873468Y-7256256D02*
X7882991Y-7246732D01*
X7882991Y-7246732D02*
X7873468Y-7237208D01*
X7873468Y-7237208D02*
X7873468Y-7256256D01*
X7997277Y-7437208D02*
X7978229Y-7427684D01*
X7978229Y-7427684D02*
X7968706Y-7408637D01*
X7968706Y-7408637D02*
X7968706Y-7237208D01*
X8102039Y-7437208D02*
X8082991Y-7427684D01*
X8082991Y-7427684D02*
X8073468Y-7408637D01*
X8073468Y-7408637D02*
X8073468Y-7237208D01*
X8330610Y-7437208D02*
X8330610Y-7237208D01*
X8330610Y-7237208D02*
X8397277Y-7380065D01*
X8397277Y-7380065D02*
X8463944Y-7237208D01*
X8463944Y-7237208D02*
X8463944Y-7437208D01*
X8644896Y-7437208D02*
X8644896Y-7332446D01*
X8644896Y-7332446D02*
X8635372Y-7313398D01*
X8635372Y-7313398D02*
X8616325Y-7303875D01*
X8616325Y-7303875D02*
X8578230Y-7303875D01*
X8578230Y-7303875D02*
X8559182Y-7313398D01*
X8644896Y-7427684D02*
X8625849Y-7437208D01*
X8625849Y-7437208D02*
X8578230Y-7437208D01*
X8578230Y-7437208D02*
X8559182Y-7427684D01*
X8559182Y-7427684D02*
X8549658Y-7408637D01*
X8549658Y-7408637D02*
X8549658Y-7389589D01*
X8549658Y-7389589D02*
X8559182Y-7370541D01*
X8559182Y-7370541D02*
X8578230Y-7361018D01*
X8578230Y-7361018D02*
X8625849Y-7361018D01*
X8625849Y-7361018D02*
X8644896Y-7351494D01*
X8740134Y-7303875D02*
X8740134Y-7503875D01*
X8740134Y-7313398D02*
X8759182Y-7303875D01*
X8759182Y-7303875D02*
X8797277Y-7303875D01*
X8797277Y-7303875D02*
X8816325Y-7313398D01*
X8816325Y-7313398D02*
X8825849Y-7322922D01*
X8825849Y-7322922D02*
X8835372Y-7341970D01*
X8835372Y-7341970D02*
X8835372Y-7399113D01*
X8835372Y-7399113D02*
X8825849Y-7418160D01*
X8825849Y-7418160D02*
X8816325Y-7427684D01*
X8816325Y-7427684D02*
X8797277Y-7437208D01*
X8797277Y-7437208D02*
X8759182Y-7437208D01*
X8759182Y-7437208D02*
X8740134Y-7427684D01*
X8921087Y-7418160D02*
X8930611Y-7427684D01*
X8930611Y-7427684D02*
X8921087Y-7437208D01*
X8921087Y-7437208D02*
X8911563Y-7427684D01*
X8911563Y-7427684D02*
X8921087Y-7418160D01*
X8921087Y-7418160D02*
X8921087Y-7437208D01*
X8921087Y-7313398D02*
X8930611Y-7322922D01*
X8930611Y-7322922D02*
X8921087Y-7332446D01*
X8921087Y-7332446D02*
X8911563Y-7322922D01*
X8911563Y-7322922D02*
X8921087Y-7313398D01*
X8921087Y-7313398D02*
X8921087Y-7332446D01*
D12*
X7258881Y-7750724D02*
X7288881Y-7780724D01*
X7288881Y-7750724D02*
X7258881Y-7780724D01*
D11*
X7587753Y-7657208D02*
X7606801Y-7657208D01*
X7606801Y-7657208D02*
X7625849Y-7666732D01*
X7625849Y-7666732D02*
X7635372Y-7676256D01*
X7635372Y-7676256D02*
X7644896Y-7695303D01*
X7644896Y-7695303D02*
X7654420Y-7733398D01*
X7654420Y-7733398D02*
X7654420Y-7781018D01*
X7654420Y-7781018D02*
X7644896Y-7819113D01*
X7644896Y-7819113D02*
X7635372Y-7838160D01*
X7635372Y-7838160D02*
X7625849Y-7847684D01*
X7625849Y-7847684D02*
X7606801Y-7857208D01*
X7606801Y-7857208D02*
X7587753Y-7857208D01*
X7587753Y-7857208D02*
X7568706Y-7847684D01*
X7568706Y-7847684D02*
X7559182Y-7838160D01*
X7559182Y-7838160D02*
X7549658Y-7819113D01*
X7549658Y-7819113D02*
X7540134Y-7781018D01*
X7540134Y-7781018D02*
X7540134Y-7733398D01*
X7540134Y-7733398D02*
X7549658Y-7695303D01*
X7549658Y-7695303D02*
X7559182Y-7676256D01*
X7559182Y-7676256D02*
X7568706Y-7666732D01*
X7568706Y-7666732D02*
X7587753Y-7657208D01*
X7740134Y-7838160D02*
X7749658Y-7847684D01*
X7749658Y-7847684D02*
X7740134Y-7857208D01*
X7740134Y-7857208D02*
X7730610Y-7847684D01*
X7730610Y-7847684D02*
X7740134Y-7838160D01*
X7740134Y-7838160D02*
X7740134Y-7857208D01*
X7816325Y-7657208D02*
X7940134Y-7657208D01*
X7940134Y-7657208D02*
X7873468Y-7733398D01*
X7873468Y-7733398D02*
X7902039Y-7733398D01*
X7902039Y-7733398D02*
X7921087Y-7742922D01*
X7921087Y-7742922D02*
X7930610Y-7752446D01*
X7930610Y-7752446D02*
X7940134Y-7771494D01*
X7940134Y-7771494D02*
X7940134Y-7819113D01*
X7940134Y-7819113D02*
X7930610Y-7838160D01*
X7930610Y-7838160D02*
X7921087Y-7847684D01*
X7921087Y-7847684D02*
X7902039Y-7857208D01*
X7902039Y-7857208D02*
X7844896Y-7857208D01*
X7844896Y-7857208D02*
X7825849Y-7847684D01*
X7825849Y-7847684D02*
X7816325Y-7838160D01*
X8063944Y-7657208D02*
X8082991Y-7657208D01*
X8082991Y-7657208D02*
X8102039Y-7666732D01*
X8102039Y-7666732D02*
X8111563Y-7676256D01*
X8111563Y-7676256D02*
X8121087Y-7695303D01*
X8121087Y-7695303D02*
X8130610Y-7733398D01*
X8130610Y-7733398D02*
X8130610Y-7781018D01*
X8130610Y-7781018D02*
X8121087Y-7819113D01*
X8121087Y-7819113D02*
X8111563Y-7838160D01*
X8111563Y-7838160D02*
X8102039Y-7847684D01*
X8102039Y-7847684D02*
X8082991Y-7857208D01*
X8082991Y-7857208D02*
X8063944Y-7857208D01*
X8063944Y-7857208D02*
X8044896Y-7847684D01*
X8044896Y-7847684D02*
X8035372Y-7838160D01*
X8035372Y-7838160D02*
X8025849Y-7819113D01*
X8025849Y-7819113D02*
X8016325Y-7781018D01*
X8016325Y-7781018D02*
X8016325Y-7733398D01*
X8016325Y-7733398D02*
X8025849Y-7695303D01*
X8025849Y-7695303D02*
X8035372Y-7676256D01*
X8035372Y-7676256D02*
X8044896Y-7666732D01*
X8044896Y-7666732D02*
X8063944Y-7657208D01*
X8254420Y-7657208D02*
X8273468Y-7657208D01*
X8273468Y-7657208D02*
X8292515Y-7666732D01*
X8292515Y-7666732D02*
X8302039Y-7676256D01*
X8302039Y-7676256D02*
X8311563Y-7695303D01*
X8311563Y-7695303D02*
X8321087Y-7733398D01*
X8321087Y-7733398D02*
X8321087Y-7781018D01*
X8321087Y-7781018D02*
X8311563Y-7819113D01*
X8311563Y-7819113D02*
X8302039Y-7838160D01*
X8302039Y-7838160D02*
X8292515Y-7847684D01*
X8292515Y-7847684D02*
X8273468Y-7857208D01*
X8273468Y-7857208D02*
X8254420Y-7857208D01*
X8254420Y-7857208D02*
X8235372Y-7847684D01*
X8235372Y-7847684D02*
X8225849Y-7838160D01*
X8225849Y-7838160D02*
X8216325Y-7819113D01*
X8216325Y-7819113D02*
X8206801Y-7781018D01*
X8206801Y-7781018D02*
X8206801Y-7733398D01*
X8206801Y-7733398D02*
X8216325Y-7695303D01*
X8216325Y-7695303D02*
X8225849Y-7676256D01*
X8225849Y-7676256D02*
X8235372Y-7666732D01*
X8235372Y-7666732D02*
X8254420Y-7657208D01*
X8406801Y-7857208D02*
X8406801Y-7723875D01*
X8406801Y-7742922D02*
X8416325Y-7733398D01*
X8416325Y-7733398D02*
X8435372Y-7723875D01*
X8435372Y-7723875D02*
X8463944Y-7723875D01*
X8463944Y-7723875D02*
X8482992Y-7733398D01*
X8482992Y-7733398D02*
X8492515Y-7752446D01*
X8492515Y-7752446D02*
X8492515Y-7857208D01*
X8492515Y-7752446D02*
X8502039Y-7733398D01*
X8502039Y-7733398D02*
X8521087Y-7723875D01*
X8521087Y-7723875D02*
X8549658Y-7723875D01*
X8549658Y-7723875D02*
X8568706Y-7733398D01*
X8568706Y-7733398D02*
X8578230Y-7752446D01*
X8578230Y-7752446D02*
X8578230Y-7857208D01*
X8673468Y-7857208D02*
X8673468Y-7723875D01*
X8673468Y-7742922D02*
X8682992Y-7733398D01*
X8682992Y-7733398D02*
X8702039Y-7723875D01*
X8702039Y-7723875D02*
X8730611Y-7723875D01*
X8730611Y-7723875D02*
X8749658Y-7733398D01*
X8749658Y-7733398D02*
X8759182Y-7752446D01*
X8759182Y-7752446D02*
X8759182Y-7857208D01*
X8759182Y-7752446D02*
X8768706Y-7733398D01*
X8768706Y-7733398D02*
X8787753Y-7723875D01*
X8787753Y-7723875D02*
X8816325Y-7723875D01*
X8816325Y-7723875D02*
X8835373Y-7733398D01*
X8835373Y-7733398D02*
X8844896Y-7752446D01*
X8844896Y-7752446D02*
X8844896Y-7857208D01*
X9235373Y-7647684D02*
X9063944Y-7904827D01*
X9492515Y-7657208D02*
X9511563Y-7657208D01*
X9511563Y-7657208D02*
X9530611Y-7666732D01*
X9530611Y-7666732D02*
X9540135Y-7676256D01*
X9540135Y-7676256D02*
X9549658Y-7695303D01*
X9549658Y-7695303D02*
X9559182Y-7733398D01*
X9559182Y-7733398D02*
X9559182Y-7781018D01*
X9559182Y-7781018D02*
X9549658Y-7819113D01*
X9549658Y-7819113D02*
X9540135Y-7838160D01*
X9540135Y-7838160D02*
X9530611Y-7847684D01*
X9530611Y-7847684D02*
X9511563Y-7857208D01*
X9511563Y-7857208D02*
X9492515Y-7857208D01*
X9492515Y-7857208D02*
X9473468Y-7847684D01*
X9473468Y-7847684D02*
X9463944Y-7838160D01*
X9463944Y-7838160D02*
X9454420Y-7819113D01*
X9454420Y-7819113D02*
X9444896Y-7781018D01*
X9444896Y-7781018D02*
X9444896Y-7733398D01*
X9444896Y-7733398D02*
X9454420Y-7695303D01*
X9454420Y-7695303D02*
X9463944Y-7676256D01*
X9463944Y-7676256D02*
X9473468Y-7666732D01*
X9473468Y-7666732D02*
X9492515Y-7657208D01*
X9644896Y-7838160D02*
X9654420Y-7847684D01*
X9654420Y-7847684D02*
X9644896Y-7857208D01*
X9644896Y-7857208D02*
X9635373Y-7847684D01*
X9635373Y-7847684D02*
X9644896Y-7838160D01*
X9644896Y-7838160D02*
X9644896Y-7857208D01*
X9778230Y-7657208D02*
X9797277Y-7657208D01*
X9797277Y-7657208D02*
X9816325Y-7666732D01*
X9816325Y-7666732D02*
X9825849Y-7676256D01*
X9825849Y-7676256D02*
X9835373Y-7695303D01*
X9835373Y-7695303D02*
X9844896Y-7733398D01*
X9844896Y-7733398D02*
X9844896Y-7781018D01*
X9844896Y-7781018D02*
X9835373Y-7819113D01*
X9835373Y-7819113D02*
X9825849Y-7838160D01*
X9825849Y-7838160D02*
X9816325Y-7847684D01*
X9816325Y-7847684D02*
X9797277Y-7857208D01*
X9797277Y-7857208D02*
X9778230Y-7857208D01*
X9778230Y-7857208D02*
X9759182Y-7847684D01*
X9759182Y-7847684D02*
X9749658Y-7838160D01*
X9749658Y-7838160D02*
X9740135Y-7819113D01*
X9740135Y-7819113D02*
X9730611Y-7781018D01*
X9730611Y-7781018D02*
X9730611Y-7733398D01*
X9730611Y-7733398D02*
X9740135Y-7695303D01*
X9740135Y-7695303D02*
X9749658Y-7676256D01*
X9749658Y-7676256D02*
X9759182Y-7666732D01*
X9759182Y-7666732D02*
X9778230Y-7657208D01*
X10035373Y-7857208D02*
X9921087Y-7857208D01*
X9978230Y-7857208D02*
X9978230Y-7657208D01*
X9978230Y-7657208D02*
X9959182Y-7685779D01*
X9959182Y-7685779D02*
X9940135Y-7704827D01*
X9940135Y-7704827D02*
X9921087Y-7714351D01*
X10225849Y-7857208D02*
X10111563Y-7857208D01*
X10168706Y-7857208D02*
X10168706Y-7657208D01*
X10168706Y-7657208D02*
X10149658Y-7685779D01*
X10149658Y-7685779D02*
X10130611Y-7704827D01*
X10130611Y-7704827D02*
X10111563Y-7714351D01*
X10340135Y-7742922D02*
X10321087Y-7733398D01*
X10321087Y-7733398D02*
X10311563Y-7723875D01*
X10311563Y-7723875D02*
X10302039Y-7704827D01*
X10302039Y-7704827D02*
X10302039Y-7695303D01*
X10302039Y-7695303D02*
X10311563Y-7676256D01*
X10311563Y-7676256D02*
X10321087Y-7666732D01*
X10321087Y-7666732D02*
X10340135Y-7657208D01*
X10340135Y-7657208D02*
X10378230Y-7657208D01*
X10378230Y-7657208D02*
X10397277Y-7666732D01*
X10397277Y-7666732D02*
X10406801Y-7676256D01*
X10406801Y-7676256D02*
X10416325Y-7695303D01*
X10416325Y-7695303D02*
X10416325Y-7704827D01*
X10416325Y-7704827D02*
X10406801Y-7723875D01*
X10406801Y-7723875D02*
X10397277Y-7733398D01*
X10397277Y-7733398D02*
X10378230Y-7742922D01*
X10378230Y-7742922D02*
X10340135Y-7742922D01*
X10340135Y-7742922D02*
X10321087Y-7752446D01*
X10321087Y-7752446D02*
X10311563Y-7761970D01*
X10311563Y-7761970D02*
X10302039Y-7781018D01*
X10302039Y-7781018D02*
X10302039Y-7819113D01*
X10302039Y-7819113D02*
X10311563Y-7838160D01*
X10311563Y-7838160D02*
X10321087Y-7847684D01*
X10321087Y-7847684D02*
X10340135Y-7857208D01*
X10340135Y-7857208D02*
X10378230Y-7857208D01*
X10378230Y-7857208D02*
X10397277Y-7847684D01*
X10397277Y-7847684D02*
X10406801Y-7838160D01*
X10406801Y-7838160D02*
X10416325Y-7819113D01*
X10416325Y-7819113D02*
X10416325Y-7781018D01*
X10416325Y-7781018D02*
X10406801Y-7761970D01*
X10406801Y-7761970D02*
X10397277Y-7752446D01*
X10397277Y-7752446D02*
X10378230Y-7742922D01*
X10492516Y-7657208D02*
X10492516Y-7695303D01*
X10568706Y-7657208D02*
X10568706Y-7695303D01*
X10863944Y-7933398D02*
X10854420Y-7923875D01*
X10854420Y-7923875D02*
X10835373Y-7895303D01*
X10835373Y-7895303D02*
X10825849Y-7876256D01*
X10825849Y-7876256D02*
X10816325Y-7847684D01*
X10816325Y-7847684D02*
X10806801Y-7800065D01*
X10806801Y-7800065D02*
X10806801Y-7761970D01*
X10806801Y-7761970D02*
X10816325Y-7714351D01*
X10816325Y-7714351D02*
X10825849Y-7685779D01*
X10825849Y-7685779D02*
X10835373Y-7666732D01*
X10835373Y-7666732D02*
X10854420Y-7638160D01*
X10854420Y-7638160D02*
X10863944Y-7628637D01*
X10930611Y-7676256D02*
X10940135Y-7666732D01*
X10940135Y-7666732D02*
X10959182Y-7657208D01*
X10959182Y-7657208D02*
X11006801Y-7657208D01*
X11006801Y-7657208D02*
X11025849Y-7666732D01*
X11025849Y-7666732D02*
X11035373Y-7676256D01*
X11035373Y-7676256D02*
X11044897Y-7695303D01*
X11044897Y-7695303D02*
X11044897Y-7714351D01*
X11044897Y-7714351D02*
X11035373Y-7742922D01*
X11035373Y-7742922D02*
X10921087Y-7857208D01*
X10921087Y-7857208D02*
X11044897Y-7857208D01*
X11282992Y-7857208D02*
X11282992Y-7657208D01*
X11368706Y-7857208D02*
X11368706Y-7752446D01*
X11368706Y-7752446D02*
X11359182Y-7733398D01*
X11359182Y-7733398D02*
X11340135Y-7723875D01*
X11340135Y-7723875D02*
X11311563Y-7723875D01*
X11311563Y-7723875D02*
X11292516Y-7733398D01*
X11292516Y-7733398D02*
X11282992Y-7742922D01*
X11492516Y-7857208D02*
X11473468Y-7847684D01*
X11473468Y-7847684D02*
X11463944Y-7838160D01*
X11463944Y-7838160D02*
X11454420Y-7819113D01*
X11454420Y-7819113D02*
X11454420Y-7761970D01*
X11454420Y-7761970D02*
X11463944Y-7742922D01*
X11463944Y-7742922D02*
X11473468Y-7733398D01*
X11473468Y-7733398D02*
X11492516Y-7723875D01*
X11492516Y-7723875D02*
X11521087Y-7723875D01*
X11521087Y-7723875D02*
X11540135Y-7733398D01*
X11540135Y-7733398D02*
X11549658Y-7742922D01*
X11549658Y-7742922D02*
X11559182Y-7761970D01*
X11559182Y-7761970D02*
X11559182Y-7819113D01*
X11559182Y-7819113D02*
X11549658Y-7838160D01*
X11549658Y-7838160D02*
X11540135Y-7847684D01*
X11540135Y-7847684D02*
X11521087Y-7857208D01*
X11521087Y-7857208D02*
X11492516Y-7857208D01*
X11673468Y-7857208D02*
X11654420Y-7847684D01*
X11654420Y-7847684D02*
X11644897Y-7828637D01*
X11644897Y-7828637D02*
X11644897Y-7657208D01*
X11825849Y-7847684D02*
X11806801Y-7857208D01*
X11806801Y-7857208D02*
X11768706Y-7857208D01*
X11768706Y-7857208D02*
X11749658Y-7847684D01*
X11749658Y-7847684D02*
X11740135Y-7828637D01*
X11740135Y-7828637D02*
X11740135Y-7752446D01*
X11740135Y-7752446D02*
X11749658Y-7733398D01*
X11749658Y-7733398D02*
X11768706Y-7723875D01*
X11768706Y-7723875D02*
X11806801Y-7723875D01*
X11806801Y-7723875D02*
X11825849Y-7733398D01*
X11825849Y-7733398D02*
X11835373Y-7752446D01*
X11835373Y-7752446D02*
X11835373Y-7771494D01*
X11835373Y-7771494D02*
X11740135Y-7790541D01*
X11911563Y-7847684D02*
X11930611Y-7857208D01*
X11930611Y-7857208D02*
X11968706Y-7857208D01*
X11968706Y-7857208D02*
X11987754Y-7847684D01*
X11987754Y-7847684D02*
X11997278Y-7828637D01*
X11997278Y-7828637D02*
X11997278Y-7819113D01*
X11997278Y-7819113D02*
X11987754Y-7800065D01*
X11987754Y-7800065D02*
X11968706Y-7790541D01*
X11968706Y-7790541D02*
X11940135Y-7790541D01*
X11940135Y-7790541D02*
X11921087Y-7781018D01*
X11921087Y-7781018D02*
X11911563Y-7761970D01*
X11911563Y-7761970D02*
X11911563Y-7752446D01*
X11911563Y-7752446D02*
X11921087Y-7733398D01*
X11921087Y-7733398D02*
X11940135Y-7723875D01*
X11940135Y-7723875D02*
X11968706Y-7723875D01*
X11968706Y-7723875D02*
X11987754Y-7733398D01*
X12063944Y-7933398D02*
X12073468Y-7923875D01*
X12073468Y-7923875D02*
X12092516Y-7895303D01*
X12092516Y-7895303D02*
X12102039Y-7876256D01*
X12102039Y-7876256D02*
X12111563Y-7847684D01*
X12111563Y-7847684D02*
X12121087Y-7800065D01*
X12121087Y-7800065D02*
X12121087Y-7761970D01*
X12121087Y-7761970D02*
X12111563Y-7714351D01*
X12111563Y-7714351D02*
X12102039Y-7685779D01*
X12102039Y-7685779D02*
X12092516Y-7666732D01*
X12092516Y-7666732D02*
X12073468Y-7638160D01*
X12073468Y-7638160D02*
X12063944Y-7628637D01*
D12*
X7288881Y-8029724D02*
G75*
G02*
X7248881Y-8029724I-20000J0D01*
G01*
X7248881Y-8029724D02*
G75*
G02*
X7288881Y-8029724I20000J0D01*
G01*
D11*
X7587753Y-7921208D02*
X7606801Y-7921208D01*
X7606801Y-7921208D02*
X7625849Y-7930732D01*
X7625849Y-7930732D02*
X7635372Y-7940256D01*
X7635372Y-7940256D02*
X7644896Y-7959303D01*
X7644896Y-7959303D02*
X7654420Y-7997398D01*
X7654420Y-7997398D02*
X7654420Y-8045018D01*
X7654420Y-8045018D02*
X7644896Y-8083113D01*
X7644896Y-8083113D02*
X7635372Y-8102160D01*
X7635372Y-8102160D02*
X7625849Y-8111684D01*
X7625849Y-8111684D02*
X7606801Y-8121208D01*
X7606801Y-8121208D02*
X7587753Y-8121208D01*
X7587753Y-8121208D02*
X7568706Y-8111684D01*
X7568706Y-8111684D02*
X7559182Y-8102160D01*
X7559182Y-8102160D02*
X7549658Y-8083113D01*
X7549658Y-8083113D02*
X7540134Y-8045018D01*
X7540134Y-8045018D02*
X7540134Y-7997398D01*
X7540134Y-7997398D02*
X7549658Y-7959303D01*
X7549658Y-7959303D02*
X7559182Y-7940256D01*
X7559182Y-7940256D02*
X7568706Y-7930732D01*
X7568706Y-7930732D02*
X7587753Y-7921208D01*
X7740134Y-8102160D02*
X7749658Y-8111684D01*
X7749658Y-8111684D02*
X7740134Y-8121208D01*
X7740134Y-8121208D02*
X7730610Y-8111684D01*
X7730610Y-8111684D02*
X7740134Y-8102160D01*
X7740134Y-8102160D02*
X7740134Y-8121208D01*
X7921087Y-7987875D02*
X7921087Y-8121208D01*
X7873468Y-7911684D02*
X7825849Y-8054541D01*
X7825849Y-8054541D02*
X7949658Y-8054541D01*
X8063944Y-7921208D02*
X8082991Y-7921208D01*
X8082991Y-7921208D02*
X8102039Y-7930732D01*
X8102039Y-7930732D02*
X8111563Y-7940256D01*
X8111563Y-7940256D02*
X8121087Y-7959303D01*
X8121087Y-7959303D02*
X8130610Y-7997398D01*
X8130610Y-7997398D02*
X8130610Y-8045018D01*
X8130610Y-8045018D02*
X8121087Y-8083113D01*
X8121087Y-8083113D02*
X8111563Y-8102160D01*
X8111563Y-8102160D02*
X8102039Y-8111684D01*
X8102039Y-8111684D02*
X8082991Y-8121208D01*
X8082991Y-8121208D02*
X8063944Y-8121208D01*
X8063944Y-8121208D02*
X8044896Y-8111684D01*
X8044896Y-8111684D02*
X8035372Y-8102160D01*
X8035372Y-8102160D02*
X8025849Y-8083113D01*
X8025849Y-8083113D02*
X8016325Y-8045018D01*
X8016325Y-8045018D02*
X8016325Y-7997398D01*
X8016325Y-7997398D02*
X8025849Y-7959303D01*
X8025849Y-7959303D02*
X8035372Y-7940256D01*
X8035372Y-7940256D02*
X8044896Y-7930732D01*
X8044896Y-7930732D02*
X8063944Y-7921208D01*
X8254420Y-7921208D02*
X8273468Y-7921208D01*
X8273468Y-7921208D02*
X8292515Y-7930732D01*
X8292515Y-7930732D02*
X8302039Y-7940256D01*
X8302039Y-7940256D02*
X8311563Y-7959303D01*
X8311563Y-7959303D02*
X8321087Y-7997398D01*
X8321087Y-7997398D02*
X8321087Y-8045018D01*
X8321087Y-8045018D02*
X8311563Y-8083113D01*
X8311563Y-8083113D02*
X8302039Y-8102160D01*
X8302039Y-8102160D02*
X8292515Y-8111684D01*
X8292515Y-8111684D02*
X8273468Y-8121208D01*
X8273468Y-8121208D02*
X8254420Y-8121208D01*
X8254420Y-8121208D02*
X8235372Y-8111684D01*
X8235372Y-8111684D02*
X8225849Y-8102160D01*
X8225849Y-8102160D02*
X8216325Y-8083113D01*
X8216325Y-8083113D02*
X8206801Y-8045018D01*
X8206801Y-8045018D02*
X8206801Y-7997398D01*
X8206801Y-7997398D02*
X8216325Y-7959303D01*
X8216325Y-7959303D02*
X8225849Y-7940256D01*
X8225849Y-7940256D02*
X8235372Y-7930732D01*
X8235372Y-7930732D02*
X8254420Y-7921208D01*
X8406801Y-8121208D02*
X8406801Y-7987875D01*
X8406801Y-8006922D02*
X8416325Y-7997398D01*
X8416325Y-7997398D02*
X8435372Y-7987875D01*
X8435372Y-7987875D02*
X8463944Y-7987875D01*
X8463944Y-7987875D02*
X8482992Y-7997398D01*
X8482992Y-7997398D02*
X8492515Y-8016446D01*
X8492515Y-8016446D02*
X8492515Y-8121208D01*
X8492515Y-8016446D02*
X8502039Y-7997398D01*
X8502039Y-7997398D02*
X8521087Y-7987875D01*
X8521087Y-7987875D02*
X8549658Y-7987875D01*
X8549658Y-7987875D02*
X8568706Y-7997398D01*
X8568706Y-7997398D02*
X8578230Y-8016446D01*
X8578230Y-8016446D02*
X8578230Y-8121208D01*
X8673468Y-8121208D02*
X8673468Y-7987875D01*
X8673468Y-8006922D02*
X8682992Y-7997398D01*
X8682992Y-7997398D02*
X8702039Y-7987875D01*
X8702039Y-7987875D02*
X8730611Y-7987875D01*
X8730611Y-7987875D02*
X8749658Y-7997398D01*
X8749658Y-7997398D02*
X8759182Y-8016446D01*
X8759182Y-8016446D02*
X8759182Y-8121208D01*
X8759182Y-8016446D02*
X8768706Y-7997398D01*
X8768706Y-7997398D02*
X8787753Y-7987875D01*
X8787753Y-7987875D02*
X8816325Y-7987875D01*
X8816325Y-7987875D02*
X8835373Y-7997398D01*
X8835373Y-7997398D02*
X8844896Y-8016446D01*
X8844896Y-8016446D02*
X8844896Y-8121208D01*
X9235373Y-7911684D02*
X9063944Y-8168827D01*
X9492515Y-7921208D02*
X9511563Y-7921208D01*
X9511563Y-7921208D02*
X9530611Y-7930732D01*
X9530611Y-7930732D02*
X9540135Y-7940256D01*
X9540135Y-7940256D02*
X9549658Y-7959303D01*
X9549658Y-7959303D02*
X9559182Y-7997398D01*
X9559182Y-7997398D02*
X9559182Y-8045018D01*
X9559182Y-8045018D02*
X9549658Y-8083113D01*
X9549658Y-8083113D02*
X9540135Y-8102160D01*
X9540135Y-8102160D02*
X9530611Y-8111684D01*
X9530611Y-8111684D02*
X9511563Y-8121208D01*
X9511563Y-8121208D02*
X9492515Y-8121208D01*
X9492515Y-8121208D02*
X9473468Y-8111684D01*
X9473468Y-8111684D02*
X9463944Y-8102160D01*
X9463944Y-8102160D02*
X9454420Y-8083113D01*
X9454420Y-8083113D02*
X9444896Y-8045018D01*
X9444896Y-8045018D02*
X9444896Y-7997398D01*
X9444896Y-7997398D02*
X9454420Y-7959303D01*
X9454420Y-7959303D02*
X9463944Y-7940256D01*
X9463944Y-7940256D02*
X9473468Y-7930732D01*
X9473468Y-7930732D02*
X9492515Y-7921208D01*
X9644896Y-8102160D02*
X9654420Y-8111684D01*
X9654420Y-8111684D02*
X9644896Y-8121208D01*
X9644896Y-8121208D02*
X9635373Y-8111684D01*
X9635373Y-8111684D02*
X9644896Y-8102160D01*
X9644896Y-8102160D02*
X9644896Y-8121208D01*
X9778230Y-7921208D02*
X9797277Y-7921208D01*
X9797277Y-7921208D02*
X9816325Y-7930732D01*
X9816325Y-7930732D02*
X9825849Y-7940256D01*
X9825849Y-7940256D02*
X9835373Y-7959303D01*
X9835373Y-7959303D02*
X9844896Y-7997398D01*
X9844896Y-7997398D02*
X9844896Y-8045018D01*
X9844896Y-8045018D02*
X9835373Y-8083113D01*
X9835373Y-8083113D02*
X9825849Y-8102160D01*
X9825849Y-8102160D02*
X9816325Y-8111684D01*
X9816325Y-8111684D02*
X9797277Y-8121208D01*
X9797277Y-8121208D02*
X9778230Y-8121208D01*
X9778230Y-8121208D02*
X9759182Y-8111684D01*
X9759182Y-8111684D02*
X9749658Y-8102160D01*
X9749658Y-8102160D02*
X9740135Y-8083113D01*
X9740135Y-8083113D02*
X9730611Y-8045018D01*
X9730611Y-8045018D02*
X9730611Y-7997398D01*
X9730611Y-7997398D02*
X9740135Y-7959303D01*
X9740135Y-7959303D02*
X9749658Y-7940256D01*
X9749658Y-7940256D02*
X9759182Y-7930732D01*
X9759182Y-7930732D02*
X9778230Y-7921208D01*
X10035373Y-8121208D02*
X9921087Y-8121208D01*
X9978230Y-8121208D02*
X9978230Y-7921208D01*
X9978230Y-7921208D02*
X9959182Y-7949779D01*
X9959182Y-7949779D02*
X9940135Y-7968827D01*
X9940135Y-7968827D02*
X9921087Y-7978351D01*
X10216325Y-7921208D02*
X10121087Y-7921208D01*
X10121087Y-7921208D02*
X10111563Y-8016446D01*
X10111563Y-8016446D02*
X10121087Y-8006922D01*
X10121087Y-8006922D02*
X10140135Y-7997398D01*
X10140135Y-7997398D02*
X10187754Y-7997398D01*
X10187754Y-7997398D02*
X10206801Y-8006922D01*
X10206801Y-8006922D02*
X10216325Y-8016446D01*
X10216325Y-8016446D02*
X10225849Y-8035494D01*
X10225849Y-8035494D02*
X10225849Y-8083113D01*
X10225849Y-8083113D02*
X10216325Y-8102160D01*
X10216325Y-8102160D02*
X10206801Y-8111684D01*
X10206801Y-8111684D02*
X10187754Y-8121208D01*
X10187754Y-8121208D02*
X10140135Y-8121208D01*
X10140135Y-8121208D02*
X10121087Y-8111684D01*
X10121087Y-8111684D02*
X10111563Y-8102160D01*
X10292516Y-7921208D02*
X10425849Y-7921208D01*
X10425849Y-7921208D02*
X10340135Y-8121208D01*
X10492516Y-7921208D02*
X10492516Y-7959303D01*
X10568706Y-7921208D02*
X10568706Y-7959303D01*
X10863944Y-8197398D02*
X10854420Y-8187875D01*
X10854420Y-8187875D02*
X10835373Y-8159303D01*
X10835373Y-8159303D02*
X10825849Y-8140256D01*
X10825849Y-8140256D02*
X10816325Y-8111684D01*
X10816325Y-8111684D02*
X10806801Y-8064065D01*
X10806801Y-8064065D02*
X10806801Y-8025970D01*
X10806801Y-8025970D02*
X10816325Y-7978351D01*
X10816325Y-7978351D02*
X10825849Y-7949779D01*
X10825849Y-7949779D02*
X10835373Y-7930732D01*
X10835373Y-7930732D02*
X10854420Y-7902160D01*
X10854420Y-7902160D02*
X10863944Y-7892637D01*
X10921087Y-7921208D02*
X11044897Y-7921208D01*
X11044897Y-7921208D02*
X10978230Y-7997398D01*
X10978230Y-7997398D02*
X11006801Y-7997398D01*
X11006801Y-7997398D02*
X11025849Y-8006922D01*
X11025849Y-8006922D02*
X11035373Y-8016446D01*
X11035373Y-8016446D02*
X11044897Y-8035494D01*
X11044897Y-8035494D02*
X11044897Y-8083113D01*
X11044897Y-8083113D02*
X11035373Y-8102160D01*
X11035373Y-8102160D02*
X11025849Y-8111684D01*
X11025849Y-8111684D02*
X11006801Y-8121208D01*
X11006801Y-8121208D02*
X10949658Y-8121208D01*
X10949658Y-8121208D02*
X10930611Y-8111684D01*
X10930611Y-8111684D02*
X10921087Y-8102160D01*
X11121087Y-7940256D02*
X11130611Y-7930732D01*
X11130611Y-7930732D02*
X11149658Y-7921208D01*
X11149658Y-7921208D02*
X11197277Y-7921208D01*
X11197277Y-7921208D02*
X11216325Y-7930732D01*
X11216325Y-7930732D02*
X11225849Y-7940256D01*
X11225849Y-7940256D02*
X11235373Y-7959303D01*
X11235373Y-7959303D02*
X11235373Y-7978351D01*
X11235373Y-7978351D02*
X11225849Y-8006922D01*
X11225849Y-8006922D02*
X11111563Y-8121208D01*
X11111563Y-8121208D02*
X11235373Y-8121208D01*
X11473468Y-8121208D02*
X11473468Y-7921208D01*
X11559182Y-8121208D02*
X11559182Y-8016446D01*
X11559182Y-8016446D02*
X11549658Y-7997398D01*
X11549658Y-7997398D02*
X11530611Y-7987875D01*
X11530611Y-7987875D02*
X11502039Y-7987875D01*
X11502039Y-7987875D02*
X11482992Y-7997398D01*
X11482992Y-7997398D02*
X11473468Y-8006922D01*
X11682992Y-8121208D02*
X11663944Y-8111684D01*
X11663944Y-8111684D02*
X11654420Y-8102160D01*
X11654420Y-8102160D02*
X11644897Y-8083113D01*
X11644897Y-8083113D02*
X11644897Y-8025970D01*
X11644897Y-8025970D02*
X11654420Y-8006922D01*
X11654420Y-8006922D02*
X11663944Y-7997398D01*
X11663944Y-7997398D02*
X11682992Y-7987875D01*
X11682992Y-7987875D02*
X11711563Y-7987875D01*
X11711563Y-7987875D02*
X11730611Y-7997398D01*
X11730611Y-7997398D02*
X11740135Y-8006922D01*
X11740135Y-8006922D02*
X11749658Y-8025970D01*
X11749658Y-8025970D02*
X11749658Y-8083113D01*
X11749658Y-8083113D02*
X11740135Y-8102160D01*
X11740135Y-8102160D02*
X11730611Y-8111684D01*
X11730611Y-8111684D02*
X11711563Y-8121208D01*
X11711563Y-8121208D02*
X11682992Y-8121208D01*
X11863944Y-8121208D02*
X11844897Y-8111684D01*
X11844897Y-8111684D02*
X11835373Y-8092637D01*
X11835373Y-8092637D02*
X11835373Y-7921208D01*
X12016325Y-8111684D02*
X11997278Y-8121208D01*
X11997278Y-8121208D02*
X11959182Y-8121208D01*
X11959182Y-8121208D02*
X11940135Y-8111684D01*
X11940135Y-8111684D02*
X11930611Y-8092637D01*
X11930611Y-8092637D02*
X11930611Y-8016446D01*
X11930611Y-8016446D02*
X11940135Y-7997398D01*
X11940135Y-7997398D02*
X11959182Y-7987875D01*
X11959182Y-7987875D02*
X11997278Y-7987875D01*
X11997278Y-7987875D02*
X12016325Y-7997398D01*
X12016325Y-7997398D02*
X12025849Y-8016446D01*
X12025849Y-8016446D02*
X12025849Y-8035494D01*
X12025849Y-8035494D02*
X11930611Y-8054541D01*
X12102039Y-8111684D02*
X12121087Y-8121208D01*
X12121087Y-8121208D02*
X12159182Y-8121208D01*
X12159182Y-8121208D02*
X12178230Y-8111684D01*
X12178230Y-8111684D02*
X12187754Y-8092637D01*
X12187754Y-8092637D02*
X12187754Y-8083113D01*
X12187754Y-8083113D02*
X12178230Y-8064065D01*
X12178230Y-8064065D02*
X12159182Y-8054541D01*
X12159182Y-8054541D02*
X12130611Y-8054541D01*
X12130611Y-8054541D02*
X12111563Y-8045018D01*
X12111563Y-8045018D02*
X12102039Y-8025970D01*
X12102039Y-8025970D02*
X12102039Y-8016446D01*
X12102039Y-8016446D02*
X12111563Y-7997398D01*
X12111563Y-7997398D02*
X12130611Y-7987875D01*
X12130611Y-7987875D02*
X12159182Y-7987875D01*
X12159182Y-7987875D02*
X12178230Y-7997398D01*
X12254420Y-8197398D02*
X12263944Y-8187875D01*
X12263944Y-8187875D02*
X12282992Y-8159303D01*
X12282992Y-8159303D02*
X12292516Y-8140256D01*
X12292516Y-8140256D02*
X12302039Y-8111684D01*
X12302039Y-8111684D02*
X12311563Y-8064065D01*
X12311563Y-8064065D02*
X12311563Y-8025970D01*
X12311563Y-8025970D02*
X12302039Y-7978351D01*
X12302039Y-7978351D02*
X12292516Y-7949779D01*
X12292516Y-7949779D02*
X12282992Y-7930732D01*
X12282992Y-7930732D02*
X12263944Y-7902160D01*
X12263944Y-7902160D02*
X12254420Y-7892637D01*
D13*
X7233881Y-8238724D02*
X7233881Y-8348724D01*
X7178881Y-8293724D02*
X7288881Y-8293724D01*
D11*
X7654420Y-8385208D02*
X7540134Y-8385208D01*
X7597277Y-8385208D02*
X7597277Y-8185208D01*
X7597277Y-8185208D02*
X7578229Y-8213779D01*
X7578229Y-8213779D02*
X7559182Y-8232827D01*
X7559182Y-8232827D02*
X7540134Y-8242351D01*
X7740134Y-8366160D02*
X7749658Y-8375684D01*
X7749658Y-8375684D02*
X7740134Y-8385208D01*
X7740134Y-8385208D02*
X7730610Y-8375684D01*
X7730610Y-8375684D02*
X7740134Y-8366160D01*
X7740134Y-8366160D02*
X7740134Y-8385208D01*
X7940134Y-8385208D02*
X7825849Y-8385208D01*
X7882991Y-8385208D02*
X7882991Y-8185208D01*
X7882991Y-8185208D02*
X7863944Y-8213779D01*
X7863944Y-8213779D02*
X7844896Y-8232827D01*
X7844896Y-8232827D02*
X7825849Y-8242351D01*
X8063944Y-8185208D02*
X8082991Y-8185208D01*
X8082991Y-8185208D02*
X8102039Y-8194732D01*
X8102039Y-8194732D02*
X8111563Y-8204256D01*
X8111563Y-8204256D02*
X8121087Y-8223303D01*
X8121087Y-8223303D02*
X8130610Y-8261398D01*
X8130610Y-8261398D02*
X8130610Y-8309018D01*
X8130610Y-8309018D02*
X8121087Y-8347113D01*
X8121087Y-8347113D02*
X8111563Y-8366160D01*
X8111563Y-8366160D02*
X8102039Y-8375684D01*
X8102039Y-8375684D02*
X8082991Y-8385208D01*
X8082991Y-8385208D02*
X8063944Y-8385208D01*
X8063944Y-8385208D02*
X8044896Y-8375684D01*
X8044896Y-8375684D02*
X8035372Y-8366160D01*
X8035372Y-8366160D02*
X8025849Y-8347113D01*
X8025849Y-8347113D02*
X8016325Y-8309018D01*
X8016325Y-8309018D02*
X8016325Y-8261398D01*
X8016325Y-8261398D02*
X8025849Y-8223303D01*
X8025849Y-8223303D02*
X8035372Y-8204256D01*
X8035372Y-8204256D02*
X8044896Y-8194732D01*
X8044896Y-8194732D02*
X8063944Y-8185208D01*
X8254420Y-8185208D02*
X8273468Y-8185208D01*
X8273468Y-8185208D02*
X8292515Y-8194732D01*
X8292515Y-8194732D02*
X8302039Y-8204256D01*
X8302039Y-8204256D02*
X8311563Y-8223303D01*
X8311563Y-8223303D02*
X8321087Y-8261398D01*
X8321087Y-8261398D02*
X8321087Y-8309018D01*
X8321087Y-8309018D02*
X8311563Y-8347113D01*
X8311563Y-8347113D02*
X8302039Y-8366160D01*
X8302039Y-8366160D02*
X8292515Y-8375684D01*
X8292515Y-8375684D02*
X8273468Y-8385208D01*
X8273468Y-8385208D02*
X8254420Y-8385208D01*
X8254420Y-8385208D02*
X8235372Y-8375684D01*
X8235372Y-8375684D02*
X8225849Y-8366160D01*
X8225849Y-8366160D02*
X8216325Y-8347113D01*
X8216325Y-8347113D02*
X8206801Y-8309018D01*
X8206801Y-8309018D02*
X8206801Y-8261398D01*
X8206801Y-8261398D02*
X8216325Y-8223303D01*
X8216325Y-8223303D02*
X8225849Y-8204256D01*
X8225849Y-8204256D02*
X8235372Y-8194732D01*
X8235372Y-8194732D02*
X8254420Y-8185208D01*
X8406801Y-8385208D02*
X8406801Y-8251875D01*
X8406801Y-8270922D02*
X8416325Y-8261398D01*
X8416325Y-8261398D02*
X8435372Y-8251875D01*
X8435372Y-8251875D02*
X8463944Y-8251875D01*
X8463944Y-8251875D02*
X8482992Y-8261398D01*
X8482992Y-8261398D02*
X8492515Y-8280446D01*
X8492515Y-8280446D02*
X8492515Y-8385208D01*
X8492515Y-8280446D02*
X8502039Y-8261398D01*
X8502039Y-8261398D02*
X8521087Y-8251875D01*
X8521087Y-8251875D02*
X8549658Y-8251875D01*
X8549658Y-8251875D02*
X8568706Y-8261398D01*
X8568706Y-8261398D02*
X8578230Y-8280446D01*
X8578230Y-8280446D02*
X8578230Y-8385208D01*
X8673468Y-8385208D02*
X8673468Y-8251875D01*
X8673468Y-8270922D02*
X8682992Y-8261398D01*
X8682992Y-8261398D02*
X8702039Y-8251875D01*
X8702039Y-8251875D02*
X8730611Y-8251875D01*
X8730611Y-8251875D02*
X8749658Y-8261398D01*
X8749658Y-8261398D02*
X8759182Y-8280446D01*
X8759182Y-8280446D02*
X8759182Y-8385208D01*
X8759182Y-8280446D02*
X8768706Y-8261398D01*
X8768706Y-8261398D02*
X8787753Y-8251875D01*
X8787753Y-8251875D02*
X8816325Y-8251875D01*
X8816325Y-8251875D02*
X8835373Y-8261398D01*
X8835373Y-8261398D02*
X8844896Y-8280446D01*
X8844896Y-8280446D02*
X8844896Y-8385208D01*
X9235373Y-8175684D02*
X9063944Y-8432827D01*
X9492515Y-8185208D02*
X9511563Y-8185208D01*
X9511563Y-8185208D02*
X9530611Y-8194732D01*
X9530611Y-8194732D02*
X9540135Y-8204256D01*
X9540135Y-8204256D02*
X9549658Y-8223303D01*
X9549658Y-8223303D02*
X9559182Y-8261398D01*
X9559182Y-8261398D02*
X9559182Y-8309018D01*
X9559182Y-8309018D02*
X9549658Y-8347113D01*
X9549658Y-8347113D02*
X9540135Y-8366160D01*
X9540135Y-8366160D02*
X9530611Y-8375684D01*
X9530611Y-8375684D02*
X9511563Y-8385208D01*
X9511563Y-8385208D02*
X9492515Y-8385208D01*
X9492515Y-8385208D02*
X9473468Y-8375684D01*
X9473468Y-8375684D02*
X9463944Y-8366160D01*
X9463944Y-8366160D02*
X9454420Y-8347113D01*
X9454420Y-8347113D02*
X9444896Y-8309018D01*
X9444896Y-8309018D02*
X9444896Y-8261398D01*
X9444896Y-8261398D02*
X9454420Y-8223303D01*
X9454420Y-8223303D02*
X9463944Y-8204256D01*
X9463944Y-8204256D02*
X9473468Y-8194732D01*
X9473468Y-8194732D02*
X9492515Y-8185208D01*
X9644896Y-8366160D02*
X9654420Y-8375684D01*
X9654420Y-8375684D02*
X9644896Y-8385208D01*
X9644896Y-8385208D02*
X9635373Y-8375684D01*
X9635373Y-8375684D02*
X9644896Y-8366160D01*
X9644896Y-8366160D02*
X9644896Y-8385208D01*
X9778230Y-8185208D02*
X9797277Y-8185208D01*
X9797277Y-8185208D02*
X9816325Y-8194732D01*
X9816325Y-8194732D02*
X9825849Y-8204256D01*
X9825849Y-8204256D02*
X9835373Y-8223303D01*
X9835373Y-8223303D02*
X9844896Y-8261398D01*
X9844896Y-8261398D02*
X9844896Y-8309018D01*
X9844896Y-8309018D02*
X9835373Y-8347113D01*
X9835373Y-8347113D02*
X9825849Y-8366160D01*
X9825849Y-8366160D02*
X9816325Y-8375684D01*
X9816325Y-8375684D02*
X9797277Y-8385208D01*
X9797277Y-8385208D02*
X9778230Y-8385208D01*
X9778230Y-8385208D02*
X9759182Y-8375684D01*
X9759182Y-8375684D02*
X9749658Y-8366160D01*
X9749658Y-8366160D02*
X9740135Y-8347113D01*
X9740135Y-8347113D02*
X9730611Y-8309018D01*
X9730611Y-8309018D02*
X9730611Y-8261398D01*
X9730611Y-8261398D02*
X9740135Y-8223303D01*
X9740135Y-8223303D02*
X9749658Y-8204256D01*
X9749658Y-8204256D02*
X9759182Y-8194732D01*
X9759182Y-8194732D02*
X9778230Y-8185208D01*
X10016325Y-8251875D02*
X10016325Y-8385208D01*
X9968706Y-8175684D02*
X9921087Y-8318541D01*
X9921087Y-8318541D02*
X10044896Y-8318541D01*
X10102039Y-8185208D02*
X10225849Y-8185208D01*
X10225849Y-8185208D02*
X10159182Y-8261398D01*
X10159182Y-8261398D02*
X10187754Y-8261398D01*
X10187754Y-8261398D02*
X10206801Y-8270922D01*
X10206801Y-8270922D02*
X10216325Y-8280446D01*
X10216325Y-8280446D02*
X10225849Y-8299494D01*
X10225849Y-8299494D02*
X10225849Y-8347113D01*
X10225849Y-8347113D02*
X10216325Y-8366160D01*
X10216325Y-8366160D02*
X10206801Y-8375684D01*
X10206801Y-8375684D02*
X10187754Y-8385208D01*
X10187754Y-8385208D02*
X10130611Y-8385208D01*
X10130611Y-8385208D02*
X10111563Y-8375684D01*
X10111563Y-8375684D02*
X10102039Y-8366160D01*
X10292516Y-8185208D02*
X10416325Y-8185208D01*
X10416325Y-8185208D02*
X10349658Y-8261398D01*
X10349658Y-8261398D02*
X10378230Y-8261398D01*
X10378230Y-8261398D02*
X10397277Y-8270922D01*
X10397277Y-8270922D02*
X10406801Y-8280446D01*
X10406801Y-8280446D02*
X10416325Y-8299494D01*
X10416325Y-8299494D02*
X10416325Y-8347113D01*
X10416325Y-8347113D02*
X10406801Y-8366160D01*
X10406801Y-8366160D02*
X10397277Y-8375684D01*
X10397277Y-8375684D02*
X10378230Y-8385208D01*
X10378230Y-8385208D02*
X10321087Y-8385208D01*
X10321087Y-8385208D02*
X10302039Y-8375684D01*
X10302039Y-8375684D02*
X10292516Y-8366160D01*
X10492516Y-8185208D02*
X10492516Y-8223303D01*
X10568706Y-8185208D02*
X10568706Y-8223303D01*
X10863944Y-8461399D02*
X10854420Y-8451875D01*
X10854420Y-8451875D02*
X10835373Y-8423303D01*
X10835373Y-8423303D02*
X10825849Y-8404256D01*
X10825849Y-8404256D02*
X10816325Y-8375684D01*
X10816325Y-8375684D02*
X10806801Y-8328065D01*
X10806801Y-8328065D02*
X10806801Y-8289970D01*
X10806801Y-8289970D02*
X10816325Y-8242351D01*
X10816325Y-8242351D02*
X10825849Y-8213779D01*
X10825849Y-8213779D02*
X10835373Y-8194732D01*
X10835373Y-8194732D02*
X10854420Y-8166160D01*
X10854420Y-8166160D02*
X10863944Y-8156637D01*
X11035373Y-8185208D02*
X10940135Y-8185208D01*
X10940135Y-8185208D02*
X10930611Y-8280446D01*
X10930611Y-8280446D02*
X10940135Y-8270922D01*
X10940135Y-8270922D02*
X10959182Y-8261398D01*
X10959182Y-8261398D02*
X11006801Y-8261398D01*
X11006801Y-8261398D02*
X11025849Y-8270922D01*
X11025849Y-8270922D02*
X11035373Y-8280446D01*
X11035373Y-8280446D02*
X11044897Y-8299494D01*
X11044897Y-8299494D02*
X11044897Y-8347113D01*
X11044897Y-8347113D02*
X11035373Y-8366160D01*
X11035373Y-8366160D02*
X11025849Y-8375684D01*
X11025849Y-8375684D02*
X11006801Y-8385208D01*
X11006801Y-8385208D02*
X10959182Y-8385208D01*
X10959182Y-8385208D02*
X10940135Y-8375684D01*
X10940135Y-8375684D02*
X10930611Y-8366160D01*
X11282992Y-8385208D02*
X11282992Y-8185208D01*
X11368706Y-8385208D02*
X11368706Y-8280446D01*
X11368706Y-8280446D02*
X11359182Y-8261398D01*
X11359182Y-8261398D02*
X11340135Y-8251875D01*
X11340135Y-8251875D02*
X11311563Y-8251875D01*
X11311563Y-8251875D02*
X11292516Y-8261398D01*
X11292516Y-8261398D02*
X11282992Y-8270922D01*
X11492516Y-8385208D02*
X11473468Y-8375684D01*
X11473468Y-8375684D02*
X11463944Y-8366160D01*
X11463944Y-8366160D02*
X11454420Y-8347113D01*
X11454420Y-8347113D02*
X11454420Y-8289970D01*
X11454420Y-8289970D02*
X11463944Y-8270922D01*
X11463944Y-8270922D02*
X11473468Y-8261398D01*
X11473468Y-8261398D02*
X11492516Y-8251875D01*
X11492516Y-8251875D02*
X11521087Y-8251875D01*
X11521087Y-8251875D02*
X11540135Y-8261398D01*
X11540135Y-8261398D02*
X11549658Y-8270922D01*
X11549658Y-8270922D02*
X11559182Y-8289970D01*
X11559182Y-8289970D02*
X11559182Y-8347113D01*
X11559182Y-8347113D02*
X11549658Y-8366160D01*
X11549658Y-8366160D02*
X11540135Y-8375684D01*
X11540135Y-8375684D02*
X11521087Y-8385208D01*
X11521087Y-8385208D02*
X11492516Y-8385208D01*
X11673468Y-8385208D02*
X11654420Y-8375684D01*
X11654420Y-8375684D02*
X11644897Y-8356637D01*
X11644897Y-8356637D02*
X11644897Y-8185208D01*
X11825849Y-8375684D02*
X11806801Y-8385208D01*
X11806801Y-8385208D02*
X11768706Y-8385208D01*
X11768706Y-8385208D02*
X11749658Y-8375684D01*
X11749658Y-8375684D02*
X11740135Y-8356637D01*
X11740135Y-8356637D02*
X11740135Y-8280446D01*
X11740135Y-8280446D02*
X11749658Y-8261398D01*
X11749658Y-8261398D02*
X11768706Y-8251875D01*
X11768706Y-8251875D02*
X11806801Y-8251875D01*
X11806801Y-8251875D02*
X11825849Y-8261398D01*
X11825849Y-8261398D02*
X11835373Y-8280446D01*
X11835373Y-8280446D02*
X11835373Y-8299494D01*
X11835373Y-8299494D02*
X11740135Y-8318541D01*
X11911563Y-8375684D02*
X11930611Y-8385208D01*
X11930611Y-8385208D02*
X11968706Y-8385208D01*
X11968706Y-8385208D02*
X11987754Y-8375684D01*
X11987754Y-8375684D02*
X11997278Y-8356637D01*
X11997278Y-8356637D02*
X11997278Y-8347113D01*
X11997278Y-8347113D02*
X11987754Y-8328065D01*
X11987754Y-8328065D02*
X11968706Y-8318541D01*
X11968706Y-8318541D02*
X11940135Y-8318541D01*
X11940135Y-8318541D02*
X11921087Y-8309018D01*
X11921087Y-8309018D02*
X11911563Y-8289970D01*
X11911563Y-8289970D02*
X11911563Y-8280446D01*
X11911563Y-8280446D02*
X11921087Y-8261398D01*
X11921087Y-8261398D02*
X11940135Y-8251875D01*
X11940135Y-8251875D02*
X11968706Y-8251875D01*
X11968706Y-8251875D02*
X11987754Y-8261398D01*
X12063944Y-8461399D02*
X12073468Y-8451875D01*
X12073468Y-8451875D02*
X12092516Y-8423303D01*
X12092516Y-8423303D02*
X12102039Y-8404256D01*
X12102039Y-8404256D02*
X12111563Y-8375684D01*
X12111563Y-8375684D02*
X12121087Y-8328065D01*
X12121087Y-8328065D02*
X12121087Y-8289970D01*
X12121087Y-8289970D02*
X12111563Y-8242351D01*
X12111563Y-8242351D02*
X12102039Y-8213779D01*
X12102039Y-8213779D02*
X12092516Y-8194732D01*
X12092516Y-8194732D02*
X12073468Y-8166160D01*
X12073468Y-8166160D02*
X12063944Y-8156637D01*
X7259593Y-8628436D02*
X7259593Y-8487013D01*
X7118170Y-8487013D01*
X7118170Y-8628436D01*
X7259593Y-8628436D01*
X7540134Y-8468256D02*
X7549658Y-8458732D01*
X7549658Y-8458732D02*
X7568706Y-8449208D01*
X7568706Y-8449208D02*
X7616325Y-8449208D01*
X7616325Y-8449208D02*
X7635372Y-8458732D01*
X7635372Y-8458732D02*
X7644896Y-8468256D01*
X7644896Y-8468256D02*
X7654420Y-8487303D01*
X7654420Y-8487303D02*
X7654420Y-8506351D01*
X7654420Y-8506351D02*
X7644896Y-8534922D01*
X7644896Y-8534922D02*
X7530610Y-8649208D01*
X7530610Y-8649208D02*
X7654420Y-8649208D01*
X7740134Y-8630160D02*
X7749658Y-8639684D01*
X7749658Y-8639684D02*
X7740134Y-8649208D01*
X7740134Y-8649208D02*
X7730610Y-8639684D01*
X7730610Y-8639684D02*
X7740134Y-8630160D01*
X7740134Y-8630160D02*
X7740134Y-8649208D01*
X7825849Y-8468256D02*
X7835372Y-8458732D01*
X7835372Y-8458732D02*
X7854420Y-8449208D01*
X7854420Y-8449208D02*
X7902039Y-8449208D01*
X7902039Y-8449208D02*
X7921087Y-8458732D01*
X7921087Y-8458732D02*
X7930610Y-8468256D01*
X7930610Y-8468256D02*
X7940134Y-8487303D01*
X7940134Y-8487303D02*
X7940134Y-8506351D01*
X7940134Y-8506351D02*
X7930610Y-8534922D01*
X7930610Y-8534922D02*
X7816325Y-8649208D01*
X7816325Y-8649208D02*
X7940134Y-8649208D01*
X8063944Y-8449208D02*
X8082991Y-8449208D01*
X8082991Y-8449208D02*
X8102039Y-8458732D01*
X8102039Y-8458732D02*
X8111563Y-8468256D01*
X8111563Y-8468256D02*
X8121087Y-8487303D01*
X8121087Y-8487303D02*
X8130610Y-8525399D01*
X8130610Y-8525399D02*
X8130610Y-8573018D01*
X8130610Y-8573018D02*
X8121087Y-8611113D01*
X8121087Y-8611113D02*
X8111563Y-8630160D01*
X8111563Y-8630160D02*
X8102039Y-8639684D01*
X8102039Y-8639684D02*
X8082991Y-8649208D01*
X8082991Y-8649208D02*
X8063944Y-8649208D01*
X8063944Y-8649208D02*
X8044896Y-8639684D01*
X8044896Y-8639684D02*
X8035372Y-8630160D01*
X8035372Y-8630160D02*
X8025849Y-8611113D01*
X8025849Y-8611113D02*
X8016325Y-8573018D01*
X8016325Y-8573018D02*
X8016325Y-8525399D01*
X8016325Y-8525399D02*
X8025849Y-8487303D01*
X8025849Y-8487303D02*
X8035372Y-8468256D01*
X8035372Y-8468256D02*
X8044896Y-8458732D01*
X8044896Y-8458732D02*
X8063944Y-8449208D01*
X8254420Y-8449208D02*
X8273468Y-8449208D01*
X8273468Y-8449208D02*
X8292515Y-8458732D01*
X8292515Y-8458732D02*
X8302039Y-8468256D01*
X8302039Y-8468256D02*
X8311563Y-8487303D01*
X8311563Y-8487303D02*
X8321087Y-8525399D01*
X8321087Y-8525399D02*
X8321087Y-8573018D01*
X8321087Y-8573018D02*
X8311563Y-8611113D01*
X8311563Y-8611113D02*
X8302039Y-8630160D01*
X8302039Y-8630160D02*
X8292515Y-8639684D01*
X8292515Y-8639684D02*
X8273468Y-8649208D01*
X8273468Y-8649208D02*
X8254420Y-8649208D01*
X8254420Y-8649208D02*
X8235372Y-8639684D01*
X8235372Y-8639684D02*
X8225849Y-8630160D01*
X8225849Y-8630160D02*
X8216325Y-8611113D01*
X8216325Y-8611113D02*
X8206801Y-8573018D01*
X8206801Y-8573018D02*
X8206801Y-8525399D01*
X8206801Y-8525399D02*
X8216325Y-8487303D01*
X8216325Y-8487303D02*
X8225849Y-8468256D01*
X8225849Y-8468256D02*
X8235372Y-8458732D01*
X8235372Y-8458732D02*
X8254420Y-8449208D01*
X8406801Y-8649208D02*
X8406801Y-8515875D01*
X8406801Y-8534922D02*
X8416325Y-8525399D01*
X8416325Y-8525399D02*
X8435372Y-8515875D01*
X8435372Y-8515875D02*
X8463944Y-8515875D01*
X8463944Y-8515875D02*
X8482992Y-8525399D01*
X8482992Y-8525399D02*
X8492515Y-8544446D01*
X8492515Y-8544446D02*
X8492515Y-8649208D01*
X8492515Y-8544446D02*
X8502039Y-8525399D01*
X8502039Y-8525399D02*
X8521087Y-8515875D01*
X8521087Y-8515875D02*
X8549658Y-8515875D01*
X8549658Y-8515875D02*
X8568706Y-8525399D01*
X8568706Y-8525399D02*
X8578230Y-8544446D01*
X8578230Y-8544446D02*
X8578230Y-8649208D01*
X8673468Y-8649208D02*
X8673468Y-8515875D01*
X8673468Y-8534922D02*
X8682992Y-8525399D01*
X8682992Y-8525399D02*
X8702039Y-8515875D01*
X8702039Y-8515875D02*
X8730611Y-8515875D01*
X8730611Y-8515875D02*
X8749658Y-8525399D01*
X8749658Y-8525399D02*
X8759182Y-8544446D01*
X8759182Y-8544446D02*
X8759182Y-8649208D01*
X8759182Y-8544446D02*
X8768706Y-8525399D01*
X8768706Y-8525399D02*
X8787753Y-8515875D01*
X8787753Y-8515875D02*
X8816325Y-8515875D01*
X8816325Y-8515875D02*
X8835373Y-8525399D01*
X8835373Y-8525399D02*
X8844896Y-8544446D01*
X8844896Y-8544446D02*
X8844896Y-8649208D01*
X9235373Y-8439684D02*
X9063944Y-8696827D01*
X9492515Y-8449208D02*
X9511563Y-8449208D01*
X9511563Y-8449208D02*
X9530611Y-8458732D01*
X9530611Y-8458732D02*
X9540135Y-8468256D01*
X9540135Y-8468256D02*
X9549658Y-8487303D01*
X9549658Y-8487303D02*
X9559182Y-8525399D01*
X9559182Y-8525399D02*
X9559182Y-8573018D01*
X9559182Y-8573018D02*
X9549658Y-8611113D01*
X9549658Y-8611113D02*
X9540135Y-8630160D01*
X9540135Y-8630160D02*
X9530611Y-8639684D01*
X9530611Y-8639684D02*
X9511563Y-8649208D01*
X9511563Y-8649208D02*
X9492515Y-8649208D01*
X9492515Y-8649208D02*
X9473468Y-8639684D01*
X9473468Y-8639684D02*
X9463944Y-8630160D01*
X9463944Y-8630160D02*
X9454420Y-8611113D01*
X9454420Y-8611113D02*
X9444896Y-8573018D01*
X9444896Y-8573018D02*
X9444896Y-8525399D01*
X9444896Y-8525399D02*
X9454420Y-8487303D01*
X9454420Y-8487303D02*
X9463944Y-8468256D01*
X9463944Y-8468256D02*
X9473468Y-8458732D01*
X9473468Y-8458732D02*
X9492515Y-8449208D01*
X9644896Y-8630160D02*
X9654420Y-8639684D01*
X9654420Y-8639684D02*
X9644896Y-8649208D01*
X9644896Y-8649208D02*
X9635373Y-8639684D01*
X9635373Y-8639684D02*
X9644896Y-8630160D01*
X9644896Y-8630160D02*
X9644896Y-8649208D01*
X9778230Y-8449208D02*
X9797277Y-8449208D01*
X9797277Y-8449208D02*
X9816325Y-8458732D01*
X9816325Y-8458732D02*
X9825849Y-8468256D01*
X9825849Y-8468256D02*
X9835373Y-8487303D01*
X9835373Y-8487303D02*
X9844896Y-8525399D01*
X9844896Y-8525399D02*
X9844896Y-8573018D01*
X9844896Y-8573018D02*
X9835373Y-8611113D01*
X9835373Y-8611113D02*
X9825849Y-8630160D01*
X9825849Y-8630160D02*
X9816325Y-8639684D01*
X9816325Y-8639684D02*
X9797277Y-8649208D01*
X9797277Y-8649208D02*
X9778230Y-8649208D01*
X9778230Y-8649208D02*
X9759182Y-8639684D01*
X9759182Y-8639684D02*
X9749658Y-8630160D01*
X9749658Y-8630160D02*
X9740135Y-8611113D01*
X9740135Y-8611113D02*
X9730611Y-8573018D01*
X9730611Y-8573018D02*
X9730611Y-8525399D01*
X9730611Y-8525399D02*
X9740135Y-8487303D01*
X9740135Y-8487303D02*
X9749658Y-8468256D01*
X9749658Y-8468256D02*
X9759182Y-8458732D01*
X9759182Y-8458732D02*
X9778230Y-8449208D01*
X9959182Y-8534922D02*
X9940135Y-8525399D01*
X9940135Y-8525399D02*
X9930611Y-8515875D01*
X9930611Y-8515875D02*
X9921087Y-8496827D01*
X9921087Y-8496827D02*
X9921087Y-8487303D01*
X9921087Y-8487303D02*
X9930611Y-8468256D01*
X9930611Y-8468256D02*
X9940135Y-8458732D01*
X9940135Y-8458732D02*
X9959182Y-8449208D01*
X9959182Y-8449208D02*
X9997277Y-8449208D01*
X9997277Y-8449208D02*
X10016325Y-8458732D01*
X10016325Y-8458732D02*
X10025849Y-8468256D01*
X10025849Y-8468256D02*
X10035373Y-8487303D01*
X10035373Y-8487303D02*
X10035373Y-8496827D01*
X10035373Y-8496827D02*
X10025849Y-8515875D01*
X10025849Y-8515875D02*
X10016325Y-8525399D01*
X10016325Y-8525399D02*
X9997277Y-8534922D01*
X9997277Y-8534922D02*
X9959182Y-8534922D01*
X9959182Y-8534922D02*
X9940135Y-8544446D01*
X9940135Y-8544446D02*
X9930611Y-8553970D01*
X9930611Y-8553970D02*
X9921087Y-8573018D01*
X9921087Y-8573018D02*
X9921087Y-8611113D01*
X9921087Y-8611113D02*
X9930611Y-8630160D01*
X9930611Y-8630160D02*
X9940135Y-8639684D01*
X9940135Y-8639684D02*
X9959182Y-8649208D01*
X9959182Y-8649208D02*
X9997277Y-8649208D01*
X9997277Y-8649208D02*
X10016325Y-8639684D01*
X10016325Y-8639684D02*
X10025849Y-8630160D01*
X10025849Y-8630160D02*
X10035373Y-8611113D01*
X10035373Y-8611113D02*
X10035373Y-8573018D01*
X10035373Y-8573018D02*
X10025849Y-8553970D01*
X10025849Y-8553970D02*
X10016325Y-8544446D01*
X10016325Y-8544446D02*
X9997277Y-8534922D01*
X10206801Y-8449208D02*
X10168706Y-8449208D01*
X10168706Y-8449208D02*
X10149658Y-8458732D01*
X10149658Y-8458732D02*
X10140135Y-8468256D01*
X10140135Y-8468256D02*
X10121087Y-8496827D01*
X10121087Y-8496827D02*
X10111563Y-8534922D01*
X10111563Y-8534922D02*
X10111563Y-8611113D01*
X10111563Y-8611113D02*
X10121087Y-8630160D01*
X10121087Y-8630160D02*
X10130611Y-8639684D01*
X10130611Y-8639684D02*
X10149658Y-8649208D01*
X10149658Y-8649208D02*
X10187754Y-8649208D01*
X10187754Y-8649208D02*
X10206801Y-8639684D01*
X10206801Y-8639684D02*
X10216325Y-8630160D01*
X10216325Y-8630160D02*
X10225849Y-8611113D01*
X10225849Y-8611113D02*
X10225849Y-8563494D01*
X10225849Y-8563494D02*
X10216325Y-8544446D01*
X10216325Y-8544446D02*
X10206801Y-8534922D01*
X10206801Y-8534922D02*
X10187754Y-8525399D01*
X10187754Y-8525399D02*
X10149658Y-8525399D01*
X10149658Y-8525399D02*
X10130611Y-8534922D01*
X10130611Y-8534922D02*
X10121087Y-8544446D01*
X10121087Y-8544446D02*
X10111563Y-8563494D01*
X10397277Y-8449208D02*
X10359182Y-8449208D01*
X10359182Y-8449208D02*
X10340135Y-8458732D01*
X10340135Y-8458732D02*
X10330611Y-8468256D01*
X10330611Y-8468256D02*
X10311563Y-8496827D01*
X10311563Y-8496827D02*
X10302039Y-8534922D01*
X10302039Y-8534922D02*
X10302039Y-8611113D01*
X10302039Y-8611113D02*
X10311563Y-8630160D01*
X10311563Y-8630160D02*
X10321087Y-8639684D01*
X10321087Y-8639684D02*
X10340135Y-8649208D01*
X10340135Y-8649208D02*
X10378230Y-8649208D01*
X10378230Y-8649208D02*
X10397277Y-8639684D01*
X10397277Y-8639684D02*
X10406801Y-8630160D01*
X10406801Y-8630160D02*
X10416325Y-8611113D01*
X10416325Y-8611113D02*
X10416325Y-8563494D01*
X10416325Y-8563494D02*
X10406801Y-8544446D01*
X10406801Y-8544446D02*
X10397277Y-8534922D01*
X10397277Y-8534922D02*
X10378230Y-8525399D01*
X10378230Y-8525399D02*
X10340135Y-8525399D01*
X10340135Y-8525399D02*
X10321087Y-8534922D01*
X10321087Y-8534922D02*
X10311563Y-8544446D01*
X10311563Y-8544446D02*
X10302039Y-8563494D01*
X10492516Y-8449208D02*
X10492516Y-8487303D01*
X10568706Y-8449208D02*
X10568706Y-8487303D01*
X10863944Y-8725399D02*
X10854420Y-8715875D01*
X10854420Y-8715875D02*
X10835373Y-8687303D01*
X10835373Y-8687303D02*
X10825849Y-8668256D01*
X10825849Y-8668256D02*
X10816325Y-8639684D01*
X10816325Y-8639684D02*
X10806801Y-8592065D01*
X10806801Y-8592065D02*
X10806801Y-8553970D01*
X10806801Y-8553970D02*
X10816325Y-8506351D01*
X10816325Y-8506351D02*
X10825849Y-8477780D01*
X10825849Y-8477780D02*
X10835373Y-8458732D01*
X10835373Y-8458732D02*
X10854420Y-8430160D01*
X10854420Y-8430160D02*
X10863944Y-8420637D01*
X11025849Y-8515875D02*
X11025849Y-8649208D01*
X10978230Y-8439684D02*
X10930611Y-8582541D01*
X10930611Y-8582541D02*
X11054420Y-8582541D01*
X11282992Y-8649208D02*
X11282992Y-8449208D01*
X11368706Y-8649208D02*
X11368706Y-8544446D01*
X11368706Y-8544446D02*
X11359182Y-8525399D01*
X11359182Y-8525399D02*
X11340135Y-8515875D01*
X11340135Y-8515875D02*
X11311563Y-8515875D01*
X11311563Y-8515875D02*
X11292516Y-8525399D01*
X11292516Y-8525399D02*
X11282992Y-8534922D01*
X11492516Y-8649208D02*
X11473468Y-8639684D01*
X11473468Y-8639684D02*
X11463944Y-8630160D01*
X11463944Y-8630160D02*
X11454420Y-8611113D01*
X11454420Y-8611113D02*
X11454420Y-8553970D01*
X11454420Y-8553970D02*
X11463944Y-8534922D01*
X11463944Y-8534922D02*
X11473468Y-8525399D01*
X11473468Y-8525399D02*
X11492516Y-8515875D01*
X11492516Y-8515875D02*
X11521087Y-8515875D01*
X11521087Y-8515875D02*
X11540135Y-8525399D01*
X11540135Y-8525399D02*
X11549658Y-8534922D01*
X11549658Y-8534922D02*
X11559182Y-8553970D01*
X11559182Y-8553970D02*
X11559182Y-8611113D01*
X11559182Y-8611113D02*
X11549658Y-8630160D01*
X11549658Y-8630160D02*
X11540135Y-8639684D01*
X11540135Y-8639684D02*
X11521087Y-8649208D01*
X11521087Y-8649208D02*
X11492516Y-8649208D01*
X11673468Y-8649208D02*
X11654420Y-8639684D01*
X11654420Y-8639684D02*
X11644897Y-8620637D01*
X11644897Y-8620637D02*
X11644897Y-8449208D01*
X11825849Y-8639684D02*
X11806801Y-8649208D01*
X11806801Y-8649208D02*
X11768706Y-8649208D01*
X11768706Y-8649208D02*
X11749658Y-8639684D01*
X11749658Y-8639684D02*
X11740135Y-8620637D01*
X11740135Y-8620637D02*
X11740135Y-8544446D01*
X11740135Y-8544446D02*
X11749658Y-8525399D01*
X11749658Y-8525399D02*
X11768706Y-8515875D01*
X11768706Y-8515875D02*
X11806801Y-8515875D01*
X11806801Y-8515875D02*
X11825849Y-8525399D01*
X11825849Y-8525399D02*
X11835373Y-8544446D01*
X11835373Y-8544446D02*
X11835373Y-8563494D01*
X11835373Y-8563494D02*
X11740135Y-8582541D01*
X11911563Y-8639684D02*
X11930611Y-8649208D01*
X11930611Y-8649208D02*
X11968706Y-8649208D01*
X11968706Y-8649208D02*
X11987754Y-8639684D01*
X11987754Y-8639684D02*
X11997278Y-8620637D01*
X11997278Y-8620637D02*
X11997278Y-8611113D01*
X11997278Y-8611113D02*
X11987754Y-8592065D01*
X11987754Y-8592065D02*
X11968706Y-8582541D01*
X11968706Y-8582541D02*
X11940135Y-8582541D01*
X11940135Y-8582541D02*
X11921087Y-8573018D01*
X11921087Y-8573018D02*
X11911563Y-8553970D01*
X11911563Y-8553970D02*
X11911563Y-8544446D01*
X11911563Y-8544446D02*
X11921087Y-8525399D01*
X11921087Y-8525399D02*
X11940135Y-8515875D01*
X11940135Y-8515875D02*
X11968706Y-8515875D01*
X11968706Y-8515875D02*
X11987754Y-8525399D01*
X12063944Y-8725399D02*
X12073468Y-8715875D01*
X12073468Y-8715875D02*
X12092516Y-8687303D01*
X12092516Y-8687303D02*
X12102039Y-8668256D01*
X12102039Y-8668256D02*
X12111563Y-8639684D01*
X12111563Y-8639684D02*
X12121087Y-8592065D01*
X12121087Y-8592065D02*
X12121087Y-8553970D01*
X12121087Y-8553970D02*
X12111563Y-8506351D01*
X12111563Y-8506351D02*
X12102039Y-8477780D01*
X12102039Y-8477780D02*
X12092516Y-8458732D01*
X12092516Y-8458732D02*
X12073468Y-8430160D01*
X12073468Y-8430160D02*
X12063944Y-8420637D01*
M02*
