M48
; DRILL file {KiCad 8.0.8} date 2025-04-14T11:13:20+0100
; FORMAT={-:-/ absolute / metric / decimal}
; #@! TF.CreationDate,2025-04-14T11:13:20+01:00
; #@! TF.GenerationSoftware,Kicad,Pcbnew,8.0.8
; #@! TF.FileFunction,Plated,1,2,PTH
FMAT,2
METRIC
; #@! TA.AperFunction,Plated,PTH,ViaDrill
T1C0.300
; #@! TA.AperFunction,Plated,PTH,ComponentDrill
T2C0.400
; #@! TA.AperFunction,Plated,PTH,ComponentDrill
T3C1.100
; #@! TA.AperFunction,Plated,PTH,ComponentDrill
T4C2.200
%
G90
G05
T1
X80.65Y-54.75
X81.6Y-54.75
T2
X74.45Y-45.533
X74.45Y-68.0
X74.933Y-44.367
X74.933Y-46.7
X74.933Y-66.833
X74.933Y-69.167
X76.1Y-43.883
X76.1Y-47.183
X76.1Y-66.35
X76.1Y-69.65
X77.267Y-44.367
X77.267Y-46.7
X77.267Y-66.833
X77.267Y-69.167
X77.75Y-45.533
X77.75Y-68.0
X91.483Y-45.5
X91.5Y-68.0
X91.967Y-44.333
X91.967Y-46.667
X91.983Y-66.833
X91.983Y-69.167
X93.133Y-43.85
X93.133Y-47.15
X93.15Y-66.35
X93.15Y-69.65
X94.3Y-44.333
X94.3Y-46.667
X94.317Y-66.833
X94.317Y-69.167
X94.783Y-45.5
X94.8Y-68.0
T3
X92.325Y-52.6
X92.325Y-55.1
X92.325Y-57.6
X92.325Y-60.1
X92.325Y-62.6
T4
X76.1Y-45.533
X76.1Y-68.0
X93.133Y-45.5
X93.15Y-68.0
M30
