G04 #@! TF.GenerationSoftware,KiCad,Pcbnew,8.0.8*
G04 #@! TF.CreationDate,2025-04-14T11:12:42+01:00*
G04 #@! TF.ProjectId,Bat-mon_v1-Sensor Shield,4261742d-6d6f-46e5-9f76-312d53656e73,rev?*
G04 #@! TF.SameCoordinates,Original*
G04 #@! TF.FileFunction,Soldermask,Bot*
G04 #@! TF.FilePolarity,Negative*
%FSLAX46Y46*%
G04 Gerber Fmt 4.6, Leading zero omitted, Abs format (unit mm)*
G04 Created by KiCad (PCBNEW 8.0.8) date 2025-04-14 11:12:42*
%MOMM*%
%LPD*%
G01*
G04 APERTURE LIST*
%ADD10C,0.700000*%
%ADD11C,4.400000*%
%ADD12R,1.650000X1.650000*%
%ADD13C,1.650000*%
G04 APERTURE END LIST*
D10*
X74450000Y-68000000D03*
X74933274Y-66833274D03*
X74933274Y-69166726D03*
X76100000Y-66350000D03*
D11*
X76100000Y-68000000D03*
D10*
X76100000Y-69650000D03*
X77266726Y-66833274D03*
X77266726Y-69166726D03*
X77750000Y-68000000D03*
X91500000Y-68000000D03*
X91983274Y-66833274D03*
X91983274Y-69166726D03*
X93150000Y-66350000D03*
D11*
X93150000Y-68000000D03*
D10*
X93150000Y-69650000D03*
X94316726Y-66833274D03*
X94316726Y-69166726D03*
X94800000Y-68000000D03*
X74450000Y-45533274D03*
X74933274Y-44366548D03*
X74933274Y-46700000D03*
X76100000Y-43883274D03*
D11*
X76100000Y-45533274D03*
D10*
X76100000Y-47183274D03*
X77266726Y-44366548D03*
X77266726Y-46700000D03*
X77750000Y-45533274D03*
D12*
X92325000Y-62600000D03*
D13*
X92325000Y-60100000D03*
X92325000Y-57600000D03*
X92325000Y-55100000D03*
X92325000Y-52600000D03*
D10*
X91483274Y-45500000D03*
X91966548Y-44333274D03*
X91966548Y-46666726D03*
X93133274Y-43850000D03*
D11*
X93133274Y-45500000D03*
D10*
X93133274Y-47150000D03*
X94300000Y-44333274D03*
X94300000Y-46666726D03*
X94783274Y-45500000D03*
M02*
